%TF.GenerationSoftware,KiCad,Pcbnew,7.0.2*%
%TF.CreationDate,2023-07-28T16:56:03-04:00*%
%TF.ProjectId,dispocam-hub,64697370-6f63-4616-9d2d-6875622e6b69,rev?*%
%TF.SameCoordinates,Original*%
%TF.FileFunction,Paste,Top*%
%TF.FilePolarity,Positive*%
%FSLAX46Y46*%
G04 Gerber Fmt 4.6, Leading zero omitted, Abs format (unit mm)*
G04 Created by KiCad (PCBNEW 7.0.2) date 2023-07-28 16:56:03*
%MOMM*%
%LPD*%
G01*
G04 APERTURE LIST*
G04 Aperture macros list*
%AMRoundRect*
0 Rectangle with rounded corners*
0 $1 Rounding radius*
0 $2 $3 $4 $5 $6 $7 $8 $9 X,Y pos of 4 corners*
0 Add a 4 corners polygon primitive as box body*
4,1,4,$2,$3,$4,$5,$6,$7,$8,$9,$2,$3,0*
0 Add four circle primitives for the rounded corners*
1,1,$1+$1,$2,$3*
1,1,$1+$1,$4,$5*
1,1,$1+$1,$6,$7*
1,1,$1+$1,$8,$9*
0 Add four rect primitives between the rounded corners*
20,1,$1+$1,$2,$3,$4,$5,0*
20,1,$1+$1,$4,$5,$6,$7,0*
20,1,$1+$1,$6,$7,$8,$9,0*
20,1,$1+$1,$8,$9,$2,$3,0*%
G04 Aperture macros list end*
%ADD10RoundRect,0.225000X0.250000X-0.225000X0.250000X0.225000X-0.250000X0.225000X-0.250000X-0.225000X0*%
%ADD11R,0.340000X0.700000*%
%ADD12RoundRect,0.200000X-0.275000X0.200000X-0.275000X-0.200000X0.275000X-0.200000X0.275000X0.200000X0*%
%ADD13RoundRect,0.200000X-0.200000X-0.275000X0.200000X-0.275000X0.200000X0.275000X-0.200000X0.275000X0*%
%ADD14R,1.050000X0.650000*%
%ADD15RoundRect,0.225000X0.225000X0.250000X-0.225000X0.250000X-0.225000X-0.250000X0.225000X-0.250000X0*%
%ADD16RoundRect,0.150000X0.150000X-0.875000X0.150000X0.875000X-0.150000X0.875000X-0.150000X-0.875000X0*%
%ADD17RoundRect,0.200000X0.200000X0.275000X-0.200000X0.275000X-0.200000X-0.275000X0.200000X-0.275000X0*%
%ADD18R,3.700000X0.980000*%
G04 APERTURE END LIST*
D10*
%TO.C,C5*%
X132207000Y-102248000D03*
X132207000Y-100698000D03*
%TD*%
D11*
%TO.C,U1*%
X137652000Y-99544000D03*
X137152000Y-99544000D03*
X136652000Y-99544000D03*
X136652000Y-98044000D03*
X137152000Y-98044000D03*
X137652000Y-98044000D03*
%TD*%
D12*
%TO.C,R3*%
X138430000Y-96710000D03*
X138430000Y-95060000D03*
%TD*%
D13*
%TO.C,R2*%
X139891000Y-96520000D03*
X141541000Y-96520000D03*
%TD*%
D10*
%TO.C,C4*%
X132207000Y-103746000D03*
X132207000Y-105296000D03*
%TD*%
D14*
%TO.C,SW5*%
X139235000Y-108390000D03*
X135085000Y-108390000D03*
X139235000Y-106240000D03*
X135085000Y-106240000D03*
%TD*%
D15*
%TO.C,C3*%
X136115000Y-100965000D03*
X137665000Y-100965000D03*
%TD*%
D16*
%TO.C,U2*%
X121539000Y-107520000D03*
X122809000Y-107520000D03*
X124079000Y-107520000D03*
X125349000Y-107520000D03*
X126619000Y-107520000D03*
X127889000Y-107520000D03*
X129159000Y-107520000D03*
X130429000Y-107520000D03*
X130429000Y-98220000D03*
X129159000Y-98220000D03*
X127889000Y-98220000D03*
X126619000Y-98220000D03*
X125349000Y-98220000D03*
X124079000Y-98220000D03*
X122809000Y-98220000D03*
X121539000Y-98220000D03*
%TD*%
D15*
%TO.C,C2*%
X136115000Y-102459000D03*
X137665000Y-102459000D03*
%TD*%
D17*
%TO.C,R1*%
X141541000Y-98044000D03*
X139891000Y-98044000D03*
%TD*%
D18*
%TO.C,L1*%
X133842000Y-98594000D03*
X133842000Y-96224000D03*
%TD*%
D10*
%TO.C,C1*%
X136890000Y-95084600D03*
X136890000Y-96634600D03*
%TD*%
D17*
%TO.C,R4*%
X125540000Y-96139000D03*
X127190000Y-96139000D03*
%TD*%
%TO.C,R5*%
X125540000Y-94615000D03*
X127190000Y-94615000D03*
%TD*%
M02*
