%TF.GenerationSoftware,KiCad,Pcbnew,7.0.2*%
%TF.CreationDate,2023-07-28T16:56:03-04:00*%
%TF.ProjectId,dispocam-hub,64697370-6f63-4616-9d2d-6875622e6b69,rev?*%
%TF.SameCoordinates,Original*%
%TF.FileFunction,Copper,L2,Bot*%
%TF.FilePolarity,Positive*%
%FSLAX46Y46*%
G04 Gerber Fmt 4.6, Leading zero omitted, Abs format (unit mm)*
G04 Created by KiCad (PCBNEW 7.0.2) date 2023-07-28 16:56:03*
%MOMM*%
%LPD*%
G01*
G04 APERTURE LIST*
%TA.AperFunction,SMDPad,CuDef*%
%ADD10C,10.200000*%
%TD*%
%TA.AperFunction,SMDPad,CuDef*%
%ADD11R,5.100000X2.500000*%
%TD*%
%TA.AperFunction,ComponentPad*%
%ADD12O,1.700000X1.700000*%
%TD*%
%TA.AperFunction,ComponentPad*%
%ADD13C,1.700000*%
%TD*%
%TA.AperFunction,ComponentPad*%
%ADD14C,3.810000*%
%TD*%
%TA.AperFunction,ComponentPad*%
%ADD15R,1.700000X1.700000*%
%TD*%
%TA.AperFunction,ViaPad*%
%ADD16C,0.558800*%
%TD*%
%TA.AperFunction,Conductor*%
%ADD17C,0.152400*%
%TD*%
G04 APERTURE END LIST*
D10*
%TO.P,BT1,2,-*%
%TO.N,GND*%
X128220000Y-101884000D03*
D11*
%TO.P,BT1,1,+*%
%TO.N,Net-(BT1-+)*%
X128270000Y-94234000D03*
X128270000Y-109534000D03*
%TD*%
D12*
%TO.P,M1,6,-*%
%TO.N,GND*%
X146553000Y-103124000D03*
%TO.P,M1,5,-*%
X144013000Y-103124000D03*
%TO.P,M1,4,+*%
%TO.N,+5V*%
X146553000Y-100584000D03*
%TO.P,M1,3,+*%
X144013000Y-100584000D03*
%TO.P,M1,2,PWM*%
%TO.N,/11*%
X146553000Y-98044000D03*
D13*
%TO.P,M1,1,PWM*%
%TO.N,/12*%
X144013000Y-98044000D03*
%TD*%
D12*
%TO.P,M2,6,-*%
%TO.N,GND*%
X152908000Y-103124000D03*
%TO.P,M2,5,-*%
X150368000Y-103124000D03*
%TO.P,M2,4,+*%
%TO.N,+5V*%
X152908000Y-100584000D03*
%TO.P,M2,3,+*%
X150368000Y-100584000D03*
%TO.P,M2,2,PWM*%
%TO.N,/9*%
X152908000Y-98044000D03*
D13*
%TO.P,M2,1,PWM*%
%TO.N,/10*%
X150368000Y-98044000D03*
%TD*%
D12*
%TO.P,M3,6,-*%
%TO.N,GND*%
X159253000Y-103139000D03*
%TO.P,M3,5,-*%
X156713000Y-103139000D03*
%TO.P,M3,4,+*%
%TO.N,+5V*%
X159253000Y-100599000D03*
%TO.P,M3,3,+*%
X156713000Y-100599000D03*
%TO.P,M3,2,PWM*%
%TO.N,/5*%
X159253000Y-98059000D03*
D13*
%TO.P,M3,1,PWM*%
%TO.N,/6*%
X156713000Y-98059000D03*
%TD*%
D12*
%TO.P,M4,6,-*%
%TO.N,GND*%
X165608000Y-103124000D03*
%TO.P,M4,5,-*%
X163068000Y-103124000D03*
%TO.P,M4,4,+*%
%TO.N,+5V*%
X165608000Y-100584000D03*
%TO.P,M4,3,+*%
X163068000Y-100584000D03*
%TO.P,M4,2,PWM*%
%TO.N,/MISO{slash}14*%
X165608000Y-98044000D03*
D13*
%TO.P,M4,1,PWM*%
%TO.N,/MOSI{slash}16*%
X163068000Y-98044000D03*
%TD*%
D12*
%TO.P,J2,12,Pin_12*%
%TO.N,/SDA*%
X163830000Y-92710000D03*
%TO.P,J2,11,Pin_11*%
%TO.N,/SCL*%
X161290000Y-92710000D03*
%TO.P,J2,10,Pin_10*%
%TO.N,/5*%
X158750000Y-92710000D03*
%TO.P,J2,9,Pin_9*%
%TO.N,/6*%
X156210000Y-92710000D03*
%TO.P,J2,8,Pin_8*%
%TO.N,/9*%
X153670000Y-92710000D03*
%TO.P,J2,7,Pin_7*%
%TO.N,/10*%
X151130000Y-92710000D03*
%TO.P,J2,6,Pin_6*%
%TO.N,/11*%
X148590000Y-92710000D03*
%TO.P,J2,5,Pin_5*%
%TO.N,/12*%
X146050000Y-92710000D03*
%TO.P,J2,4,Pin_4*%
%TO.N,/13*%
X143510000Y-92710000D03*
%TO.P,J2,3,Pin_3*%
%TO.N,/USB*%
X140970000Y-92710000D03*
%TO.P,J2,2,Pin_2*%
%TO.N,/EN*%
X138430000Y-92710000D03*
D13*
%TO.P,J2,1,Pin_1*%
%TO.N,/BAT*%
X135890000Y-92710000D03*
%TD*%
%TO.P,J1,1,Pin_1*%
%TO.N,/RST*%
X125730000Y-113030000D03*
D12*
%TO.P,J1,2,Pin_2*%
%TO.N,+3V3*%
X128270000Y-113030000D03*
%TO.P,J1,3,Pin_3*%
%TO.N,/AREF*%
X130810000Y-113030000D03*
%TO.P,J1,4,Pin_4*%
%TO.N,GND*%
X133350000Y-113030000D03*
%TO.P,J1,5,Pin_5*%
%TO.N,/A0*%
X135890000Y-113030000D03*
%TO.P,J1,6,Pin_6*%
%TO.N,/A1*%
X138430000Y-113030000D03*
%TO.P,J1,7,Pin_7*%
%TO.N,/A2{slash}20*%
X140970000Y-113030000D03*
%TO.P,J1,8,Pin_8*%
%TO.N,/A3{slash}21*%
X143510000Y-113030000D03*
%TO.P,J1,9,Pin_9*%
%TO.N,/A4{slash}22*%
X146050000Y-113030000D03*
%TO.P,J1,10,Pin_10*%
%TO.N,/A5{slash}23*%
X148590000Y-113030000D03*
%TO.P,J1,11,Pin_11*%
%TO.N,/SCK{slash}15*%
X151130000Y-113030000D03*
%TO.P,J1,12,Pin_12*%
%TO.N,/MOSI{slash}16*%
X153670000Y-113030000D03*
%TO.P,J1,13,Pin_13*%
%TO.N,/MISO{slash}14*%
X156210000Y-113030000D03*
%TO.P,J1,14,Pin_14*%
%TO.N,/RX{slash}0*%
X158750000Y-113030000D03*
%TO.P,J1,15,Pin_15*%
%TO.N,/TX{slash}1*%
X161290000Y-113030000D03*
%TO.P,J1,16,Pin_16*%
%TO.N,GND*%
X163830000Y-113030000D03*
%TD*%
D14*
%TO.P,H2,1,1*%
%TO.N,GND*%
X121920000Y-93980000D03*
%TD*%
%TO.P,H1,1,1*%
%TO.N,GND*%
X121920000Y-111760000D03*
%TD*%
D15*
%TO.P,SW3,1,A*%
%TO.N,/A5{slash}23*%
X156718000Y-106734000D03*
D12*
%TO.P,SW3,2,B*%
%TO.N,GND*%
X159258000Y-106734000D03*
%TD*%
D15*
%TO.P,SW2,1,A*%
%TO.N,/A4{slash}22*%
X150363000Y-106734000D03*
D12*
%TO.P,SW2,2,B*%
%TO.N,GND*%
X152903000Y-106734000D03*
%TD*%
D15*
%TO.P,SW4,1,A*%
%TO.N,/SCK{slash}15*%
X163068000Y-106734000D03*
D12*
%TO.P,SW4,2,B*%
%TO.N,GND*%
X165608000Y-106734000D03*
%TD*%
D15*
%TO.P,SW1,1,A*%
%TO.N,/A3{slash}21*%
X144013000Y-106734000D03*
D12*
%TO.P,SW1,2,B*%
%TO.N,GND*%
X146553000Y-106734000D03*
%TD*%
D16*
%TO.N,GND*%
X134366000Y-100076000D03*
X142875000Y-95758000D03*
%TO.N,/SCL*%
X133858000Y-93599000D03*
%TO.N,/SDA*%
X133985000Y-94996000D03*
%TO.N,Net-(BT1-+)*%
X124079000Y-96393000D03*
%TD*%
D17*
%TO.N,/SCL*%
X159677100Y-94322900D02*
X161290000Y-92710000D01*
X133858000Y-93599000D02*
X134581900Y-94322900D01*
X134581900Y-94322900D02*
X159677100Y-94322900D01*
%TO.N,/SDA*%
X161925000Y-94615000D02*
X163830000Y-92710000D01*
X134366000Y-94615000D02*
X161925000Y-94615000D01*
X133985000Y-94996000D02*
X134366000Y-94615000D01*
%TO.N,Net-(BT1-+)*%
X122815200Y-105379200D02*
X122815200Y-97656800D01*
X126970000Y-109534000D02*
X122815200Y-105379200D01*
X122815200Y-97656800D02*
X124079000Y-96393000D01*
X128270000Y-109534000D02*
X126970000Y-109534000D01*
X124079000Y-96393000D02*
X126238000Y-94234000D01*
X126238000Y-94234000D02*
X128270000Y-94234000D01*
%TD*%
%TA.AperFunction,Conductor*%
%TO.N,GND*%
G36*
X152448507Y-102914156D02*
G01*
X152408000Y-103052111D01*
X152408000Y-103195889D01*
X152448507Y-103333844D01*
X152474314Y-103374000D01*
X150801686Y-103374000D01*
X150827493Y-103333844D01*
X150868000Y-103195889D01*
X150868000Y-103052111D01*
X150827493Y-102914156D01*
X150801686Y-102874000D01*
X152474314Y-102874000D01*
X152448507Y-102914156D01*
G37*
%TD.AperFunction*%
%TA.AperFunction,Conductor*%
G36*
X158793507Y-102929156D02*
G01*
X158753000Y-103067111D01*
X158753000Y-103210889D01*
X158793507Y-103348844D01*
X158819314Y-103389000D01*
X157146686Y-103389000D01*
X157172493Y-103348844D01*
X157213000Y-103210889D01*
X157213000Y-103067111D01*
X157172493Y-102929156D01*
X157146686Y-102889000D01*
X158819314Y-102889000D01*
X158793507Y-102929156D01*
G37*
%TD.AperFunction*%
%TA.AperFunction,Conductor*%
G36*
X146093507Y-102914156D02*
G01*
X146053000Y-103052111D01*
X146053000Y-103195889D01*
X146093507Y-103333844D01*
X146119314Y-103374000D01*
X144446686Y-103374000D01*
X144472493Y-103333844D01*
X144513000Y-103195889D01*
X144513000Y-103052111D01*
X144472493Y-102914156D01*
X144446686Y-102874000D01*
X146119314Y-102874000D01*
X146093507Y-102914156D01*
G37*
%TD.AperFunction*%
%TA.AperFunction,Conductor*%
G36*
X165148507Y-102914156D02*
G01*
X165108000Y-103052111D01*
X165108000Y-103195889D01*
X165148507Y-103333844D01*
X165174314Y-103374000D01*
X163501686Y-103374000D01*
X163527493Y-103333844D01*
X163568000Y-103195889D01*
X163568000Y-103052111D01*
X163527493Y-102914156D01*
X163501686Y-102874000D01*
X165174314Y-102874000D01*
X165148507Y-102914156D01*
G37*
%TD.AperFunction*%
%TA.AperFunction,Conductor*%
G36*
X134749033Y-91760185D02*
G01*
X134794788Y-91812989D01*
X134804732Y-91882147D01*
X134783570Y-91935619D01*
X134715965Y-92032171D01*
X134715964Y-92032173D01*
X134616097Y-92246336D01*
X134554936Y-92474592D01*
X134534340Y-92710000D01*
X134548980Y-92877336D01*
X134535213Y-92945836D01*
X134486598Y-92996019D01*
X134418569Y-93011952D01*
X134360174Y-92991220D01*
X134359167Y-92992824D01*
X134198524Y-92891886D01*
X134032642Y-92833841D01*
X133857999Y-92814164D01*
X133683357Y-92833841D01*
X133517475Y-92891886D01*
X133368660Y-92985392D01*
X133244392Y-93109660D01*
X133150886Y-93258475D01*
X133092841Y-93424357D01*
X133073164Y-93598999D01*
X133092841Y-93773642D01*
X133150886Y-93939524D01*
X133244392Y-94088339D01*
X133368662Y-94212609D01*
X133419264Y-94244404D01*
X133465556Y-94296738D01*
X133476205Y-94365791D01*
X133447830Y-94429640D01*
X133440974Y-94437079D01*
X133371392Y-94506660D01*
X133277886Y-94655475D01*
X133219841Y-94821357D01*
X133200164Y-94995999D01*
X133219841Y-95170642D01*
X133277886Y-95336524D01*
X133371392Y-95485339D01*
X133495660Y-95609607D01*
X133495662Y-95609608D01*
X133495663Y-95609609D01*
X133514517Y-95621456D01*
X133644475Y-95703113D01*
X133810357Y-95761158D01*
X133984999Y-95780835D01*
X133984999Y-95780834D01*
X133985000Y-95780835D01*
X134159642Y-95761158D01*
X134325527Y-95703112D01*
X134474337Y-95609609D01*
X134598609Y-95485337D01*
X134692112Y-95336527D01*
X134705902Y-95297118D01*
X134713731Y-95274745D01*
X134754452Y-95217969D01*
X134819405Y-95192222D01*
X134830772Y-95191700D01*
X161879077Y-95191700D01*
X161895261Y-95192760D01*
X161925000Y-95196676D01*
X162075549Y-95176856D01*
X162215838Y-95118746D01*
X162306062Y-95049515D01*
X162306062Y-95049514D01*
X162336307Y-95026307D01*
X162354569Y-95002505D01*
X162365255Y-94990320D01*
X163249252Y-94106323D01*
X166115500Y-94106323D01*
X166157084Y-94355527D01*
X166235604Y-94584246D01*
X166239119Y-94594484D01*
X166359366Y-94816680D01*
X166359367Y-94816681D01*
X166514544Y-95016055D01*
X166550891Y-95049514D01*
X166700423Y-95187168D01*
X166911931Y-95325353D01*
X167143299Y-95426840D01*
X167388216Y-95488862D01*
X167576942Y-95504500D01*
X167579512Y-95504500D01*
X167700488Y-95504500D01*
X167703058Y-95504500D01*
X167891784Y-95488862D01*
X168136701Y-95426840D01*
X168368069Y-95325353D01*
X168579577Y-95187168D01*
X168765455Y-95016055D01*
X168920634Y-94816680D01*
X169040881Y-94594484D01*
X169122916Y-94355525D01*
X169164500Y-94106324D01*
X169164500Y-93853676D01*
X169122916Y-93604475D01*
X169040881Y-93365516D01*
X168920634Y-93143320D01*
X168803499Y-92992824D01*
X168765455Y-92943944D01*
X168645850Y-92833841D01*
X168579577Y-92772832D01*
X168368069Y-92634647D01*
X168368066Y-92634645D01*
X168136704Y-92533161D01*
X168136702Y-92533160D01*
X168136701Y-92533160D01*
X167891784Y-92471138D01*
X167703058Y-92455500D01*
X167576942Y-92455500D01*
X167574395Y-92455711D01*
X167574396Y-92455711D01*
X167388216Y-92471138D01*
X167143295Y-92533161D01*
X166911933Y-92634645D01*
X166790109Y-92714237D01*
X166700423Y-92772832D01*
X166700421Y-92772833D01*
X166700422Y-92772833D01*
X166514544Y-92943944D01*
X166359367Y-93143318D01*
X166359365Y-93143320D01*
X166359366Y-93143320D01*
X166242003Y-93360188D01*
X166239117Y-93365520D01*
X166157084Y-93604472D01*
X166115500Y-93853676D01*
X166115500Y-94106323D01*
X163249252Y-94106323D01*
X163319924Y-94035651D01*
X163381245Y-94002168D01*
X163439697Y-94003559D01*
X163594592Y-94045063D01*
X163712295Y-94055361D01*
X163829999Y-94065659D01*
X163829999Y-94065658D01*
X163830000Y-94065659D01*
X164065408Y-94045063D01*
X164293663Y-93983903D01*
X164507830Y-93884035D01*
X164701401Y-93748495D01*
X164868495Y-93581401D01*
X165004035Y-93387830D01*
X165103903Y-93173663D01*
X165165063Y-92945408D01*
X165185659Y-92710000D01*
X165165063Y-92474592D01*
X165103903Y-92246337D01*
X165004035Y-92032171D01*
X164936429Y-91935620D01*
X164914104Y-91869418D01*
X164931114Y-91801650D01*
X164982062Y-91753837D01*
X165038006Y-91740500D01*
X167592405Y-91740500D01*
X167636249Y-91740500D01*
X167643736Y-91740726D01*
X167902457Y-91756375D01*
X167917318Y-91758179D01*
X168045318Y-91781637D01*
X168168575Y-91804225D01*
X168183097Y-91807804D01*
X168426990Y-91883803D01*
X168440967Y-91889104D01*
X168673915Y-91993946D01*
X168687161Y-92000898D01*
X168905768Y-92133051D01*
X168918079Y-92141549D01*
X169051832Y-92246337D01*
X169119161Y-92299086D01*
X169130369Y-92309016D01*
X169310983Y-92489630D01*
X169320913Y-92500838D01*
X169478446Y-92701914D01*
X169486950Y-92714235D01*
X169559256Y-92833842D01*
X169619098Y-92932832D01*
X169626057Y-92946091D01*
X169730893Y-93179028D01*
X169736199Y-93193018D01*
X169799401Y-93395841D01*
X169812191Y-93436886D01*
X169815774Y-93451424D01*
X169861819Y-93702679D01*
X169863624Y-93717544D01*
X169879274Y-93976262D01*
X169879500Y-93983749D01*
X169879500Y-111756249D01*
X169879274Y-111763736D01*
X169863624Y-112022455D01*
X169861819Y-112037320D01*
X169815774Y-112288575D01*
X169812191Y-112303112D01*
X169783430Y-112395413D01*
X169736203Y-112546970D01*
X169730893Y-112560971D01*
X169626057Y-112793908D01*
X169619098Y-112807167D01*
X169486952Y-113025762D01*
X169478446Y-113038085D01*
X169320913Y-113239161D01*
X169310983Y-113250369D01*
X169130369Y-113430983D01*
X169119161Y-113440913D01*
X168918085Y-113598446D01*
X168905762Y-113606952D01*
X168687167Y-113739098D01*
X168673908Y-113746057D01*
X168440971Y-113850893D01*
X168426975Y-113856200D01*
X168199736Y-113927011D01*
X168183113Y-113932191D01*
X168168575Y-113935774D01*
X167917320Y-113981819D01*
X167902455Y-113983624D01*
X167643736Y-113999274D01*
X167636249Y-113999500D01*
X165037396Y-113999500D01*
X164970357Y-113979815D01*
X164924602Y-113927011D01*
X164914658Y-113857853D01*
X164935821Y-113804376D01*
X165003600Y-113707576D01*
X165103430Y-113493492D01*
X165160636Y-113280000D01*
X164263686Y-113280000D01*
X164289493Y-113239844D01*
X164330000Y-113101889D01*
X164330000Y-112958111D01*
X164289493Y-112820156D01*
X164263686Y-112780000D01*
X165160636Y-112780000D01*
X165160635Y-112779999D01*
X165103430Y-112566507D01*
X165003599Y-112352421D01*
X164868109Y-112158921D01*
X164701081Y-111991893D01*
X164550312Y-111886323D01*
X166115500Y-111886323D01*
X166157084Y-112135527D01*
X166235482Y-112363891D01*
X166239119Y-112374484D01*
X166359366Y-112596680D01*
X166359367Y-112596681D01*
X166514544Y-112796055D01*
X166578181Y-112854636D01*
X166700423Y-112967168D01*
X166911931Y-113105353D01*
X167143299Y-113206840D01*
X167388216Y-113268862D01*
X167576942Y-113284500D01*
X167579512Y-113284500D01*
X167700488Y-113284500D01*
X167703058Y-113284500D01*
X167891784Y-113268862D01*
X168136701Y-113206840D01*
X168368069Y-113105353D01*
X168579577Y-112967168D01*
X168765455Y-112796055D01*
X168920634Y-112596680D01*
X169040881Y-112374484D01*
X169122916Y-112135525D01*
X169164500Y-111886324D01*
X169164500Y-111633676D01*
X169122916Y-111384475D01*
X169040881Y-111145516D01*
X168920634Y-110923320D01*
X168824444Y-110799734D01*
X168765455Y-110723944D01*
X168672516Y-110638388D01*
X168579577Y-110552832D01*
X168368069Y-110414647D01*
X168368066Y-110414645D01*
X168136704Y-110313161D01*
X168136702Y-110313160D01*
X168136701Y-110313160D01*
X167891784Y-110251138D01*
X167703058Y-110235500D01*
X167576942Y-110235500D01*
X167574395Y-110235711D01*
X167574396Y-110235711D01*
X167388216Y-110251138D01*
X167143295Y-110313161D01*
X166911933Y-110414645D01*
X166786809Y-110496393D01*
X166700423Y-110552832D01*
X166700421Y-110552833D01*
X166700422Y-110552833D01*
X166514544Y-110723944D01*
X166359367Y-110923318D01*
X166359365Y-110923320D01*
X166359366Y-110923320D01*
X166241268Y-111141546D01*
X166239117Y-111145520D01*
X166157084Y-111384472D01*
X166115500Y-111633676D01*
X166115500Y-111886323D01*
X164550312Y-111886323D01*
X164507576Y-111856399D01*
X164293492Y-111756569D01*
X164080000Y-111699364D01*
X164080000Y-112594498D01*
X163972315Y-112545320D01*
X163865763Y-112530000D01*
X163794237Y-112530000D01*
X163687685Y-112545320D01*
X163580000Y-112594498D01*
X163580000Y-111699364D01*
X163579999Y-111699364D01*
X163366507Y-111756569D01*
X163152421Y-111856400D01*
X162958921Y-111991890D01*
X162791893Y-112158918D01*
X162661880Y-112344596D01*
X162607303Y-112388220D01*
X162537804Y-112395413D01*
X162475450Y-112363891D01*
X162458730Y-112344595D01*
X162328495Y-112158599D01*
X162161401Y-111991505D01*
X161967830Y-111855965D01*
X161753663Y-111756097D01*
X161692501Y-111739709D01*
X161525407Y-111694936D01*
X161290000Y-111674340D01*
X161054592Y-111694936D01*
X160826336Y-111756097D01*
X160612170Y-111855965D01*
X160418598Y-111991505D01*
X160251508Y-112158595D01*
X160121574Y-112344160D01*
X160066997Y-112387785D01*
X159997498Y-112394977D01*
X159935144Y-112363455D01*
X159918429Y-112344164D01*
X159788495Y-112158599D01*
X159621401Y-111991505D01*
X159427830Y-111855965D01*
X159213663Y-111756097D01*
X159152502Y-111739709D01*
X158985407Y-111694936D01*
X158749999Y-111674340D01*
X158514592Y-111694936D01*
X158286336Y-111756097D01*
X158072170Y-111855965D01*
X157878598Y-111991505D01*
X157711505Y-112158598D01*
X157581575Y-112344159D01*
X157526998Y-112387784D01*
X157457500Y-112394978D01*
X157395145Y-112363455D01*
X157378425Y-112344159D01*
X157248494Y-112158598D01*
X157081404Y-111991508D01*
X157081401Y-111991505D01*
X156887830Y-111855965D01*
X156673663Y-111756097D01*
X156612501Y-111739709D01*
X156445407Y-111694936D01*
X156210000Y-111674340D01*
X155974592Y-111694936D01*
X155746336Y-111756097D01*
X155532170Y-111855965D01*
X155338598Y-111991505D01*
X155171505Y-112158598D01*
X155041575Y-112344159D01*
X154986998Y-112387784D01*
X154917500Y-112394978D01*
X154855145Y-112363455D01*
X154838425Y-112344159D01*
X154708494Y-112158598D01*
X154541404Y-111991508D01*
X154541401Y-111991505D01*
X154347830Y-111855965D01*
X154133663Y-111756097D01*
X154072501Y-111739709D01*
X153905407Y-111694936D01*
X153670000Y-111674340D01*
X153434592Y-111694936D01*
X153206336Y-111756097D01*
X152992170Y-111855965D01*
X152798598Y-111991505D01*
X152631505Y-112158598D01*
X152501575Y-112344159D01*
X152446998Y-112387784D01*
X152377500Y-112394978D01*
X152315145Y-112363455D01*
X152298425Y-112344159D01*
X152168494Y-112158598D01*
X152001404Y-111991508D01*
X152001401Y-111991505D01*
X151807830Y-111855965D01*
X151593663Y-111756097D01*
X151532502Y-111739709D01*
X151365407Y-111694936D01*
X151130000Y-111674340D01*
X150894592Y-111694936D01*
X150666336Y-111756097D01*
X150452170Y-111855965D01*
X150258598Y-111991505D01*
X150091508Y-112158595D01*
X149961574Y-112344160D01*
X149906997Y-112387785D01*
X149837498Y-112394977D01*
X149775144Y-112363455D01*
X149758429Y-112344164D01*
X149628495Y-112158599D01*
X149461401Y-111991505D01*
X149267830Y-111855965D01*
X149053663Y-111756097D01*
X148992502Y-111739709D01*
X148825407Y-111694936D01*
X148590000Y-111674340D01*
X148354592Y-111694936D01*
X148126336Y-111756097D01*
X147912170Y-111855965D01*
X147718598Y-111991505D01*
X147551505Y-112158598D01*
X147421575Y-112344159D01*
X147366998Y-112387784D01*
X147297500Y-112394978D01*
X147235145Y-112363455D01*
X147218425Y-112344159D01*
X147088494Y-112158598D01*
X146921404Y-111991508D01*
X146921401Y-111991505D01*
X146727830Y-111855965D01*
X146513663Y-111756097D01*
X146452502Y-111739709D01*
X146285407Y-111694936D01*
X146050000Y-111674340D01*
X145814592Y-111694936D01*
X145586336Y-111756097D01*
X145372170Y-111855965D01*
X145178598Y-111991505D01*
X145011505Y-112158598D01*
X144881575Y-112344159D01*
X144826998Y-112387784D01*
X144757500Y-112394978D01*
X144695145Y-112363455D01*
X144678425Y-112344159D01*
X144548494Y-112158598D01*
X144381404Y-111991508D01*
X144381401Y-111991505D01*
X144187830Y-111855965D01*
X143973663Y-111756097D01*
X143912502Y-111739709D01*
X143745407Y-111694936D01*
X143510000Y-111674340D01*
X143274592Y-111694936D01*
X143046336Y-111756097D01*
X142832170Y-111855965D01*
X142638598Y-111991505D01*
X142471505Y-112158598D01*
X142341575Y-112344159D01*
X142286998Y-112387784D01*
X142217500Y-112394978D01*
X142155145Y-112363455D01*
X142138425Y-112344159D01*
X142008494Y-112158598D01*
X141841404Y-111991508D01*
X141841401Y-111991505D01*
X141647830Y-111855965D01*
X141433663Y-111756097D01*
X141372502Y-111739709D01*
X141205407Y-111694936D01*
X140969999Y-111674340D01*
X140734592Y-111694936D01*
X140506336Y-111756097D01*
X140292170Y-111855965D01*
X140098598Y-111991505D01*
X139931505Y-112158598D01*
X139801575Y-112344159D01*
X139746998Y-112387784D01*
X139677500Y-112394978D01*
X139615145Y-112363455D01*
X139598425Y-112344159D01*
X139468494Y-112158598D01*
X139301404Y-111991508D01*
X139301401Y-111991505D01*
X139107830Y-111855965D01*
X138893663Y-111756097D01*
X138832502Y-111739709D01*
X138665407Y-111694936D01*
X138430000Y-111674340D01*
X138194592Y-111694936D01*
X137966336Y-111756097D01*
X137752170Y-111855965D01*
X137558598Y-111991505D01*
X137391505Y-112158598D01*
X137261575Y-112344159D01*
X137206998Y-112387784D01*
X137137500Y-112394978D01*
X137075145Y-112363455D01*
X137058425Y-112344159D01*
X136928494Y-112158598D01*
X136761404Y-111991508D01*
X136761401Y-111991505D01*
X136567830Y-111855965D01*
X136353663Y-111756097D01*
X136292502Y-111739709D01*
X136125407Y-111694936D01*
X135889999Y-111674340D01*
X135654592Y-111694936D01*
X135426336Y-111756097D01*
X135212170Y-111855965D01*
X135018598Y-111991505D01*
X134851508Y-112158595D01*
X134721269Y-112344596D01*
X134666692Y-112388220D01*
X134597193Y-112395413D01*
X134534839Y-112363891D01*
X134518119Y-112344595D01*
X134388109Y-112158921D01*
X134221081Y-111991893D01*
X134027576Y-111856399D01*
X133813492Y-111756569D01*
X133600000Y-111699364D01*
X133600000Y-112594498D01*
X133492315Y-112545320D01*
X133385763Y-112530000D01*
X133314237Y-112530000D01*
X133207685Y-112545320D01*
X133099999Y-112594498D01*
X133099999Y-111699364D01*
X132886507Y-111756569D01*
X132672421Y-111856400D01*
X132478921Y-111991890D01*
X132311893Y-112158918D01*
X132181880Y-112344596D01*
X132127303Y-112388220D01*
X132057804Y-112395413D01*
X131995450Y-112363891D01*
X131978730Y-112344595D01*
X131848495Y-112158599D01*
X131681401Y-111991505D01*
X131487830Y-111855965D01*
X131273663Y-111756097D01*
X131212501Y-111739709D01*
X131045407Y-111694936D01*
X130810000Y-111674340D01*
X130574592Y-111694936D01*
X130346336Y-111756097D01*
X130132170Y-111855965D01*
X129938598Y-111991505D01*
X129771505Y-112158598D01*
X129641575Y-112344159D01*
X129586998Y-112387784D01*
X129517500Y-112394978D01*
X129455145Y-112363455D01*
X129438425Y-112344159D01*
X129308494Y-112158598D01*
X129141404Y-111991508D01*
X129141403Y-111991508D01*
X129141401Y-111991505D01*
X128947830Y-111855965D01*
X128733663Y-111756097D01*
X128672502Y-111739709D01*
X128505407Y-111694936D01*
X128269999Y-111674340D01*
X128034592Y-111694936D01*
X127806336Y-111756097D01*
X127592170Y-111855965D01*
X127398598Y-111991505D01*
X127231505Y-112158598D01*
X127101575Y-112344159D01*
X127046998Y-112387784D01*
X126977500Y-112394978D01*
X126915145Y-112363455D01*
X126898425Y-112344159D01*
X126768494Y-112158598D01*
X126601404Y-111991508D01*
X126601401Y-111991505D01*
X126407830Y-111855965D01*
X126193663Y-111756097D01*
X126132501Y-111739709D01*
X125965407Y-111694936D01*
X125730000Y-111674340D01*
X125494592Y-111694936D01*
X125266336Y-111756097D01*
X125052170Y-111855965D01*
X124858598Y-111991505D01*
X124691505Y-112158598D01*
X124555965Y-112352170D01*
X124456097Y-112566336D01*
X124394936Y-112794592D01*
X124374340Y-113029999D01*
X124394936Y-113265407D01*
X124420496Y-113360798D01*
X124456097Y-113493663D01*
X124555847Y-113707576D01*
X124555965Y-113707830D01*
X124623568Y-113804377D01*
X124645895Y-113870583D01*
X124628885Y-113938350D01*
X124577937Y-113986163D01*
X124521993Y-113999500D01*
X123306009Y-113999500D01*
X123238970Y-113979815D01*
X123193215Y-113927011D01*
X123183271Y-113857853D01*
X123212296Y-113794297D01*
X123237118Y-113772398D01*
X123383831Y-113674366D01*
X123390268Y-113669427D01*
X123435875Y-113629430D01*
X123435875Y-113629429D01*
X122624443Y-112817997D01*
X122758959Y-112720266D01*
X122916939Y-112555032D01*
X122977237Y-112463683D01*
X123789429Y-113275875D01*
X123789430Y-113275875D01*
X123829427Y-113230268D01*
X123834366Y-113223831D01*
X124005005Y-112968454D01*
X124009054Y-112961440D01*
X124144900Y-112685971D01*
X124148002Y-112678481D01*
X124246731Y-112387639D01*
X124248828Y-112379811D01*
X124308749Y-112078568D01*
X124309805Y-112070546D01*
X124329895Y-111764043D01*
X124329895Y-111755956D01*
X124309805Y-111449453D01*
X124308749Y-111441431D01*
X124248828Y-111140188D01*
X124246731Y-111132360D01*
X124148002Y-110841518D01*
X124144900Y-110834028D01*
X124009054Y-110558559D01*
X124005005Y-110551545D01*
X123834367Y-110296169D01*
X123829426Y-110289729D01*
X123789429Y-110244123D01*
X122980566Y-111052986D01*
X122841660Y-110878803D01*
X122669504Y-110728396D01*
X122624774Y-110701671D01*
X123435876Y-109890569D01*
X123435876Y-109890568D01*
X123390269Y-109850573D01*
X123383830Y-109845632D01*
X123128454Y-109674994D01*
X123121440Y-109670945D01*
X122845971Y-109535099D01*
X122838481Y-109531997D01*
X122547639Y-109433268D01*
X122539811Y-109431171D01*
X122238568Y-109371250D01*
X122230546Y-109370194D01*
X121924043Y-109350105D01*
X121915957Y-109350105D01*
X121609453Y-109370194D01*
X121601431Y-109371250D01*
X121300188Y-109431171D01*
X121292360Y-109433268D01*
X121001518Y-109531997D01*
X120994028Y-109535099D01*
X120718559Y-109670945D01*
X120711545Y-109674994D01*
X120456163Y-109845636D01*
X120449735Y-109850568D01*
X120404123Y-109890568D01*
X120404123Y-109890570D01*
X121215556Y-110702002D01*
X121081041Y-110799734D01*
X120923061Y-110964968D01*
X120862762Y-111056315D01*
X120050570Y-110244123D01*
X120050568Y-110244123D01*
X120010568Y-110289735D01*
X120005641Y-110296157D01*
X119907601Y-110442882D01*
X119853988Y-110487686D01*
X119784663Y-110496393D01*
X119721636Y-110466238D01*
X119684917Y-110406795D01*
X119680500Y-110373997D01*
X119680500Y-95366005D01*
X119700184Y-95298970D01*
X119752988Y-95253215D01*
X119822146Y-95243271D01*
X119885702Y-95272296D01*
X119907601Y-95297118D01*
X120005632Y-95443829D01*
X120010573Y-95450269D01*
X120050569Y-95495876D01*
X120859433Y-94687012D01*
X120998340Y-94861197D01*
X121170496Y-95011604D01*
X121215224Y-95038327D01*
X120404123Y-95849429D01*
X120404123Y-95849430D01*
X120449729Y-95889426D01*
X120456169Y-95894367D01*
X120711545Y-96065005D01*
X120718559Y-96069054D01*
X120994028Y-96204900D01*
X121001518Y-96208002D01*
X121292360Y-96306731D01*
X121300188Y-96308828D01*
X121601431Y-96368749D01*
X121609453Y-96369805D01*
X121915957Y-96389895D01*
X121924043Y-96389895D01*
X122230546Y-96369805D01*
X122238568Y-96368749D01*
X122539811Y-96308828D01*
X122547639Y-96306731D01*
X122838481Y-96208002D01*
X122845971Y-96204900D01*
X123121440Y-96069054D01*
X123128447Y-96065009D01*
X123131976Y-96062651D01*
X123198651Y-96041765D01*
X123266033Y-96060242D01*
X123312729Y-96112215D01*
X123323914Y-96181183D01*
X123317922Y-96206695D01*
X123313841Y-96218356D01*
X123302926Y-96315237D01*
X123275859Y-96379651D01*
X123267387Y-96389034D01*
X122439882Y-97216539D01*
X122427689Y-97227232D01*
X122403893Y-97245491D01*
X122311454Y-97365961D01*
X122253344Y-97506252D01*
X122238881Y-97616113D01*
X122233523Y-97656802D01*
X122237438Y-97686539D01*
X122238499Y-97702722D01*
X122238499Y-105333276D01*
X122237439Y-105349459D01*
X122233524Y-105379200D01*
X122236669Y-105403092D01*
X122238500Y-105416995D01*
X122238500Y-105416997D01*
X122253344Y-105529748D01*
X122311454Y-105670038D01*
X122403892Y-105790506D01*
X122427690Y-105808767D01*
X122439885Y-105819462D01*
X125183181Y-108562758D01*
X125216666Y-108624081D01*
X125219500Y-108650439D01*
X125219500Y-110828560D01*
X125219500Y-110828578D01*
X125219501Y-110831872D01*
X125219853Y-110835152D01*
X125219854Y-110835159D01*
X125225909Y-110891484D01*
X125237783Y-110923320D01*
X125276204Y-111026331D01*
X125362454Y-111141546D01*
X125477669Y-111227796D01*
X125612517Y-111278091D01*
X125672127Y-111284500D01*
X130867872Y-111284499D01*
X130927483Y-111278091D01*
X131062331Y-111227796D01*
X131177546Y-111141546D01*
X131263796Y-111026331D01*
X131314091Y-110891483D01*
X131320500Y-110831873D01*
X131320499Y-108236128D01*
X131314091Y-108176517D01*
X131263796Y-108041669D01*
X131177546Y-107926454D01*
X131062331Y-107840204D01*
X130927483Y-107789909D01*
X130867873Y-107783500D01*
X130864551Y-107783500D01*
X126086439Y-107783500D01*
X126019400Y-107763815D01*
X125998758Y-107747181D01*
X125880155Y-107628578D01*
X142662500Y-107628578D01*
X142662501Y-107631872D01*
X142668909Y-107691483D01*
X142719204Y-107826331D01*
X142805454Y-107941546D01*
X142920669Y-108027796D01*
X143055517Y-108078091D01*
X143115127Y-108084500D01*
X144910872Y-108084499D01*
X144970483Y-108078091D01*
X145105331Y-108027796D01*
X145220546Y-107941546D01*
X145306796Y-107826331D01*
X145356003Y-107694399D01*
X145397873Y-107638467D01*
X145463337Y-107614050D01*
X145531610Y-107628901D01*
X145559865Y-107650053D01*
X145681918Y-107772106D01*
X145875423Y-107907600D01*
X146089509Y-108007430D01*
X146303000Y-108064634D01*
X146303000Y-107169501D01*
X146410685Y-107218680D01*
X146517237Y-107234000D01*
X146588763Y-107234000D01*
X146695315Y-107218680D01*
X146803000Y-107169501D01*
X146803000Y-108064633D01*
X147016490Y-108007430D01*
X147230576Y-107907600D01*
X147424081Y-107772106D01*
X147567609Y-107628578D01*
X149012500Y-107628578D01*
X149012501Y-107631872D01*
X149018909Y-107691483D01*
X149069204Y-107826331D01*
X149155454Y-107941546D01*
X149270669Y-108027796D01*
X149405517Y-108078091D01*
X149465127Y-108084500D01*
X151260872Y-108084499D01*
X151320483Y-108078091D01*
X151455331Y-108027796D01*
X151570546Y-107941546D01*
X151656796Y-107826331D01*
X151706003Y-107694399D01*
X151747873Y-107638467D01*
X151813337Y-107614050D01*
X151881610Y-107628901D01*
X151909865Y-107650053D01*
X152031918Y-107772106D01*
X152225423Y-107907600D01*
X152439509Y-108007430D01*
X152653000Y-108064634D01*
X152653000Y-107169501D01*
X152760685Y-107218680D01*
X152867237Y-107234000D01*
X152938763Y-107234000D01*
X153045315Y-107218680D01*
X153153000Y-107169501D01*
X153153000Y-108064633D01*
X153366490Y-108007430D01*
X153580576Y-107907600D01*
X153774081Y-107772106D01*
X153917609Y-107628578D01*
X155367500Y-107628578D01*
X155367501Y-107631872D01*
X155373909Y-107691483D01*
X155424204Y-107826331D01*
X155510454Y-107941546D01*
X155625669Y-108027796D01*
X155760517Y-108078091D01*
X155820127Y-108084500D01*
X157615872Y-108084499D01*
X157675483Y-108078091D01*
X157810331Y-108027796D01*
X157925546Y-107941546D01*
X158011796Y-107826331D01*
X158061003Y-107694399D01*
X158102873Y-107638467D01*
X158168337Y-107614050D01*
X158236610Y-107628901D01*
X158264865Y-107650053D01*
X158386918Y-107772106D01*
X158580423Y-107907600D01*
X158794509Y-108007430D01*
X159008000Y-108064634D01*
X159008000Y-107169501D01*
X159115685Y-107218680D01*
X159222237Y-107234000D01*
X159293763Y-107234000D01*
X159400315Y-107218680D01*
X159508000Y-107169501D01*
X159508000Y-108064633D01*
X159721490Y-108007430D01*
X159935576Y-107907600D01*
X160129081Y-107772106D01*
X160272609Y-107628578D01*
X161717500Y-107628578D01*
X161717501Y-107631872D01*
X161723909Y-107691483D01*
X161774204Y-107826331D01*
X161860454Y-107941546D01*
X161975669Y-108027796D01*
X162110517Y-108078091D01*
X162170127Y-108084500D01*
X163965872Y-108084499D01*
X164025483Y-108078091D01*
X164160331Y-108027796D01*
X164275546Y-107941546D01*
X164361796Y-107826331D01*
X164411003Y-107694399D01*
X164452873Y-107638467D01*
X164518337Y-107614050D01*
X164586610Y-107628901D01*
X164614865Y-107650053D01*
X164736918Y-107772106D01*
X164930423Y-107907600D01*
X165144509Y-108007430D01*
X165358000Y-108064634D01*
X165358000Y-107169501D01*
X165465685Y-107218680D01*
X165572237Y-107234000D01*
X165643763Y-107234000D01*
X165750315Y-107218680D01*
X165858000Y-107169501D01*
X165858000Y-108064633D01*
X166071490Y-108007430D01*
X166285576Y-107907600D01*
X166479081Y-107772106D01*
X166646106Y-107605081D01*
X166781600Y-107411576D01*
X166881430Y-107197492D01*
X166938636Y-106984000D01*
X166041686Y-106984000D01*
X166067493Y-106943844D01*
X166108000Y-106805889D01*
X166108000Y-106662111D01*
X166067493Y-106524156D01*
X166041686Y-106484000D01*
X166938636Y-106484000D01*
X166938635Y-106483999D01*
X166881430Y-106270507D01*
X166781599Y-106056421D01*
X166646109Y-105862921D01*
X166479081Y-105695893D01*
X166285576Y-105560399D01*
X166071492Y-105460569D01*
X165858000Y-105403364D01*
X165858000Y-106298498D01*
X165750315Y-106249320D01*
X165643763Y-106234000D01*
X165572237Y-106234000D01*
X165465685Y-106249320D01*
X165358000Y-106298498D01*
X165358000Y-105403364D01*
X165357999Y-105403364D01*
X165144507Y-105460569D01*
X164930421Y-105560400D01*
X164736924Y-105695888D01*
X164614865Y-105817947D01*
X164553542Y-105851431D01*
X164483850Y-105846447D01*
X164427917Y-105804575D01*
X164411002Y-105773598D01*
X164382018Y-105695888D01*
X164361796Y-105641669D01*
X164275546Y-105526454D01*
X164160331Y-105440204D01*
X164025483Y-105389909D01*
X163965873Y-105383500D01*
X163962550Y-105383500D01*
X162173439Y-105383500D01*
X162173420Y-105383500D01*
X162170128Y-105383501D01*
X162166848Y-105383853D01*
X162166840Y-105383854D01*
X162110515Y-105389909D01*
X161975669Y-105440204D01*
X161860454Y-105526454D01*
X161774204Y-105641668D01*
X161723909Y-105776516D01*
X161719455Y-105817947D01*
X161717500Y-105836127D01*
X161717500Y-105839448D01*
X161717500Y-105839449D01*
X161717500Y-107628560D01*
X161717500Y-107628578D01*
X160272609Y-107628578D01*
X160296106Y-107605081D01*
X160431600Y-107411576D01*
X160531430Y-107197492D01*
X160588636Y-106984000D01*
X159691686Y-106984000D01*
X159717493Y-106943844D01*
X159758000Y-106805889D01*
X159758000Y-106662111D01*
X159717493Y-106524156D01*
X159691686Y-106484000D01*
X160588636Y-106484000D01*
X160588635Y-106483999D01*
X160531430Y-106270507D01*
X160431599Y-106056421D01*
X160296109Y-105862921D01*
X160129081Y-105695893D01*
X159935576Y-105560399D01*
X159721492Y-105460569D01*
X159508000Y-105403364D01*
X159508000Y-106298498D01*
X159400315Y-106249320D01*
X159293763Y-106234000D01*
X159222237Y-106234000D01*
X159115685Y-106249320D01*
X159008000Y-106298498D01*
X159008000Y-105403364D01*
X159007999Y-105403364D01*
X158794507Y-105460569D01*
X158580421Y-105560400D01*
X158386924Y-105695888D01*
X158264865Y-105817947D01*
X158203542Y-105851431D01*
X158133850Y-105846447D01*
X158077917Y-105804575D01*
X158061002Y-105773598D01*
X158032018Y-105695888D01*
X158011796Y-105641669D01*
X157925546Y-105526454D01*
X157810331Y-105440204D01*
X157675483Y-105389909D01*
X157615873Y-105383500D01*
X157612550Y-105383500D01*
X155823439Y-105383500D01*
X155823420Y-105383500D01*
X155820128Y-105383501D01*
X155816848Y-105383853D01*
X155816840Y-105383854D01*
X155760515Y-105389909D01*
X155625669Y-105440204D01*
X155510454Y-105526454D01*
X155424204Y-105641668D01*
X155373909Y-105776516D01*
X155369455Y-105817947D01*
X155367500Y-105836127D01*
X155367500Y-105839448D01*
X155367500Y-105839449D01*
X155367500Y-107628560D01*
X155367500Y-107628578D01*
X153917609Y-107628578D01*
X153941106Y-107605081D01*
X154076600Y-107411576D01*
X154176430Y-107197492D01*
X154233636Y-106984000D01*
X153336686Y-106984000D01*
X153362493Y-106943844D01*
X153403000Y-106805889D01*
X153403000Y-106662111D01*
X153362493Y-106524156D01*
X153336686Y-106484000D01*
X154233636Y-106484000D01*
X154233635Y-106483999D01*
X154176430Y-106270507D01*
X154076599Y-106056421D01*
X153941109Y-105862921D01*
X153774081Y-105695893D01*
X153580576Y-105560399D01*
X153366492Y-105460569D01*
X153153000Y-105403364D01*
X153153000Y-106298498D01*
X153045315Y-106249320D01*
X152938763Y-106234000D01*
X152867237Y-106234000D01*
X152760685Y-106249320D01*
X152653000Y-106298498D01*
X152653000Y-105403364D01*
X152652999Y-105403364D01*
X152439507Y-105460569D01*
X152225421Y-105560400D01*
X152031924Y-105695888D01*
X151909865Y-105817947D01*
X151848542Y-105851431D01*
X151778850Y-105846447D01*
X151722917Y-105804575D01*
X151706002Y-105773598D01*
X151677018Y-105695888D01*
X151656796Y-105641669D01*
X151570546Y-105526454D01*
X151455331Y-105440204D01*
X151320483Y-105389909D01*
X151260873Y-105383500D01*
X151257550Y-105383500D01*
X149468439Y-105383500D01*
X149468420Y-105383500D01*
X149465128Y-105383501D01*
X149461848Y-105383853D01*
X149461840Y-105383854D01*
X149405515Y-105389909D01*
X149270669Y-105440204D01*
X149155454Y-105526454D01*
X149069204Y-105641668D01*
X149018909Y-105776516D01*
X149014455Y-105817947D01*
X149012500Y-105836127D01*
X149012500Y-105839448D01*
X149012500Y-105839449D01*
X149012500Y-107628560D01*
X149012500Y-107628578D01*
X147567609Y-107628578D01*
X147591106Y-107605081D01*
X147726600Y-107411576D01*
X147826430Y-107197492D01*
X147883636Y-106984000D01*
X146986686Y-106984000D01*
X147012493Y-106943844D01*
X147053000Y-106805889D01*
X147053000Y-106662111D01*
X147012493Y-106524156D01*
X146986686Y-106484000D01*
X147883636Y-106484000D01*
X147883635Y-106483999D01*
X147826430Y-106270507D01*
X147726599Y-106056421D01*
X147591109Y-105862921D01*
X147424081Y-105695893D01*
X147230576Y-105560399D01*
X147016492Y-105460569D01*
X146803000Y-105403364D01*
X146803000Y-106298498D01*
X146695315Y-106249320D01*
X146588763Y-106234000D01*
X146517237Y-106234000D01*
X146410685Y-106249320D01*
X146303000Y-106298498D01*
X146303000Y-105403364D01*
X146302999Y-105403364D01*
X146089507Y-105460569D01*
X145875421Y-105560400D01*
X145681924Y-105695888D01*
X145559865Y-105817947D01*
X145498542Y-105851431D01*
X145428850Y-105846447D01*
X145372917Y-105804575D01*
X145356002Y-105773598D01*
X145327018Y-105695888D01*
X145306796Y-105641669D01*
X145220546Y-105526454D01*
X145105331Y-105440204D01*
X144970483Y-105389909D01*
X144910873Y-105383500D01*
X144907550Y-105383500D01*
X143118439Y-105383500D01*
X143118420Y-105383500D01*
X143115128Y-105383501D01*
X143111848Y-105383853D01*
X143111840Y-105383854D01*
X143055515Y-105389909D01*
X142920669Y-105440204D01*
X142805454Y-105526454D01*
X142719204Y-105641668D01*
X142668909Y-105776516D01*
X142664455Y-105817947D01*
X142662500Y-105836127D01*
X142662500Y-105839448D01*
X142662500Y-105839449D01*
X142662500Y-107628560D01*
X142662500Y-107628578D01*
X125880155Y-107628578D01*
X125046187Y-106794610D01*
X125012702Y-106733287D01*
X125017686Y-106663595D01*
X125059558Y-106607662D01*
X125125022Y-106583245D01*
X125193295Y-106598097D01*
X125203305Y-106604194D01*
X125279056Y-106655393D01*
X125283520Y-106658141D01*
X125694278Y-106887605D01*
X125698997Y-106889984D01*
X126127721Y-107083779D01*
X126132601Y-107085740D01*
X126576233Y-107242485D01*
X126581260Y-107244025D01*
X127036582Y-107362582D01*
X127041733Y-107363692D01*
X127505468Y-107443207D01*
X127510676Y-107443874D01*
X127979489Y-107483776D01*
X127984746Y-107484000D01*
X128455254Y-107484000D01*
X128460510Y-107483776D01*
X128929323Y-107443874D01*
X128934531Y-107443207D01*
X129398266Y-107363692D01*
X129403417Y-107362582D01*
X129858739Y-107244025D01*
X129863766Y-107242485D01*
X130307398Y-107085740D01*
X130312278Y-107083779D01*
X130741002Y-106889984D01*
X130745721Y-106887605D01*
X131156479Y-106658141D01*
X131160943Y-106655393D01*
X131550753Y-106391927D01*
X131555014Y-106388776D01*
X131921066Y-106093210D01*
X131925011Y-106089738D01*
X132000159Y-106017712D01*
X128220000Y-102237553D01*
X127866447Y-101884000D01*
X128573553Y-101884000D01*
X132353343Y-105663790D01*
X132579188Y-105407181D01*
X132582490Y-105403092D01*
X132862281Y-105024792D01*
X132865212Y-105020454D01*
X133111910Y-104619792D01*
X133114472Y-104615205D01*
X133326295Y-104195077D01*
X133328464Y-104190280D01*
X133503895Y-103753701D01*
X133505641Y-103748760D01*
X133643419Y-103298872D01*
X133644748Y-103293768D01*
X133743872Y-102833826D01*
X133744759Y-102828653D01*
X133804523Y-102361950D01*
X133804969Y-102356705D01*
X133824938Y-101886636D01*
X133824938Y-101881363D01*
X133804969Y-101411294D01*
X133804523Y-101406049D01*
X133744759Y-100939346D01*
X133743872Y-100934173D01*
X133668405Y-100583999D01*
X142657340Y-100583999D01*
X142677936Y-100819407D01*
X142681956Y-100834408D01*
X142739097Y-101047663D01*
X142838965Y-101261830D01*
X142974505Y-101455401D01*
X143141599Y-101622495D01*
X143327596Y-101752732D01*
X143371219Y-101807307D01*
X143378412Y-101876806D01*
X143346890Y-101939160D01*
X143327595Y-101955880D01*
X143141919Y-102085892D01*
X142974890Y-102252921D01*
X142839400Y-102446421D01*
X142739569Y-102660507D01*
X142682364Y-102873999D01*
X142682364Y-102874000D01*
X143579314Y-102874000D01*
X143553507Y-102914156D01*
X143513000Y-103052111D01*
X143513000Y-103195889D01*
X143553507Y-103333844D01*
X143579314Y-103374000D01*
X142682364Y-103374000D01*
X142739569Y-103587492D01*
X142839399Y-103801576D01*
X142974893Y-103995081D01*
X143141918Y-104162106D01*
X143335423Y-104297600D01*
X143549509Y-104397430D01*
X143763000Y-104454634D01*
X143763000Y-103559501D01*
X143870685Y-103608680D01*
X143977237Y-103624000D01*
X144048763Y-103624000D01*
X144155315Y-103608680D01*
X144263000Y-103559501D01*
X144263000Y-104454633D01*
X144476490Y-104397430D01*
X144690576Y-104297600D01*
X144884081Y-104162106D01*
X145051106Y-103995081D01*
X145181425Y-103808968D01*
X145236002Y-103765344D01*
X145305501Y-103758151D01*
X145367855Y-103789673D01*
X145384575Y-103808968D01*
X145514893Y-103995081D01*
X145681918Y-104162106D01*
X145875423Y-104297600D01*
X146089509Y-104397430D01*
X146303000Y-104454634D01*
X146303000Y-103559501D01*
X146410685Y-103608680D01*
X146517237Y-103624000D01*
X146588763Y-103624000D01*
X146695315Y-103608680D01*
X146803000Y-103559501D01*
X146803000Y-104454633D01*
X147016490Y-104397430D01*
X147230576Y-104297600D01*
X147424081Y-104162106D01*
X147591106Y-103995081D01*
X147726600Y-103801576D01*
X147826430Y-103587492D01*
X147883636Y-103374000D01*
X146986686Y-103374000D01*
X147012493Y-103333844D01*
X147053000Y-103195889D01*
X147053000Y-103052111D01*
X147012493Y-102914156D01*
X146986686Y-102874000D01*
X147883636Y-102874000D01*
X147883635Y-102873999D01*
X147826430Y-102660507D01*
X147726599Y-102446421D01*
X147591109Y-102252921D01*
X147424081Y-102085893D01*
X147238404Y-101955880D01*
X147194780Y-101901303D01*
X147187587Y-101831804D01*
X147219109Y-101769450D01*
X147238399Y-101752734D01*
X147424401Y-101622495D01*
X147591495Y-101455401D01*
X147727035Y-101261830D01*
X147826903Y-101047663D01*
X147888063Y-100819408D01*
X147908659Y-100584000D01*
X147908659Y-100583999D01*
X149012340Y-100583999D01*
X149032936Y-100819407D01*
X149036956Y-100834408D01*
X149094097Y-101047663D01*
X149193965Y-101261830D01*
X149329505Y-101455401D01*
X149496599Y-101622495D01*
X149682596Y-101752732D01*
X149726219Y-101807307D01*
X149733412Y-101876806D01*
X149701890Y-101939160D01*
X149682595Y-101955880D01*
X149496919Y-102085892D01*
X149329890Y-102252921D01*
X149194400Y-102446421D01*
X149094569Y-102660507D01*
X149037364Y-102873999D01*
X149037364Y-102874000D01*
X149934314Y-102874000D01*
X149908507Y-102914156D01*
X149868000Y-103052111D01*
X149868000Y-103195889D01*
X149908507Y-103333844D01*
X149934314Y-103374000D01*
X149037364Y-103374000D01*
X149094569Y-103587492D01*
X149194399Y-103801576D01*
X149329893Y-103995081D01*
X149496918Y-104162106D01*
X149690423Y-104297600D01*
X149904509Y-104397430D01*
X150118000Y-104454634D01*
X150118000Y-103559501D01*
X150225685Y-103608680D01*
X150332237Y-103624000D01*
X150403763Y-103624000D01*
X150510315Y-103608680D01*
X150618000Y-103559501D01*
X150618000Y-104454634D01*
X150831490Y-104397430D01*
X151045576Y-104297600D01*
X151239081Y-104162106D01*
X151406106Y-103995081D01*
X151536425Y-103808968D01*
X151591002Y-103765344D01*
X151660501Y-103758151D01*
X151722855Y-103789673D01*
X151739575Y-103808968D01*
X151869893Y-103995081D01*
X152036918Y-104162106D01*
X152230423Y-104297600D01*
X152444509Y-104397430D01*
X152658000Y-104454634D01*
X152658000Y-103559501D01*
X152765685Y-103608680D01*
X152872237Y-103624000D01*
X152943763Y-103624000D01*
X153050315Y-103608680D01*
X153158000Y-103559501D01*
X153158000Y-104454633D01*
X153371490Y-104397430D01*
X153585576Y-104297600D01*
X153779081Y-104162106D01*
X153946106Y-103995081D01*
X154081600Y-103801576D01*
X154181430Y-103587492D01*
X154238636Y-103374000D01*
X153341686Y-103374000D01*
X153367493Y-103333844D01*
X153408000Y-103195889D01*
X153408000Y-103052111D01*
X153367493Y-102914156D01*
X153341686Y-102874000D01*
X154238636Y-102874000D01*
X154238635Y-102873999D01*
X154181430Y-102660507D01*
X154081599Y-102446421D01*
X153946109Y-102252921D01*
X153779081Y-102085893D01*
X153593404Y-101955880D01*
X153549780Y-101901303D01*
X153542587Y-101831804D01*
X153574109Y-101769450D01*
X153593399Y-101752734D01*
X153779401Y-101622495D01*
X153946495Y-101455401D01*
X154082035Y-101261830D01*
X154181903Y-101047663D01*
X154243063Y-100819408D01*
X154262347Y-100599000D01*
X155357340Y-100599000D01*
X155377936Y-100834407D01*
X155422709Y-101001502D01*
X155439097Y-101062663D01*
X155538965Y-101276830D01*
X155674505Y-101470401D01*
X155841599Y-101637495D01*
X156027596Y-101767732D01*
X156071219Y-101822307D01*
X156078412Y-101891806D01*
X156046890Y-101954160D01*
X156027595Y-101970880D01*
X155841919Y-102100892D01*
X155674890Y-102267921D01*
X155539400Y-102461421D01*
X155439569Y-102675507D01*
X155382364Y-102888999D01*
X155382364Y-102889000D01*
X156279314Y-102889000D01*
X156253507Y-102929156D01*
X156213000Y-103067111D01*
X156213000Y-103210889D01*
X156253507Y-103348844D01*
X156279314Y-103389000D01*
X155382364Y-103389000D01*
X155439569Y-103602492D01*
X155539399Y-103816576D01*
X155674893Y-104010081D01*
X155841918Y-104177106D01*
X156035423Y-104312600D01*
X156249509Y-104412430D01*
X156463000Y-104469634D01*
X156463000Y-103574501D01*
X156570685Y-103623680D01*
X156677237Y-103639000D01*
X156748763Y-103639000D01*
X156855315Y-103623680D01*
X156963000Y-103574501D01*
X156963000Y-104469634D01*
X157176490Y-104412430D01*
X157390576Y-104312600D01*
X157584081Y-104177106D01*
X157751106Y-104010081D01*
X157881425Y-103823968D01*
X157936002Y-103780344D01*
X158005501Y-103773151D01*
X158067855Y-103804673D01*
X158084575Y-103823968D01*
X158214893Y-104010081D01*
X158381918Y-104177106D01*
X158575423Y-104312600D01*
X158789509Y-104412430D01*
X159003000Y-104469634D01*
X159003000Y-103574501D01*
X159110685Y-103623680D01*
X159217237Y-103639000D01*
X159288763Y-103639000D01*
X159395315Y-103623680D01*
X159503000Y-103574501D01*
X159503000Y-104469634D01*
X159716490Y-104412430D01*
X159930576Y-104312600D01*
X160124081Y-104177106D01*
X160291106Y-104010081D01*
X160426600Y-103816576D01*
X160526430Y-103602492D01*
X160583636Y-103389000D01*
X159686686Y-103389000D01*
X159712493Y-103348844D01*
X159753000Y-103210889D01*
X159753000Y-103067111D01*
X159712493Y-102929156D01*
X159686686Y-102889000D01*
X160583636Y-102889000D01*
X160583635Y-102888999D01*
X160526430Y-102675507D01*
X160426599Y-102461421D01*
X160291109Y-102267921D01*
X160124081Y-102100893D01*
X159938404Y-101970880D01*
X159894780Y-101916303D01*
X159887587Y-101846804D01*
X159919109Y-101784450D01*
X159938399Y-101767734D01*
X160124401Y-101637495D01*
X160291495Y-101470401D01*
X160427035Y-101276830D01*
X160526903Y-101062663D01*
X160588063Y-100834408D01*
X160608659Y-100599000D01*
X160607347Y-100584000D01*
X161712340Y-100584000D01*
X161732936Y-100819407D01*
X161736956Y-100834408D01*
X161794097Y-101047663D01*
X161893965Y-101261830D01*
X162029505Y-101455401D01*
X162196599Y-101622495D01*
X162382596Y-101752732D01*
X162426219Y-101807307D01*
X162433412Y-101876806D01*
X162401890Y-101939160D01*
X162382595Y-101955880D01*
X162196919Y-102085892D01*
X162029890Y-102252921D01*
X161894400Y-102446421D01*
X161794569Y-102660507D01*
X161737364Y-102873999D01*
X161737364Y-102874000D01*
X162634314Y-102874000D01*
X162608507Y-102914156D01*
X162568000Y-103052111D01*
X162568000Y-103195889D01*
X162608507Y-103333844D01*
X162634314Y-103374000D01*
X161737364Y-103374000D01*
X161794569Y-103587492D01*
X161894399Y-103801576D01*
X162029893Y-103995081D01*
X162196918Y-104162106D01*
X162390423Y-104297600D01*
X162604509Y-104397430D01*
X162818000Y-104454634D01*
X162818000Y-103559501D01*
X162925685Y-103608680D01*
X163032237Y-103624000D01*
X163103763Y-103624000D01*
X163210315Y-103608680D01*
X163318000Y-103559501D01*
X163318000Y-104454634D01*
X163531490Y-104397430D01*
X163745576Y-104297600D01*
X163939081Y-104162106D01*
X164106106Y-103995081D01*
X164236425Y-103808968D01*
X164291002Y-103765344D01*
X164360501Y-103758151D01*
X164422855Y-103789673D01*
X164439575Y-103808968D01*
X164569893Y-103995081D01*
X164736918Y-104162106D01*
X164930423Y-104297600D01*
X165144509Y-104397430D01*
X165358000Y-104454634D01*
X165358000Y-103559501D01*
X165465685Y-103608680D01*
X165572237Y-103624000D01*
X165643763Y-103624000D01*
X165750315Y-103608680D01*
X165858000Y-103559501D01*
X165858000Y-104454634D01*
X166071490Y-104397430D01*
X166285576Y-104297600D01*
X166479081Y-104162106D01*
X166646106Y-103995081D01*
X166781600Y-103801576D01*
X166881430Y-103587492D01*
X166938636Y-103374000D01*
X166041686Y-103374000D01*
X166067493Y-103333844D01*
X166108000Y-103195889D01*
X166108000Y-103052111D01*
X166067493Y-102914156D01*
X166041686Y-102874000D01*
X166938636Y-102874000D01*
X166938635Y-102873999D01*
X166881430Y-102660507D01*
X166781599Y-102446421D01*
X166646109Y-102252921D01*
X166479081Y-102085893D01*
X166293404Y-101955880D01*
X166249780Y-101901303D01*
X166242587Y-101831804D01*
X166274109Y-101769450D01*
X166293399Y-101752734D01*
X166479401Y-101622495D01*
X166646495Y-101455401D01*
X166782035Y-101261830D01*
X166881903Y-101047663D01*
X166943063Y-100819408D01*
X166963659Y-100584000D01*
X166943063Y-100348592D01*
X166881903Y-100120337D01*
X166782035Y-99906171D01*
X166646495Y-99712599D01*
X166479401Y-99545505D01*
X166293839Y-99415573D01*
X166250215Y-99360997D01*
X166243023Y-99291498D01*
X166274545Y-99229144D01*
X166293831Y-99212432D01*
X166479401Y-99082495D01*
X166646495Y-98915401D01*
X166782035Y-98721830D01*
X166881903Y-98507663D01*
X166943063Y-98279408D01*
X166963659Y-98044000D01*
X166943063Y-97808592D01*
X166881903Y-97580337D01*
X166782035Y-97366171D01*
X166646495Y-97172599D01*
X166479401Y-97005505D01*
X166285830Y-96869965D01*
X166071663Y-96770097D01*
X166010501Y-96753709D01*
X165843407Y-96708936D01*
X165608000Y-96688340D01*
X165372592Y-96708936D01*
X165144336Y-96770097D01*
X164930170Y-96869965D01*
X164736598Y-97005505D01*
X164569505Y-97172598D01*
X164439575Y-97358159D01*
X164384998Y-97401784D01*
X164315500Y-97408978D01*
X164253145Y-97377455D01*
X164236425Y-97358159D01*
X164137262Y-97216539D01*
X164106495Y-97172599D01*
X163939401Y-97005505D01*
X163745830Y-96869965D01*
X163531663Y-96770097D01*
X163470502Y-96753709D01*
X163303407Y-96708936D01*
X163068000Y-96688340D01*
X162832592Y-96708936D01*
X162604336Y-96770097D01*
X162390170Y-96869965D01*
X162196598Y-97005505D01*
X162029505Y-97172598D01*
X161893965Y-97366170D01*
X161794097Y-97580336D01*
X161732936Y-97808592D01*
X161712340Y-98044000D01*
X161732936Y-98279407D01*
X161777709Y-98446501D01*
X161794097Y-98507663D01*
X161893965Y-98721830D01*
X162029505Y-98915401D01*
X162196599Y-99082495D01*
X162382160Y-99212426D01*
X162425783Y-99267002D01*
X162432976Y-99336501D01*
X162401454Y-99398855D01*
X162382159Y-99415575D01*
X162196595Y-99545508D01*
X162029505Y-99712598D01*
X161893965Y-99906170D01*
X161794097Y-100120336D01*
X161732936Y-100348592D01*
X161712340Y-100584000D01*
X160607347Y-100584000D01*
X160588063Y-100363592D01*
X160526903Y-100135337D01*
X160427035Y-99921171D01*
X160291495Y-99727599D01*
X160124401Y-99560505D01*
X159938839Y-99430573D01*
X159895217Y-99375998D01*
X159888024Y-99306499D01*
X159919546Y-99244145D01*
X159938837Y-99227428D01*
X160124401Y-99097495D01*
X160291495Y-98930401D01*
X160427035Y-98736830D01*
X160526903Y-98522663D01*
X160588063Y-98294408D01*
X160608659Y-98059000D01*
X160588063Y-97823592D01*
X160526903Y-97595337D01*
X160427035Y-97381171D01*
X160291495Y-97187599D01*
X160124401Y-97020505D01*
X159930830Y-96884965D01*
X159716663Y-96785097D01*
X159655501Y-96768709D01*
X159488407Y-96723936D01*
X159252999Y-96703340D01*
X159017592Y-96723936D01*
X158789336Y-96785097D01*
X158575170Y-96884965D01*
X158381598Y-97020505D01*
X158214505Y-97187598D01*
X158084575Y-97373159D01*
X158029998Y-97416784D01*
X157960500Y-97423978D01*
X157898145Y-97392455D01*
X157881425Y-97373159D01*
X157866449Y-97351771D01*
X157751495Y-97187599D01*
X157584401Y-97020505D01*
X157390830Y-96884965D01*
X157176663Y-96785097D01*
X157115501Y-96768709D01*
X156948407Y-96723936D01*
X156712999Y-96703340D01*
X156477592Y-96723936D01*
X156249336Y-96785097D01*
X156035170Y-96884965D01*
X155841598Y-97020505D01*
X155674505Y-97187598D01*
X155538965Y-97381170D01*
X155439097Y-97595336D01*
X155377936Y-97823592D01*
X155357340Y-98058999D01*
X155377936Y-98294407D01*
X155396827Y-98364909D01*
X155439097Y-98522663D01*
X155538965Y-98736830D01*
X155674505Y-98930401D01*
X155841599Y-99097495D01*
X156027160Y-99227426D01*
X156070783Y-99282002D01*
X156077976Y-99351501D01*
X156046454Y-99413855D01*
X156027158Y-99430575D01*
X155863022Y-99545505D01*
X155841595Y-99560508D01*
X155674505Y-99727598D01*
X155538965Y-99921170D01*
X155439097Y-100135336D01*
X155377936Y-100363592D01*
X155357340Y-100599000D01*
X154262347Y-100599000D01*
X154263659Y-100584000D01*
X154243063Y-100348592D01*
X154181903Y-100120337D01*
X154082035Y-99906171D01*
X153946495Y-99712599D01*
X153779401Y-99545505D01*
X153593839Y-99415573D01*
X153550216Y-99360998D01*
X153543022Y-99291500D01*
X153574545Y-99229145D01*
X153593837Y-99212428D01*
X153779401Y-99082495D01*
X153946495Y-98915401D01*
X154082035Y-98721830D01*
X154181903Y-98507663D01*
X154243063Y-98279408D01*
X154263659Y-98044000D01*
X154243063Y-97808592D01*
X154181903Y-97580337D01*
X154082035Y-97366171D01*
X153946495Y-97172599D01*
X153779401Y-97005505D01*
X153585830Y-96869965D01*
X153371663Y-96770097D01*
X153310502Y-96753709D01*
X153143407Y-96708936D01*
X152908000Y-96688340D01*
X152672592Y-96708936D01*
X152444336Y-96770097D01*
X152230170Y-96869965D01*
X152036598Y-97005505D01*
X151869505Y-97172598D01*
X151739575Y-97358159D01*
X151684998Y-97401784D01*
X151615500Y-97408978D01*
X151553145Y-97377455D01*
X151536425Y-97358159D01*
X151437262Y-97216539D01*
X151406495Y-97172599D01*
X151239401Y-97005505D01*
X151045830Y-96869965D01*
X150831663Y-96770097D01*
X150770501Y-96753709D01*
X150603407Y-96708936D01*
X150368000Y-96688340D01*
X150132592Y-96708936D01*
X149904336Y-96770097D01*
X149690170Y-96869965D01*
X149496598Y-97005505D01*
X149329505Y-97172598D01*
X149193965Y-97366170D01*
X149094097Y-97580336D01*
X149032936Y-97808592D01*
X149012340Y-98044000D01*
X149032936Y-98279407D01*
X149077709Y-98446501D01*
X149094097Y-98507663D01*
X149193965Y-98721830D01*
X149329505Y-98915401D01*
X149496599Y-99082495D01*
X149682160Y-99212426D01*
X149725783Y-99267002D01*
X149732976Y-99336501D01*
X149701454Y-99398855D01*
X149682159Y-99415575D01*
X149496595Y-99545508D01*
X149329505Y-99712598D01*
X149193965Y-99906170D01*
X149094097Y-100120336D01*
X149032936Y-100348592D01*
X149012340Y-100583999D01*
X147908659Y-100583999D01*
X147888063Y-100348592D01*
X147826903Y-100120337D01*
X147727035Y-99906171D01*
X147591495Y-99712599D01*
X147424401Y-99545505D01*
X147238839Y-99415573D01*
X147195215Y-99360997D01*
X147188023Y-99291498D01*
X147219545Y-99229144D01*
X147238831Y-99212432D01*
X147424401Y-99082495D01*
X147591495Y-98915401D01*
X147727035Y-98721830D01*
X147826903Y-98507663D01*
X147888063Y-98279408D01*
X147908659Y-98044000D01*
X147888063Y-97808592D01*
X147826903Y-97580337D01*
X147727035Y-97366171D01*
X147591495Y-97172599D01*
X147424401Y-97005505D01*
X147230830Y-96869965D01*
X147016663Y-96770097D01*
X146955502Y-96753709D01*
X146788407Y-96708936D01*
X146553000Y-96688340D01*
X146317592Y-96708936D01*
X146089336Y-96770097D01*
X145875170Y-96869965D01*
X145681598Y-97005505D01*
X145514505Y-97172598D01*
X145384575Y-97358159D01*
X145329998Y-97401784D01*
X145260500Y-97408978D01*
X145198145Y-97377455D01*
X145181425Y-97358159D01*
X145082262Y-97216539D01*
X145051495Y-97172599D01*
X144884401Y-97005505D01*
X144690830Y-96869965D01*
X144476663Y-96770097D01*
X144415502Y-96753709D01*
X144248407Y-96708936D01*
X144013000Y-96688340D01*
X143777592Y-96708936D01*
X143549336Y-96770097D01*
X143335170Y-96869965D01*
X143141598Y-97005505D01*
X142974505Y-97172598D01*
X142838965Y-97366170D01*
X142739097Y-97580336D01*
X142677936Y-97808592D01*
X142657340Y-98044000D01*
X142677936Y-98279407D01*
X142722709Y-98446501D01*
X142739097Y-98507663D01*
X142838965Y-98721830D01*
X142974505Y-98915401D01*
X143141599Y-99082495D01*
X143327160Y-99212426D01*
X143370783Y-99267002D01*
X143377976Y-99336501D01*
X143346454Y-99398855D01*
X143327159Y-99415575D01*
X143141595Y-99545508D01*
X142974505Y-99712598D01*
X142838965Y-99906170D01*
X142739097Y-100120336D01*
X142677936Y-100348592D01*
X142657340Y-100583999D01*
X133668405Y-100583999D01*
X133644748Y-100474231D01*
X133643419Y-100469127D01*
X133505641Y-100019239D01*
X133503895Y-100014298D01*
X133328464Y-99577719D01*
X133326295Y-99572922D01*
X133114472Y-99152794D01*
X133111910Y-99148207D01*
X132865212Y-98747545D01*
X132862281Y-98743207D01*
X132582492Y-98364909D01*
X132579198Y-98360830D01*
X132353343Y-98104208D01*
X128573553Y-101883999D01*
X128573553Y-101884000D01*
X127866447Y-101884000D01*
X124086655Y-98104207D01*
X124086654Y-98104207D01*
X123860811Y-98360817D01*
X123857507Y-98364909D01*
X123615595Y-98691996D01*
X123559904Y-98734190D01*
X123490243Y-98739578D01*
X123428727Y-98706448D01*
X123394887Y-98645320D01*
X123391899Y-98618261D01*
X123391899Y-98294407D01*
X123391899Y-97947035D01*
X123411582Y-97880000D01*
X123428212Y-97859363D01*
X123537290Y-97750285D01*
X124439838Y-97750285D01*
X128219999Y-101530446D01*
X132000160Y-97750285D01*
X131925012Y-97678262D01*
X131921066Y-97674789D01*
X131555014Y-97379223D01*
X131550753Y-97376072D01*
X131160943Y-97112606D01*
X131156479Y-97109858D01*
X130745721Y-96880394D01*
X130741002Y-96878015D01*
X130312278Y-96684220D01*
X130307398Y-96682259D01*
X129863766Y-96525514D01*
X129858739Y-96523974D01*
X129403417Y-96405417D01*
X129398266Y-96404307D01*
X128934531Y-96324792D01*
X128929323Y-96324125D01*
X128460510Y-96284223D01*
X128455254Y-96284000D01*
X127984746Y-96284000D01*
X127979489Y-96284223D01*
X127510676Y-96324125D01*
X127505468Y-96324792D01*
X127041733Y-96404307D01*
X127036582Y-96405417D01*
X126581260Y-96523974D01*
X126576233Y-96525514D01*
X126132601Y-96682259D01*
X126127721Y-96684220D01*
X125698997Y-96878015D01*
X125694278Y-96880394D01*
X125283520Y-97109858D01*
X125279056Y-97112606D01*
X124889246Y-97376072D01*
X124884985Y-97379223D01*
X124518947Y-97674778D01*
X124514975Y-97678273D01*
X124439838Y-97750285D01*
X123537290Y-97750285D01*
X124082965Y-97204610D01*
X124144286Y-97171127D01*
X124156759Y-97169073D01*
X124253642Y-97158158D01*
X124419527Y-97100112D01*
X124568337Y-97006609D01*
X124692609Y-96882337D01*
X124786112Y-96733527D01*
X124844158Y-96567642D01*
X124855073Y-96470761D01*
X124882139Y-96406347D01*
X124890602Y-96396973D01*
X125335458Y-95952117D01*
X125396779Y-95918634D01*
X125466471Y-95923618D01*
X125477665Y-95927793D01*
X125477669Y-95927796D01*
X125612517Y-95978091D01*
X125672127Y-95984500D01*
X130867872Y-95984499D01*
X130927483Y-95978091D01*
X131062331Y-95927796D01*
X131177546Y-95841546D01*
X131263796Y-95726331D01*
X131314091Y-95591483D01*
X131320500Y-95531873D01*
X131320499Y-92936128D01*
X131314091Y-92876517D01*
X131263796Y-92741669D01*
X131177546Y-92626454D01*
X131062331Y-92540204D01*
X130927483Y-92489909D01*
X130867873Y-92483500D01*
X130864550Y-92483500D01*
X125675439Y-92483500D01*
X125675420Y-92483500D01*
X125672128Y-92483501D01*
X125668848Y-92483853D01*
X125668840Y-92483854D01*
X125612515Y-92489909D01*
X125477669Y-92540204D01*
X125362454Y-92626454D01*
X125276204Y-92741668D01*
X125225910Y-92876515D01*
X125225909Y-92876517D01*
X125219500Y-92936127D01*
X125219500Y-92939449D01*
X125219500Y-94385560D01*
X125199815Y-94452599D01*
X125183181Y-94473241D01*
X124075034Y-95581387D01*
X124013711Y-95614872D01*
X124001237Y-95616926D01*
X123961032Y-95621456D01*
X123892210Y-95609402D01*
X123840830Y-95562052D01*
X123823206Y-95494442D01*
X123844046Y-95429345D01*
X124005005Y-95188454D01*
X124009054Y-95181440D01*
X124144900Y-94905971D01*
X124148002Y-94898481D01*
X124246731Y-94607639D01*
X124248828Y-94599811D01*
X124308749Y-94298568D01*
X124309805Y-94290546D01*
X124329895Y-93984043D01*
X124329895Y-93975956D01*
X124309805Y-93669453D01*
X124308749Y-93661431D01*
X124248828Y-93360188D01*
X124246731Y-93352360D01*
X124148002Y-93061518D01*
X124144900Y-93054028D01*
X124009054Y-92778559D01*
X124005005Y-92771545D01*
X123834367Y-92516169D01*
X123829426Y-92509729D01*
X123789429Y-92464123D01*
X122980565Y-93272986D01*
X122841660Y-93098803D01*
X122669504Y-92948396D01*
X122624774Y-92921671D01*
X123435876Y-92110569D01*
X123435876Y-92110568D01*
X123390269Y-92070573D01*
X123383830Y-92065632D01*
X123237118Y-91967602D01*
X123192313Y-91913990D01*
X123183606Y-91844665D01*
X123213761Y-91781637D01*
X123273204Y-91744918D01*
X123306009Y-91740500D01*
X134681994Y-91740500D01*
X134749033Y-91760185D01*
G37*
%TD.AperFunction*%
%TD*%
M02*
