%TF.GenerationSoftware,KiCad,Pcbnew,7.0.2*%
%TF.CreationDate,2023-07-28T16:56:04-04:00*%
%TF.ProjectId,dispocam-hub,64697370-6f63-4616-9d2d-6875622e6b69,rev?*%
%TF.SameCoordinates,Original*%
%TF.FileFunction,Legend,Bot*%
%TF.FilePolarity,Positive*%
%FSLAX46Y46*%
G04 Gerber Fmt 4.6, Leading zero omitted, Abs format (unit mm)*
G04 Created by KiCad (PCBNEW 7.0.2) date 2023-07-28 16:56:04*
%MOMM*%
%LPD*%
G01*
G04 APERTURE LIST*
%ADD10C,0.127000*%
G04 APERTURE END LIST*
%TO.C,G\u002A\u002A\u002A*%
G36*
X140986163Y-109621409D02*
G01*
X141223539Y-109698281D01*
X141305230Y-109727938D01*
X141454518Y-109769511D01*
X141574185Y-109772813D01*
X141708312Y-109741802D01*
X141854624Y-109716680D01*
X142096362Y-109746497D01*
X142314395Y-109854025D01*
X142477406Y-110027628D01*
X142495124Y-110057925D01*
X142580365Y-110276964D01*
X142613887Y-110513287D01*
X142597223Y-110739714D01*
X142531907Y-110929063D01*
X142419474Y-111054153D01*
X142417146Y-111055379D01*
X142338508Y-111070147D01*
X142181310Y-111083968D01*
X141967195Y-111095344D01*
X141717806Y-111102773D01*
X141701666Y-111103092D01*
X141450064Y-111110868D01*
X141231714Y-111122538D01*
X141069534Y-111136577D01*
X140986442Y-111151458D01*
X140959949Y-111161782D01*
X140835394Y-111205563D01*
X140680418Y-111255981D01*
X140457266Y-111308392D01*
X140169169Y-111318697D01*
X139924702Y-111259094D01*
X139735579Y-111135263D01*
X139613514Y-110952886D01*
X139570222Y-110717642D01*
X139584445Y-110599876D01*
X139674802Y-110379932D01*
X139829268Y-110176201D01*
X140025359Y-110015309D01*
X140240588Y-109923879D01*
X140257188Y-109919698D01*
X140409020Y-109848750D01*
X140545362Y-109740112D01*
X140558987Y-109725818D01*
X140677579Y-109633716D01*
X140812073Y-109599400D01*
X140986163Y-109621409D01*
G37*
G36*
X135374877Y-107593698D02*
G01*
X135560107Y-107667017D01*
X135561593Y-107667968D01*
X135665900Y-107718203D01*
X135832289Y-107781968D01*
X136025443Y-107845705D01*
X136269346Y-107936163D01*
X136574612Y-108118793D01*
X136792464Y-108353711D01*
X136923395Y-108641511D01*
X136967897Y-108982787D01*
X136950068Y-109168689D01*
X136849649Y-109451005D01*
X136674571Y-109693786D01*
X136440655Y-109877372D01*
X136163722Y-109982104D01*
X136049025Y-110027401D01*
X135949391Y-110154372D01*
X135925507Y-110205134D01*
X135786231Y-110395750D01*
X135595698Y-110559643D01*
X135384398Y-110674408D01*
X135182822Y-110717642D01*
X135154071Y-110721407D01*
X135035879Y-110766196D01*
X134898623Y-110845326D01*
X134757893Y-110928500D01*
X134536809Y-111016270D01*
X134261665Y-111079751D01*
X133908777Y-111125649D01*
X133755165Y-111137977D01*
X133491894Y-111152744D01*
X133196251Y-111164161D01*
X132907860Y-111170453D01*
X132556836Y-111166834D01*
X132277870Y-111143152D01*
X132057249Y-111094556D01*
X131873527Y-111016286D01*
X131705256Y-110903584D01*
X131548569Y-110780711D01*
X131313311Y-110888956D01*
X131141724Y-110951718D01*
X130937173Y-110987178D01*
X130670022Y-110997964D01*
X130666962Y-110997969D01*
X130446331Y-110993461D01*
X130289648Y-110973647D01*
X130159526Y-110930341D01*
X130018578Y-110855360D01*
X129882853Y-110765344D01*
X129665410Y-110548116D01*
X129538868Y-110288687D01*
X129499234Y-109980328D01*
X129538877Y-109687560D01*
X129650062Y-109406869D01*
X129818822Y-109168695D01*
X130031222Y-108992526D01*
X130273323Y-108897854D01*
X130322201Y-108886008D01*
X130445804Y-108814227D01*
X130551318Y-108668601D01*
X130583094Y-108618335D01*
X130716541Y-108460591D01*
X130870175Y-108329304D01*
X130923778Y-108294071D01*
X131031181Y-108237370D01*
X131148812Y-108203860D01*
X131307254Y-108186637D01*
X131537090Y-108178802D01*
X131715976Y-108171684D01*
X132030959Y-108133455D01*
X132302150Y-108058773D01*
X132451279Y-108010342D01*
X132681163Y-107968842D01*
X132939700Y-107970658D01*
X133139710Y-107976582D01*
X133311891Y-107955046D01*
X133463053Y-107897711D01*
X133611501Y-107842937D01*
X133817406Y-107791071D01*
X134035770Y-107753522D01*
X134252056Y-107719545D01*
X134487924Y-107670831D01*
X134675528Y-107620291D01*
X134874739Y-107575379D01*
X135133769Y-107562484D01*
X135374877Y-107593698D01*
G37*
G36*
X146066505Y-106906515D02*
G01*
X146186350Y-106936351D01*
X146383097Y-107012483D01*
X146573572Y-107110924D01*
X146726482Y-107198766D01*
X146845540Y-107247224D01*
X146955043Y-107256888D01*
X147093960Y-107237215D01*
X147329421Y-107220536D01*
X147644603Y-107263750D01*
X147936221Y-107370851D01*
X147940235Y-107372924D01*
X148024956Y-107408683D01*
X148103745Y-107411036D01*
X148208152Y-107374303D01*
X148369727Y-107292805D01*
X148414151Y-107270302D01*
X148744242Y-107158561D01*
X149063272Y-107142427D01*
X149360963Y-107216072D01*
X149627033Y-107373671D01*
X149851202Y-107609397D01*
X150023188Y-107917424D01*
X150132712Y-108291926D01*
X150158120Y-108475697D01*
X150149602Y-108612518D01*
X150103072Y-108741719D01*
X150066688Y-108831740D01*
X150047622Y-108969211D01*
X150073980Y-109145162D01*
X150091442Y-109250796D01*
X150075515Y-109551490D01*
X149966425Y-109832140D01*
X149770587Y-110073126D01*
X149688465Y-110144600D01*
X149583900Y-110225996D01*
X149526353Y-110257682D01*
X149483388Y-110280795D01*
X149385047Y-110357829D01*
X149258729Y-110470210D01*
X149157276Y-110557746D01*
X148981732Y-110686432D01*
X148827451Y-110775727D01*
X148539506Y-110860396D01*
X148203535Y-110874610D01*
X147863620Y-110816485D01*
X147548803Y-110691153D01*
X147288128Y-110503744D01*
X147195703Y-110422813D01*
X147099512Y-110372019D01*
X146972095Y-110347541D01*
X146778088Y-110337879D01*
X146559331Y-110318600D01*
X146287597Y-110272148D01*
X146033848Y-110208910D01*
X145637433Y-110088798D01*
X145370063Y-110224347D01*
X145254169Y-110276536D01*
X145075199Y-110336531D01*
X144935631Y-110359895D01*
X144870932Y-110355789D01*
X144640962Y-110289005D01*
X144416327Y-110156144D01*
X144234370Y-109977565D01*
X144194066Y-109928287D01*
X144107494Y-109846607D01*
X144051657Y-109827560D01*
X144030912Y-109838020D01*
X143899605Y-109843285D01*
X143737836Y-109781245D01*
X143567869Y-109666328D01*
X143411968Y-109512959D01*
X143292397Y-109335565D01*
X143242352Y-109218772D01*
X143171058Y-108967201D01*
X143126292Y-108691310D01*
X143113469Y-108430136D01*
X143138004Y-108222718D01*
X143167813Y-108136747D01*
X143308345Y-107923879D01*
X143515038Y-107765285D01*
X143764051Y-107681572D01*
X143831865Y-107669276D01*
X143989060Y-107607834D01*
X144106811Y-107490747D01*
X144192587Y-107396920D01*
X144404760Y-107254818D01*
X144651451Y-107168896D01*
X144891989Y-107156470D01*
X144912903Y-107159086D01*
X145089694Y-107155203D01*
X145232367Y-107088572D01*
X145305514Y-107043528D01*
X145543045Y-106951252D01*
X145812551Y-106902123D01*
X146066505Y-106906515D01*
G37*
G36*
X138693007Y-96079589D02*
G01*
X138933601Y-96085831D01*
X139119013Y-96099684D01*
X139274398Y-96124120D01*
X139424916Y-96162111D01*
X139595724Y-96216629D01*
X139672018Y-96243232D01*
X140232661Y-96498252D01*
X140742046Y-96836978D01*
X141190642Y-97250798D01*
X141568919Y-97731101D01*
X141867345Y-98269275D01*
X141898490Y-98340029D01*
X142087772Y-98908237D01*
X142176734Y-99492137D01*
X142165395Y-100089332D01*
X142053775Y-100697425D01*
X141841896Y-101314020D01*
X141764257Y-101488429D01*
X141521672Y-101953672D01*
X141231375Y-102420432D01*
X140904183Y-102876705D01*
X140550910Y-103310484D01*
X140182372Y-103709764D01*
X139809385Y-104062540D01*
X139442764Y-104356807D01*
X139093324Y-104580559D01*
X138771881Y-104721790D01*
X138743732Y-104730897D01*
X138579342Y-104802832D01*
X138503837Y-104891913D01*
X138509445Y-105018524D01*
X138588395Y-105203049D01*
X138606799Y-105243403D01*
X138650081Y-105397695D01*
X138678522Y-105617744D01*
X138694788Y-105921556D01*
X138697521Y-106011198D01*
X138701815Y-106223886D01*
X138697723Y-106359926D01*
X138682285Y-106438497D01*
X138652540Y-106478778D01*
X138605531Y-106499950D01*
X138571253Y-106513778D01*
X138537825Y-106546114D01*
X138516700Y-106610209D01*
X138505077Y-106723677D01*
X138500156Y-106904128D01*
X138499138Y-107169174D01*
X138499138Y-107804563D01*
X138677652Y-107804563D01*
X138856166Y-107804563D01*
X138856166Y-108111203D01*
X138856166Y-108417843D01*
X138677652Y-108417843D01*
X138499138Y-108417843D01*
X138499138Y-109056676D01*
X138499657Y-109273311D01*
X138503222Y-109469580D01*
X138512502Y-109593331D01*
X138530148Y-109661166D01*
X138558813Y-109689691D01*
X138601146Y-109695509D01*
X138620473Y-109696186D01*
X138665016Y-109713152D01*
X138689924Y-109768947D01*
X138700777Y-109884684D01*
X138703154Y-110081480D01*
X138703154Y-110467450D01*
X138435383Y-110452003D01*
X138167612Y-110436555D01*
X138152627Y-110066032D01*
X138149888Y-109994437D01*
X138147563Y-109831207D01*
X138158646Y-109741398D01*
X138188349Y-109703376D01*
X138241884Y-109695509D01*
X138278991Y-109692091D01*
X138310395Y-109669661D01*
X138330097Y-109611532D01*
X138340811Y-109501077D01*
X138345249Y-109321668D01*
X138346126Y-109056676D01*
X138346126Y-108417843D01*
X138167612Y-108417843D01*
X137989098Y-108417843D01*
X137989098Y-108111203D01*
X137989098Y-107804563D01*
X138167612Y-107804563D01*
X138346126Y-107804563D01*
X138346126Y-107174582D01*
X138346126Y-106544600D01*
X138185848Y-106568171D01*
X138025570Y-106591742D01*
X138062538Y-106215820D01*
X138095277Y-105988741D01*
X138153514Y-105708037D01*
X138222165Y-105455128D01*
X138271075Y-105297837D01*
X138327594Y-105084812D01*
X138343939Y-104939995D01*
X138317853Y-104846025D01*
X138247078Y-104785541D01*
X138129359Y-104741181D01*
X138015681Y-104702641D01*
X137657341Y-104526449D01*
X137280963Y-104268721D01*
X136896331Y-103941324D01*
X136513224Y-103556122D01*
X136141424Y-103124982D01*
X135790712Y-102659770D01*
X135470871Y-102172351D01*
X135191681Y-101674592D01*
X134962924Y-101178358D01*
X134794382Y-100695516D01*
X134736160Y-100480224D01*
X134698964Y-100298801D01*
X134680621Y-100121028D01*
X134677539Y-99911725D01*
X134686123Y-99635710D01*
X134695194Y-99457386D01*
X134723569Y-99151724D01*
X134770013Y-98892409D01*
X134840296Y-98642265D01*
X135019574Y-98194021D01*
X135323218Y-97671818D01*
X135705931Y-97205351D01*
X136159818Y-96802556D01*
X136676985Y-96471371D01*
X137249540Y-96219733D01*
X137257118Y-96217083D01*
X137423503Y-96161687D01*
X137568002Y-96123170D01*
X137715388Y-96098539D01*
X137890439Y-96084803D01*
X138117928Y-96078968D01*
X138422632Y-96078042D01*
X138693007Y-96079589D01*
G37*
G36*
X134538354Y-105243387D02*
G01*
X134816311Y-105291850D01*
X135017786Y-105339793D01*
X135159390Y-105394648D01*
X135257737Y-105463845D01*
X135329440Y-105554814D01*
X135391109Y-105674984D01*
X135455693Y-105855768D01*
X135487265Y-106112274D01*
X135446449Y-106338083D01*
X135339797Y-106518084D01*
X135173862Y-106637165D01*
X134955196Y-106680217D01*
X134897292Y-106687259D01*
X134747556Y-106731239D01*
X134582884Y-106802175D01*
X134565844Y-106810661D01*
X134432900Y-106867366D01*
X134266628Y-106921117D01*
X134050118Y-106976286D01*
X133766457Y-107037246D01*
X133398737Y-107108370D01*
X133263819Y-107123998D01*
X133034274Y-107124732D01*
X132795546Y-107103315D01*
X132584513Y-107063551D01*
X132438047Y-107009245D01*
X132410530Y-106991896D01*
X132240503Y-106817943D01*
X132135139Y-106571780D01*
X132098666Y-106262705D01*
X132107123Y-106080163D01*
X132141718Y-105951295D01*
X132212815Y-105850641D01*
X132241347Y-105823467D01*
X132402901Y-105716385D01*
X132625799Y-105611143D01*
X132878559Y-105519557D01*
X133129698Y-105453446D01*
X133347732Y-105424626D01*
X133457473Y-105415062D01*
X133692424Y-105369964D01*
X133907733Y-105302548D01*
X134143034Y-105228401D01*
X134366770Y-105216831D01*
X134538354Y-105243387D01*
G37*
G36*
X144419172Y-104717899D02*
G01*
X144614215Y-104818110D01*
X144762309Y-104998304D01*
X144836536Y-105230149D01*
X144817175Y-105479037D01*
X144749654Y-105627953D01*
X144598808Y-105816941D01*
X144404352Y-105976711D01*
X144197397Y-106077236D01*
X144175817Y-106084250D01*
X144001085Y-106169227D01*
X143852558Y-106281232D01*
X143777059Y-106349667D01*
X143676873Y-106404530D01*
X143558465Y-106414512D01*
X143396986Y-106380403D01*
X143167589Y-106302993D01*
X143156811Y-106299101D01*
X142989181Y-106246232D01*
X142863134Y-106220103D01*
X142805230Y-106226333D01*
X142784993Y-106240194D01*
X142685417Y-106262469D01*
X142538196Y-106271173D01*
X142359142Y-106255142D01*
X142123910Y-106164565D01*
X141953334Y-105996164D01*
X141849477Y-105752318D01*
X141814399Y-105435408D01*
X141815571Y-105341482D01*
X141831248Y-105179384D01*
X141876743Y-105065700D01*
X141966485Y-104991378D01*
X142114901Y-104947368D01*
X142336421Y-104924620D01*
X142645471Y-104914082D01*
X142654741Y-104913886D01*
X142975277Y-104902184D01*
X143221472Y-104880532D01*
X143420113Y-104845550D01*
X143597985Y-104793857D01*
X143853303Y-104721778D01*
X144161071Y-104685681D01*
X144419172Y-104717899D01*
G37*
G36*
X129719499Y-104409064D02*
G01*
X129852034Y-104451116D01*
X129957938Y-104498348D01*
X130055685Y-104501993D01*
X130123530Y-104486991D01*
X130300334Y-104504104D01*
X130494969Y-104577193D01*
X130671112Y-104694873D01*
X130783549Y-104808684D01*
X130836179Y-104920549D01*
X130848536Y-105077450D01*
X130839814Y-105210032D01*
X130772543Y-105411090D01*
X130634049Y-105547641D01*
X130418645Y-105624122D01*
X130120641Y-105644968D01*
X129997239Y-105648572D01*
X129857671Y-105684499D01*
X129738111Y-105771261D01*
X129736508Y-105772757D01*
X129593769Y-105888525D01*
X129445925Y-105984862D01*
X129372837Y-106013207D01*
X129171986Y-106044325D01*
X128904048Y-106047371D01*
X128589128Y-106022590D01*
X128247331Y-105970229D01*
X128018403Y-105900713D01*
X127808007Y-105759082D01*
X127679076Y-105559183D01*
X127635283Y-105305010D01*
X127651658Y-105147296D01*
X127752395Y-104914769D01*
X127942695Y-104726222D01*
X128219970Y-104583886D01*
X128581630Y-104489992D01*
X128848279Y-104448459D01*
X129206149Y-104408087D01*
X129500380Y-104394838D01*
X129719499Y-104409064D01*
G37*
G36*
X151760182Y-102875554D02*
G01*
X151871625Y-102891410D01*
X152030086Y-102923523D01*
X152129433Y-102956118D01*
X152161079Y-102976300D01*
X152272488Y-103114034D01*
X152345821Y-103322174D01*
X152372230Y-103578060D01*
X152372220Y-103582752D01*
X152325878Y-103868435D01*
X152194072Y-104104565D01*
X151983429Y-104285422D01*
X151700579Y-104405285D01*
X151352150Y-104458434D01*
X151307731Y-104461465D01*
X151071121Y-104503938D01*
X150869579Y-104579365D01*
X150787970Y-104619464D01*
X150652646Y-104664621D01*
X150499856Y-104681473D01*
X150302258Y-104671934D01*
X150032511Y-104637915D01*
X149999582Y-104632923D01*
X149748123Y-104571676D01*
X149583020Y-104475808D01*
X149492553Y-104335014D01*
X149465002Y-104138992D01*
X149474268Y-104004689D01*
X149552059Y-103751734D01*
X149702049Y-103558152D01*
X149730182Y-103537554D01*
X149869497Y-103466503D01*
X150063018Y-103391474D01*
X150276136Y-103323821D01*
X150474239Y-103274902D01*
X150622717Y-103256072D01*
X150731886Y-103238814D01*
X150848640Y-103153182D01*
X150905115Y-103092517D01*
X151070670Y-102992909D01*
X151289324Y-102917163D01*
X151529641Y-102874853D01*
X151760182Y-102875554D01*
G37*
G36*
X146259630Y-101546062D02*
G01*
X146497639Y-101554889D01*
X146700928Y-101572560D01*
X146843261Y-101599161D01*
X146982418Y-101634070D01*
X147208244Y-101676040D01*
X147433145Y-101705075D01*
X147636560Y-101733299D01*
X147878080Y-101808801D01*
X148041053Y-101928326D01*
X148136151Y-102097835D01*
X148165915Y-102269335D01*
X148121049Y-102461490D01*
X147983237Y-102643952D01*
X147748062Y-102824997D01*
X147723228Y-102840806D01*
X147535146Y-102946986D01*
X147380947Y-102999804D01*
X147222902Y-103012746D01*
X147182848Y-103012825D01*
X146999168Y-103042289D01*
X146849210Y-103132762D01*
X146747169Y-103199388D01*
X146528202Y-103257470D01*
X146289236Y-103233657D01*
X146056576Y-103128104D01*
X145943622Y-103057518D01*
X145855089Y-103027474D01*
X145753170Y-103036375D01*
X145595820Y-103079814D01*
X145469285Y-103111698D01*
X145238772Y-103136723D01*
X144961084Y-103123629D01*
X144939565Y-103121502D01*
X144746844Y-103097024D01*
X144617024Y-103061119D01*
X144514296Y-102999242D01*
X144402853Y-102896844D01*
X144358150Y-102851271D01*
X144263182Y-102733466D01*
X144221175Y-102617687D01*
X144211806Y-102457155D01*
X144213909Y-102384733D01*
X144253528Y-102185122D01*
X144357898Y-101988075D01*
X144407672Y-101914844D01*
X144534972Y-101759427D01*
X144665527Y-101670918D01*
X144831748Y-101632874D01*
X145066046Y-101628855D01*
X145249892Y-101628874D01*
X145396462Y-101619809D01*
X145472964Y-101603606D01*
X145485071Y-101597495D01*
X145599620Y-101571796D01*
X145784386Y-101554600D01*
X146013134Y-101545994D01*
X146259630Y-101546062D01*
G37*
G36*
X131742508Y-101128481D02*
G01*
X131796379Y-101158798D01*
X131959731Y-101211121D01*
X132203325Y-101252107D01*
X132537921Y-101283857D01*
X132571792Y-101286768D01*
X132837194Y-101340313D01*
X133076688Y-101438692D01*
X133271275Y-101569507D01*
X133401958Y-101720363D01*
X133449741Y-101878863D01*
X133447740Y-101911124D01*
X133389783Y-102075727D01*
X133274777Y-102224254D01*
X133133947Y-102313706D01*
X133124781Y-102316963D01*
X133015141Y-102385423D01*
X132903714Y-102492638D01*
X132783808Y-102596961D01*
X132593377Y-102652606D01*
X132378795Y-102666540D01*
X132099635Y-102676440D01*
X131811524Y-102679690D01*
X131536627Y-102676579D01*
X131297109Y-102667396D01*
X131115136Y-102652432D01*
X131012873Y-102631975D01*
X130990842Y-102623767D01*
X130836015Y-102592591D01*
X130663251Y-102586773D01*
X130658752Y-102587038D01*
X130405059Y-102558116D01*
X130172780Y-102453881D01*
X129981999Y-102291356D01*
X129852801Y-102087568D01*
X129805272Y-101859538D01*
X129809946Y-101772287D01*
X129854935Y-101640710D01*
X129967620Y-101515956D01*
X129993290Y-101494474D01*
X130156537Y-101395406D01*
X130323489Y-101338508D01*
X130396804Y-101324601D01*
X130587916Y-101280283D01*
X130782987Y-101227124D01*
X130887708Y-101199675D01*
X131042967Y-101172694D01*
X131144042Y-101172752D01*
X131218658Y-101173942D01*
X131334098Y-101128076D01*
X131395187Y-101092139D01*
X131569963Y-101063284D01*
X131742508Y-101128481D01*
G37*
%TO.C,kibuzzard-64C418B2*%
G36*
X143849725Y-94225269D02*
G01*
X143892587Y-94344331D01*
X143903700Y-94394337D01*
X143849725Y-94401481D01*
X143800512Y-94410212D01*
X143792575Y-94463394D01*
X143792399Y-94632198D01*
X143791869Y-94759727D01*
X143790987Y-94845981D01*
X143790194Y-94905512D01*
X143788606Y-94963456D01*
X143787019Y-95022194D01*
X143784637Y-95080931D01*
X143784637Y-95165863D01*
X143784637Y-95250794D01*
X143781462Y-95278575D01*
X143770350Y-95291275D01*
X143743362Y-95295244D01*
X143625887Y-95295244D01*
X143573500Y-95290481D01*
X143551275Y-95266669D01*
X143549687Y-95249206D01*
X143546116Y-95118238D01*
X143544925Y-95061881D01*
X143544749Y-94962398D01*
X143544219Y-94856565D01*
X143543337Y-94744381D01*
X143543337Y-94663948D01*
X143543337Y-94575048D01*
X143543337Y-94477681D01*
X143543734Y-94317741D01*
X143544925Y-94237969D01*
X143545719Y-94221300D01*
X143550481Y-94211775D01*
X143560006Y-94206219D01*
X143576675Y-94203044D01*
X143602075Y-94201456D01*
X143703278Y-94199075D01*
X143768762Y-94195106D01*
X143787019Y-94195106D01*
X143806862Y-94195106D01*
X143849725Y-94225269D01*
G37*
G36*
X154443112Y-94189550D02*
G01*
X154451050Y-94233206D01*
X154452637Y-94360206D01*
X154456011Y-94418944D01*
X154456606Y-94518956D01*
X154456408Y-94618969D01*
X154457400Y-94677706D01*
X154457400Y-94720569D01*
X154452637Y-94825344D01*
X154448669Y-94938056D01*
X154446287Y-95039656D01*
X154445494Y-95153163D01*
X154447875Y-95257144D01*
X154439937Y-95292863D01*
X154405012Y-95303181D01*
X154346672Y-95303181D01*
X154257375Y-95303181D01*
X154209750Y-95300006D01*
X154182762Y-95291275D01*
X154176412Y-95263494D01*
X154173767Y-95135788D01*
X154172179Y-95042655D01*
X154171650Y-94984094D01*
X154172444Y-94855506D01*
X154173237Y-94783473D01*
X154174031Y-94703900D01*
X154174825Y-94574519D01*
X154173237Y-94522131D01*
X154170459Y-94465378D01*
X154168475Y-94345919D01*
X154173237Y-94222094D01*
X154181175Y-94191137D01*
X154211337Y-94182406D01*
X154285950Y-94180819D01*
X154400250Y-94180819D01*
X154443112Y-94189550D01*
G37*
G36*
X158970662Y-94189550D02*
G01*
X158978600Y-94233206D01*
X158980187Y-94360206D01*
X158983561Y-94418944D01*
X158984156Y-94518956D01*
X158983958Y-94618969D01*
X158984950Y-94677706D01*
X158984950Y-94720569D01*
X158980187Y-94825344D01*
X158976219Y-94938056D01*
X158973837Y-95039656D01*
X158973044Y-95153163D01*
X158975425Y-95257144D01*
X158967487Y-95292863D01*
X158932562Y-95303181D01*
X158874222Y-95303181D01*
X158784925Y-95303181D01*
X158737300Y-95300006D01*
X158710312Y-95291275D01*
X158703962Y-95263494D01*
X158701317Y-95135788D01*
X158699729Y-95042655D01*
X158699200Y-94984094D01*
X158699994Y-94855506D01*
X158700787Y-94783473D01*
X158701581Y-94703900D01*
X158702375Y-94574519D01*
X158700787Y-94522131D01*
X158698009Y-94465378D01*
X158696025Y-94345919D01*
X158700787Y-94222094D01*
X158708725Y-94191137D01*
X158738887Y-94182406D01*
X158813500Y-94180819D01*
X158927800Y-94180819D01*
X158970662Y-94189550D01*
G37*
G36*
X152744664Y-94222270D02*
G01*
X152846793Y-94222799D01*
X153006425Y-94223681D01*
X153016744Y-94223681D01*
X153027062Y-94223681D01*
X153057225Y-94233206D01*
X153066750Y-94264956D01*
X153069131Y-94347109D01*
X153069925Y-94399894D01*
X153069528Y-94482444D01*
X153068337Y-94587219D01*
X153067147Y-94659450D01*
X153066750Y-94739619D01*
X153066750Y-94870588D01*
X153066750Y-94987269D01*
X153066750Y-95143241D01*
X153066750Y-95214281D01*
X153056431Y-95252381D01*
X153019125Y-95263494D01*
X152893712Y-95261906D01*
X152858787Y-95257144D01*
X152839737Y-95231744D01*
X152841325Y-95214281D01*
X152844103Y-95122603D01*
X152842912Y-95006319D01*
X152841325Y-94966631D01*
X152832594Y-94942025D01*
X152807987Y-94934881D01*
X152781000Y-94932328D01*
X152690512Y-94923769D01*
X152597644Y-94902338D01*
X152515887Y-94863444D01*
X152458737Y-94809469D01*
X152416669Y-94728506D01*
X152392062Y-94650719D01*
X152387369Y-94607856D01*
X152669875Y-94607856D01*
X152704800Y-94649131D01*
X152738137Y-94658656D01*
X152758775Y-94660244D01*
X152781000Y-94662625D01*
X152800050Y-94661037D01*
X152819100Y-94652306D01*
X152826244Y-94645163D01*
X152830212Y-94636431D01*
X152832594Y-94626113D01*
X152832594Y-94615000D01*
X152831800Y-94603888D01*
X152831800Y-94593569D01*
X152833387Y-94561819D01*
X152833387Y-94504669D01*
X152809575Y-94479269D01*
X152739725Y-94480856D01*
X152677812Y-94523719D01*
X152669875Y-94607856D01*
X152387369Y-94607856D01*
X152386109Y-94596347D01*
X152384125Y-94515781D01*
X152392459Y-94450694D01*
X152417462Y-94382431D01*
X152487312Y-94293531D01*
X152586531Y-94237572D01*
X152700037Y-94222094D01*
X152744664Y-94222270D01*
G37*
G36*
X147452556Y-94214950D02*
G01*
X147459700Y-94263369D01*
X147460229Y-94333924D01*
X147461817Y-94435524D01*
X147464462Y-94568169D01*
X147470019Y-94588806D01*
X147489862Y-94595156D01*
X147586700Y-94598331D01*
X147632737Y-94590394D01*
X147639087Y-94542769D01*
X147638382Y-94491440D01*
X147638382Y-94398835D01*
X147639087Y-94264956D01*
X147640675Y-94230031D01*
X147659725Y-94209394D01*
X147677187Y-94207806D01*
X147754975Y-94207806D01*
X147864512Y-94207806D01*
X147877212Y-94207806D01*
X147897850Y-94214950D01*
X147905787Y-94234794D01*
X147905787Y-94249875D01*
X147905787Y-94264956D01*
X147906978Y-94369334D01*
X147907375Y-94412594D01*
X147911079Y-94520367D01*
X147911608Y-94627788D01*
X147908962Y-94734856D01*
X147905986Y-94827527D01*
X147903406Y-94956313D01*
X147900827Y-95084305D01*
X147897850Y-95174594D01*
X147900231Y-95208725D01*
X147902612Y-95241269D01*
X147895469Y-95265875D01*
X147870862Y-95274606D01*
X147783550Y-95276591D01*
X147670837Y-95273019D01*
X147645437Y-95249206D01*
X147643850Y-95236506D01*
X147640278Y-95115856D01*
X147639087Y-95061881D01*
X147639087Y-94985681D01*
X147639087Y-94909481D01*
X147631944Y-94872175D01*
X147596225Y-94865031D01*
X147496212Y-94863444D01*
X147478750Y-94865031D01*
X147461287Y-94880906D01*
X147458112Y-94911069D01*
X147458112Y-94957900D01*
X147456525Y-95015844D01*
X147453350Y-95147209D01*
X147456525Y-95233331D01*
X147456525Y-95246031D01*
X147427950Y-95274606D01*
X147385087Y-95276194D01*
X147294600Y-95274606D01*
X147232687Y-95273019D01*
X147207287Y-95266669D01*
X147199350Y-95242856D01*
X147199350Y-95233331D01*
X147195778Y-95118634D01*
X147194587Y-95072994D01*
X147194587Y-95021312D01*
X147194587Y-94910716D01*
X147194587Y-94741206D01*
X147194587Y-94563605D01*
X147194587Y-94426088D01*
X147194587Y-94328655D01*
X147194587Y-94271306D01*
X147194587Y-94236381D01*
X147200937Y-94214950D01*
X147219987Y-94207806D01*
X147242212Y-94207806D01*
X147354131Y-94207806D01*
X147404137Y-94207806D01*
X147452556Y-94214950D01*
G37*
G36*
X155055887Y-94201103D02*
G01*
X155173362Y-94202691D01*
X155252737Y-94204631D01*
X155283694Y-94207012D01*
X155298775Y-94214156D01*
X155305919Y-94229237D01*
X155306712Y-94260194D01*
X155306712Y-94316649D01*
X155306712Y-94416166D01*
X155306712Y-94558743D01*
X155306712Y-94744381D01*
X155306712Y-94896384D01*
X155306712Y-95026956D01*
X155306712Y-95136097D01*
X155306712Y-95223806D01*
X155306712Y-95244444D01*
X155298775Y-95272225D01*
X155273375Y-95282544D01*
X155252737Y-95282544D01*
X155120269Y-95283426D01*
X155002265Y-95283955D01*
X154962225Y-95284023D01*
X154898725Y-95284131D01*
X154860625Y-95284131D01*
X154752675Y-95250794D01*
X154670522Y-95171419D01*
X154627262Y-95079344D01*
X154604641Y-94961869D01*
X154597343Y-94866619D01*
X154852687Y-94866619D01*
X154863800Y-94944406D01*
X154898725Y-94999175D01*
X154962225Y-95020606D01*
X155040012Y-95019019D01*
X155065412Y-94995206D01*
X155068587Y-94960281D01*
X155068587Y-94884478D01*
X155068587Y-94733269D01*
X155068587Y-94621350D01*
X155068587Y-94507844D01*
X155059856Y-94465775D01*
X155019375Y-94455456D01*
X154946350Y-94463394D01*
X154868562Y-94533244D01*
X154852687Y-94609444D01*
X154852687Y-94725331D01*
X154852687Y-94806691D01*
X154852687Y-94866619D01*
X154597343Y-94866619D01*
X154597100Y-94863444D01*
X154597894Y-94766606D01*
X154597100Y-94615794D01*
X154605434Y-94511813D01*
X154630437Y-94396719D01*
X154673300Y-94311391D01*
X154754262Y-94233206D01*
X154781250Y-94220506D01*
X154900312Y-94199869D01*
X155055887Y-94201103D01*
G37*
G36*
X147015200Y-94201456D02*
G01*
X147041394Y-94208600D01*
X147048537Y-94236381D01*
X147048141Y-94293928D01*
X147050125Y-94371319D01*
X147053300Y-94479269D01*
X147053300Y-94602565D01*
X147051183Y-94724802D01*
X147046950Y-94845981D01*
X147035837Y-94933691D01*
X147012025Y-95015844D01*
X146975116Y-95092838D01*
X146924712Y-95165069D01*
X146868753Y-95222616D01*
X146815175Y-95255556D01*
X146720807Y-95280427D01*
X146626086Y-95280956D01*
X146531012Y-95257144D01*
X146467512Y-95220631D01*
X146404542Y-95155367D01*
X146355329Y-95078109D01*
X146319875Y-94988856D01*
X146301619Y-94900750D01*
X146294475Y-94795181D01*
X146293903Y-94750668D01*
X146293459Y-94673007D01*
X146293141Y-94562200D01*
X146292951Y-94418245D01*
X146292887Y-94241144D01*
X146294475Y-94223681D01*
X146316700Y-94201456D01*
X146346862Y-94201456D01*
X146415919Y-94201456D01*
X146511962Y-94201456D01*
X146534187Y-94201456D01*
X146556412Y-94223681D01*
X146558000Y-94237969D01*
X146559191Y-94405450D01*
X146559587Y-94472919D01*
X146558706Y-94548060D01*
X146558176Y-94669769D01*
X146558000Y-94838044D01*
X146567525Y-94911069D01*
X146599275Y-94972981D01*
X146663569Y-95004731D01*
X146732625Y-94984094D01*
X146775487Y-94915831D01*
X146780250Y-94863444D01*
X146780250Y-94780894D01*
X146780250Y-94676119D01*
X146781044Y-94640400D01*
X146781837Y-94599125D01*
X146781837Y-94561819D01*
X146778662Y-94501494D01*
X146777075Y-94413387D01*
X146778662Y-94324488D01*
X146780250Y-94236381D01*
X146787394Y-94209394D01*
X146810412Y-94201456D01*
X146917172Y-94200663D01*
X147015200Y-94201456D01*
G37*
G36*
X140936663Y-94201456D02*
G01*
X140962856Y-94208600D01*
X140970000Y-94236381D01*
X140969603Y-94293928D01*
X140971588Y-94371319D01*
X140974763Y-94479269D01*
X140974763Y-94602565D01*
X140972646Y-94724802D01*
X140968413Y-94845981D01*
X140957300Y-94933691D01*
X140933488Y-95015844D01*
X140896578Y-95092838D01*
X140846175Y-95165069D01*
X140790216Y-95222616D01*
X140736638Y-95255556D01*
X140642269Y-95280427D01*
X140547549Y-95280956D01*
X140452475Y-95257144D01*
X140388975Y-95220631D01*
X140326004Y-95155367D01*
X140276792Y-95078109D01*
X140241338Y-94988856D01*
X140223081Y-94900750D01*
X140215937Y-94795181D01*
X140215366Y-94750668D01*
X140214921Y-94673007D01*
X140214604Y-94562200D01*
X140214414Y-94418245D01*
X140214350Y-94241144D01*
X140215937Y-94223681D01*
X140238163Y-94201456D01*
X140268325Y-94201456D01*
X140337381Y-94201456D01*
X140433425Y-94201456D01*
X140455650Y-94201456D01*
X140477875Y-94223681D01*
X140479463Y-94237969D01*
X140480653Y-94405450D01*
X140481050Y-94472919D01*
X140480168Y-94548060D01*
X140479639Y-94669769D01*
X140479463Y-94838044D01*
X140488988Y-94911069D01*
X140520737Y-94972981D01*
X140585031Y-95004731D01*
X140654088Y-94984094D01*
X140696950Y-94915831D01*
X140701712Y-94863444D01*
X140701712Y-94780894D01*
X140701712Y-94676119D01*
X140702506Y-94640400D01*
X140703300Y-94599125D01*
X140703300Y-94561819D01*
X140700125Y-94501494D01*
X140698537Y-94413387D01*
X140700125Y-94324488D01*
X140701712Y-94236381D01*
X140708856Y-94209394D01*
X140731875Y-94201456D01*
X140838634Y-94200663D01*
X140936663Y-94201456D01*
G37*
G36*
X135883650Y-94226856D02*
G01*
X135903494Y-94239556D01*
X135923338Y-94252256D01*
X136013825Y-94332028D01*
X136075738Y-94447519D01*
X136091613Y-94536419D01*
X136086056Y-94558644D01*
X136067800Y-94564994D01*
X136011444Y-94564994D01*
X135905875Y-94564994D01*
X135878888Y-94547531D01*
X135869363Y-94533244D01*
X135821341Y-94488397D01*
X135759825Y-94471331D01*
X135695531Y-94483238D01*
X135639175Y-94525306D01*
X135640763Y-94603094D01*
X135693150Y-94641194D01*
X135767763Y-94660244D01*
X135877300Y-94690406D01*
X135960203Y-94750026D01*
X136026878Y-94829401D01*
X136077325Y-94928531D01*
X136099153Y-95017828D01*
X136107488Y-95130144D01*
X136104313Y-95196025D01*
X136101138Y-95260319D01*
X136095581Y-95283337D01*
X136072563Y-95290481D01*
X135955088Y-95296831D01*
X135833644Y-95298022D01*
X135697913Y-95298419D01*
X135607425Y-95298419D01*
X135440738Y-95298419D01*
X135418513Y-95298419D01*
X135398669Y-95291275D01*
X135393113Y-95271431D01*
X135392716Y-95154353D01*
X135394700Y-95092044D01*
X135406606Y-95046800D01*
X135453438Y-95039656D01*
X135530519Y-95039656D01*
X135626299Y-95041773D01*
X135740775Y-95046006D01*
X135797925Y-95046006D01*
X135816975Y-95017431D01*
X135779669Y-94937263D01*
X135712200Y-94896781D01*
X135680450Y-94889638D01*
X135643938Y-94879319D01*
X135559403Y-94848759D01*
X135499475Y-94811056D01*
X135430331Y-94732563D01*
X135390114Y-94643134D01*
X135378825Y-94542769D01*
X135399066Y-94441566D01*
X135450263Y-94350681D01*
X135511999Y-94287005D01*
X135587140Y-94237792D01*
X135675688Y-94203044D01*
X135782447Y-94193916D01*
X135883650Y-94226856D01*
G37*
G36*
X137658475Y-94226856D02*
G01*
X137678319Y-94239556D01*
X137698163Y-94252256D01*
X137788650Y-94332028D01*
X137850563Y-94447519D01*
X137866438Y-94536419D01*
X137860881Y-94558644D01*
X137842625Y-94564994D01*
X137786269Y-94564994D01*
X137680700Y-94564994D01*
X137653713Y-94547531D01*
X137644188Y-94533244D01*
X137596166Y-94488397D01*
X137534650Y-94471331D01*
X137470356Y-94483238D01*
X137414000Y-94525306D01*
X137415588Y-94603094D01*
X137467975Y-94641194D01*
X137542588Y-94660244D01*
X137652125Y-94690406D01*
X137735028Y-94750026D01*
X137801703Y-94829401D01*
X137852150Y-94928531D01*
X137873978Y-95017828D01*
X137882313Y-95130144D01*
X137879138Y-95196025D01*
X137875963Y-95260319D01*
X137870406Y-95283337D01*
X137847388Y-95290481D01*
X137729913Y-95296831D01*
X137608469Y-95298022D01*
X137472738Y-95298419D01*
X137382250Y-95298419D01*
X137215563Y-95298419D01*
X137193338Y-95298419D01*
X137173494Y-95291275D01*
X137167938Y-95271431D01*
X137167541Y-95154353D01*
X137169525Y-95092044D01*
X137181431Y-95046800D01*
X137228263Y-95039656D01*
X137305344Y-95039656D01*
X137401124Y-95041773D01*
X137515600Y-95046006D01*
X137572750Y-95046006D01*
X137591800Y-95017431D01*
X137554494Y-94937263D01*
X137487025Y-94896781D01*
X137455275Y-94889638D01*
X137418763Y-94879319D01*
X137334228Y-94848759D01*
X137274300Y-94811056D01*
X137205156Y-94732563D01*
X137164939Y-94643134D01*
X137153650Y-94542769D01*
X137173891Y-94441566D01*
X137225088Y-94350681D01*
X137286824Y-94287005D01*
X137361965Y-94237792D01*
X137450513Y-94203044D01*
X137557272Y-94193916D01*
X137658475Y-94226856D01*
G37*
G36*
X135008938Y-94204631D02*
G01*
X135087783Y-94249434D01*
X135150754Y-94305526D01*
X135197850Y-94372906D01*
X135228806Y-94445534D01*
X135239125Y-94517369D01*
X135232775Y-94541975D01*
X135208963Y-94549119D01*
X135134350Y-94550706D01*
X135069263Y-94550706D01*
X135023225Y-94525306D01*
X135010525Y-94507844D01*
X134957542Y-94470339D01*
X134897019Y-94459425D01*
X134837686Y-94474705D01*
X134788275Y-94515781D01*
X134785100Y-94580869D01*
X134847013Y-94625319D01*
X134899400Y-94630081D01*
X134934325Y-94630875D01*
X134974013Y-94633256D01*
X135010525Y-94668181D01*
X135011716Y-94719775D01*
X135012113Y-94807881D01*
X134991475Y-94833281D01*
X134948613Y-94842806D01*
X134937500Y-94845188D01*
X134924800Y-94846775D01*
X134912894Y-94848362D01*
X134900988Y-94849950D01*
X134888288Y-94852331D01*
X134799388Y-94895194D01*
X134796213Y-94985681D01*
X134865269Y-95027750D01*
X134956550Y-95022194D01*
X135021638Y-94968219D01*
X135064500Y-94942819D01*
X135135938Y-94942025D01*
X135207375Y-94942819D01*
X135232775Y-94950756D01*
X135239125Y-94979331D01*
X135226425Y-95053944D01*
X135191500Y-95131731D01*
X135121253Y-95217456D01*
X135018463Y-95284131D01*
X134922022Y-95308738D01*
X134813675Y-95296831D01*
X134712075Y-95249206D01*
X134618016Y-95173006D01*
X134551738Y-95065056D01*
X134531100Y-94941231D01*
X134547372Y-94845981D01*
X134586663Y-94769781D01*
X134586663Y-94723744D01*
X134551341Y-94656275D01*
X134534275Y-94577694D01*
X134543403Y-94455059D01*
X134596188Y-94347506D01*
X134654219Y-94284183D01*
X134726715Y-94233912D01*
X134813675Y-94196694D01*
X134913291Y-94181216D01*
X135008938Y-94204631D01*
G37*
G36*
X158450359Y-94183200D02*
G01*
X158515050Y-94183994D01*
X158545212Y-94191931D01*
X158553150Y-94223681D01*
X158553150Y-94271306D01*
X158553150Y-94376081D01*
X158553150Y-94488794D01*
X158553348Y-94565192D01*
X158553944Y-94740413D01*
X158554385Y-94878260D01*
X158554649Y-94992296D01*
X158554737Y-95082519D01*
X158554341Y-95158322D01*
X158553150Y-95252381D01*
X158549975Y-95277781D01*
X158539656Y-95288894D01*
X158516637Y-95292069D01*
X158361944Y-95296655D01*
X158261932Y-95299830D01*
X158216600Y-95301594D01*
X158147544Y-95303181D01*
X158048325Y-95301594D01*
X157949503Y-95300006D01*
X157881637Y-95301594D01*
X157867350Y-95300006D01*
X157841156Y-95291275D01*
X157834012Y-95265081D01*
X157833219Y-95160703D01*
X157834012Y-95050769D01*
X157841950Y-95026956D01*
X157867350Y-95020606D01*
X158002287Y-95021797D01*
X158076900Y-95025369D01*
X158140400Y-95028544D01*
X158232475Y-95028544D01*
X158261844Y-95021400D01*
X158270575Y-94990444D01*
X158270575Y-94980125D01*
X158270575Y-94967425D01*
X158270575Y-94957106D01*
X158271986Y-94867677D01*
X158271986Y-94749673D01*
X158270575Y-94603094D01*
X158268591Y-94478078D01*
X158268987Y-94385606D01*
X158269384Y-94296309D01*
X158270575Y-94215744D01*
X158278512Y-94188756D01*
X158305500Y-94180819D01*
X158322962Y-94180819D01*
X158450359Y-94183200D01*
G37*
G36*
X139968684Y-94183200D02*
G01*
X140033375Y-94183994D01*
X140063538Y-94191931D01*
X140071475Y-94223681D01*
X140071475Y-94271306D01*
X140071475Y-94376081D01*
X140071475Y-94488794D01*
X140071673Y-94565192D01*
X140072269Y-94740413D01*
X140072710Y-94878260D01*
X140072974Y-94992296D01*
X140073063Y-95082519D01*
X140072666Y-95158322D01*
X140071475Y-95252381D01*
X140068300Y-95277781D01*
X140057981Y-95288894D01*
X140034962Y-95292069D01*
X139880269Y-95296655D01*
X139780257Y-95299830D01*
X139734925Y-95301594D01*
X139665869Y-95303181D01*
X139566650Y-95301594D01*
X139467828Y-95300006D01*
X139399962Y-95301594D01*
X139385675Y-95300006D01*
X139359481Y-95291275D01*
X139352338Y-95265081D01*
X139351544Y-95160703D01*
X139352338Y-95050769D01*
X139360275Y-95026956D01*
X139385675Y-95020606D01*
X139520613Y-95021797D01*
X139595225Y-95025369D01*
X139658725Y-95028544D01*
X139750800Y-95028544D01*
X139780169Y-95021400D01*
X139788900Y-94990444D01*
X139788900Y-94980125D01*
X139788900Y-94967425D01*
X139788900Y-94957106D01*
X139790311Y-94867677D01*
X139790311Y-94749673D01*
X139788900Y-94603094D01*
X139786916Y-94478078D01*
X139787313Y-94385606D01*
X139787709Y-94296309D01*
X139788900Y-94215744D01*
X139796837Y-94188756D01*
X139823825Y-94180819D01*
X139841288Y-94180819D01*
X139968684Y-94183200D01*
G37*
G36*
X145802350Y-94183200D02*
G01*
X145835687Y-94183994D01*
X145881725Y-94185581D01*
X145926175Y-94187962D01*
X145970625Y-94187169D01*
X146038094Y-94186375D01*
X146105562Y-94188756D01*
X146134137Y-94195106D01*
X146143662Y-94223681D01*
X146150012Y-94299881D01*
X146150012Y-94411006D01*
X146148249Y-94515781D01*
X146147190Y-94624790D01*
X146146837Y-94738031D01*
X146146837Y-94818994D01*
X146146837Y-94903131D01*
X146147631Y-94999572D01*
X146150012Y-95072994D01*
X146150806Y-95178166D01*
X146143662Y-95265081D01*
X146136519Y-95288100D01*
X146113500Y-95295244D01*
X146023012Y-95298419D01*
X145921412Y-95295244D01*
X145865850Y-95297302D01*
X145835687Y-95298419D01*
X145741231Y-95301197D01*
X145670587Y-95293656D01*
X145567576Y-95253969D01*
X145489260Y-95187823D01*
X145435637Y-95095219D01*
X145418572Y-95019019D01*
X145415000Y-94914244D01*
X145417045Y-94895194D01*
X145718212Y-94895194D01*
X145719006Y-94950756D01*
X145750756Y-95001556D01*
X145813462Y-95025369D01*
X145865850Y-95025369D01*
X145888075Y-95016638D01*
X145894425Y-94995206D01*
X145894425Y-94933294D01*
X145896012Y-94933294D01*
X145891250Y-94865031D01*
X145883312Y-94839631D01*
X145870612Y-94835398D01*
X145859500Y-94831694D01*
X145769012Y-94841219D01*
X145718212Y-94895194D01*
X145417045Y-94895194D01*
X145422541Y-94843997D01*
X145441987Y-94779306D01*
X145441987Y-94707869D01*
X145418175Y-94608562D01*
X145415182Y-94526894D01*
X145721387Y-94526894D01*
X145727737Y-94614206D01*
X145759487Y-94641194D01*
X145870612Y-94652306D01*
X145888075Y-94634844D01*
X145894425Y-94606269D01*
X145894425Y-94549119D01*
X145894425Y-94484031D01*
X145873787Y-94460219D01*
X145783300Y-94463394D01*
X145721387Y-94526894D01*
X145415182Y-94526894D01*
X145414471Y-94507491D01*
X145430875Y-94404656D01*
X145472348Y-94315955D01*
X145545969Y-94243525D01*
X145637052Y-94196098D01*
X145730912Y-94182406D01*
X145765044Y-94182406D01*
X145802350Y-94183200D01*
G37*
G36*
X162085337Y-94183200D02*
G01*
X162118675Y-94183994D01*
X162164712Y-94185581D01*
X162209162Y-94187962D01*
X162253612Y-94187169D01*
X162321081Y-94186375D01*
X162388550Y-94188756D01*
X162417125Y-94195106D01*
X162426650Y-94223681D01*
X162433000Y-94299881D01*
X162433000Y-94411006D01*
X162431236Y-94515781D01*
X162430178Y-94624790D01*
X162429825Y-94738031D01*
X162429825Y-94818994D01*
X162429825Y-94903131D01*
X162430619Y-94999572D01*
X162433000Y-95072994D01*
X162433794Y-95178166D01*
X162426650Y-95265081D01*
X162419506Y-95288100D01*
X162396487Y-95295244D01*
X162306000Y-95298419D01*
X162204400Y-95295244D01*
X162148837Y-95297302D01*
X162118675Y-95298419D01*
X162024219Y-95301197D01*
X161953575Y-95293656D01*
X161850564Y-95253969D01*
X161772247Y-95187823D01*
X161718625Y-95095219D01*
X161701559Y-95019019D01*
X161697987Y-94914244D01*
X161700032Y-94895194D01*
X162001200Y-94895194D01*
X162001994Y-94950756D01*
X162033744Y-95001556D01*
X162096450Y-95025369D01*
X162148837Y-95025369D01*
X162171062Y-95016638D01*
X162177412Y-94995206D01*
X162177412Y-94933294D01*
X162179000Y-94933294D01*
X162174237Y-94865031D01*
X162166300Y-94839631D01*
X162153600Y-94835398D01*
X162142487Y-94831694D01*
X162052000Y-94841219D01*
X162001200Y-94895194D01*
X161700032Y-94895194D01*
X161705528Y-94843997D01*
X161724975Y-94779306D01*
X161724975Y-94707869D01*
X161701162Y-94608562D01*
X161698169Y-94526894D01*
X162004375Y-94526894D01*
X162010725Y-94614206D01*
X162042475Y-94641194D01*
X162153600Y-94652306D01*
X162171062Y-94634844D01*
X162177412Y-94606269D01*
X162177412Y-94549119D01*
X162177412Y-94484031D01*
X162156775Y-94460219D01*
X162066287Y-94463394D01*
X162004375Y-94526894D01*
X161698169Y-94526894D01*
X161697458Y-94507491D01*
X161713862Y-94404656D01*
X161755336Y-94315955D01*
X161828956Y-94243525D01*
X161920039Y-94196098D01*
X162013900Y-94182406D01*
X162048031Y-94182406D01*
X162085337Y-94183200D01*
G37*
G36*
X163942536Y-94192108D02*
G01*
X164017678Y-94225974D01*
X164080825Y-94282419D01*
X164140092Y-94360383D01*
X164182425Y-94435524D01*
X164207825Y-94507844D01*
X164222112Y-94615794D01*
X164223700Y-94741206D01*
X164221319Y-94866619D01*
X164214175Y-94941231D01*
X164177662Y-95061881D01*
X164120909Y-95154750D01*
X164061775Y-95223806D01*
X164009387Y-95265478D01*
X163947475Y-95292069D01*
X163889928Y-95301197D01*
X163809362Y-95303181D01*
X163713716Y-95286116D01*
X163623625Y-95238094D01*
X163540281Y-95153956D01*
X163490275Y-95047594D01*
X163489481Y-95019019D01*
X163514087Y-94999969D01*
X163634737Y-94950756D01*
X163685537Y-94938056D01*
X163703794Y-94937263D01*
X163717287Y-94952344D01*
X163755387Y-95009494D01*
X163848256Y-95046006D01*
X163925250Y-94980919D01*
X163930012Y-94972981D01*
X163950650Y-94876144D01*
X163952237Y-94828519D01*
X163955412Y-94753906D01*
X163952237Y-94680088D01*
X163949062Y-94606269D01*
X163941125Y-94553881D01*
X163901437Y-94472919D01*
X163836747Y-94436009D01*
X163766500Y-94461806D01*
X163715700Y-94526894D01*
X163697444Y-94547531D01*
X163669662Y-94545944D01*
X163609734Y-94525306D01*
X163502975Y-94482444D01*
X163481544Y-94465775D01*
X163482337Y-94441169D01*
X163498212Y-94399894D01*
X163556156Y-94304644D01*
X163645850Y-94229237D01*
X163750625Y-94187169D01*
X163855400Y-94180819D01*
X163942536Y-94192108D01*
G37*
G36*
X151056799Y-94192108D02*
G01*
X151131940Y-94225974D01*
X151195087Y-94282419D01*
X151254354Y-94360383D01*
X151296687Y-94435524D01*
X151322087Y-94507844D01*
X151336375Y-94615794D01*
X151337962Y-94741206D01*
X151335581Y-94866619D01*
X151328437Y-94941231D01*
X151291925Y-95061881D01*
X151235172Y-95154750D01*
X151176037Y-95223806D01*
X151123650Y-95265478D01*
X151061737Y-95292069D01*
X151004191Y-95301197D01*
X150923625Y-95303181D01*
X150827978Y-95286116D01*
X150737887Y-95238094D01*
X150654544Y-95153956D01*
X150604537Y-95047594D01*
X150603744Y-95019019D01*
X150628350Y-94999969D01*
X150749000Y-94950756D01*
X150799800Y-94938056D01*
X150818056Y-94937263D01*
X150831550Y-94952344D01*
X150869650Y-95009494D01*
X150962519Y-95046006D01*
X151039512Y-94980919D01*
X151044275Y-94972981D01*
X151064912Y-94876144D01*
X151066500Y-94828519D01*
X151069675Y-94753906D01*
X151066500Y-94680088D01*
X151063325Y-94606269D01*
X151055387Y-94553881D01*
X151015700Y-94472919D01*
X150951009Y-94436009D01*
X150880762Y-94461806D01*
X150829962Y-94526894D01*
X150811706Y-94547531D01*
X150783925Y-94545944D01*
X150723997Y-94525306D01*
X150617237Y-94482444D01*
X150595806Y-94465775D01*
X150596600Y-94441169D01*
X150612475Y-94399894D01*
X150670419Y-94304644D01*
X150760112Y-94229237D01*
X150864887Y-94187169D01*
X150969662Y-94180819D01*
X151056799Y-94192108D01*
G37*
G36*
X136671050Y-94191931D02*
G01*
X136766300Y-94212172D01*
X136848850Y-94263369D01*
X136907191Y-94325281D01*
X136952038Y-94396719D01*
X136996488Y-94511416D01*
X137012363Y-94630081D01*
X137013553Y-94753113D01*
X137013950Y-94826931D01*
X137009188Y-94909878D01*
X136998075Y-94977744D01*
X136952831Y-95091250D01*
X136874250Y-95199994D01*
X136793288Y-95266669D01*
X136690497Y-95298419D01*
X136628188Y-95298419D01*
X136569450Y-95298419D01*
X136475391Y-95269050D01*
X136390063Y-95206344D01*
X136329738Y-95131026D01*
X136286346Y-95038422D01*
X136259888Y-94928531D01*
X136250363Y-94850744D01*
X136248422Y-94769428D01*
X136251068Y-94675766D01*
X136252344Y-94657069D01*
X136512300Y-94657069D01*
X136513888Y-94761844D01*
X136513888Y-94882494D01*
X136536113Y-94976156D01*
X136575800Y-95028544D01*
X136628188Y-95046006D01*
X136681766Y-95028941D01*
X136721850Y-94977744D01*
X136745663Y-94872969D01*
X136746456Y-94739222D01*
X136745663Y-94642781D01*
X136725025Y-94526894D01*
X136688513Y-94469744D01*
X136628981Y-94445137D01*
X136571038Y-94469744D01*
X136523413Y-94566581D01*
X136512300Y-94657069D01*
X136252344Y-94657069D01*
X136258300Y-94569756D01*
X136277747Y-94464187D01*
X136313863Y-94372906D01*
X136369954Y-94295119D01*
X136442979Y-94237440D01*
X136532938Y-94199869D01*
X136590484Y-94191534D01*
X136671050Y-94191931D01*
G37*
G36*
X151934862Y-94191931D02*
G01*
X152019529Y-94220506D01*
X152093612Y-94274481D01*
X152157112Y-94353856D01*
X152205443Y-94447342D01*
X152234018Y-94547884D01*
X152242837Y-94655481D01*
X152242837Y-94748350D01*
X152242837Y-94845981D01*
X152236487Y-94918213D01*
X152220612Y-94992031D01*
X152188686Y-95072288D01*
X152141590Y-95147959D01*
X152079325Y-95219044D01*
X152020984Y-95262700D01*
X151947562Y-95288894D01*
X151856281Y-95296948D01*
X151839612Y-95298419D01*
X151725136Y-95276723D01*
X151629357Y-95217985D01*
X151552275Y-95122206D01*
X151513117Y-95040185D01*
X151488775Y-94952873D01*
X151479250Y-94860269D01*
X151479250Y-94801531D01*
X151479250Y-94758669D01*
X151738012Y-94758669D01*
X151739600Y-94847966D01*
X151744362Y-94906306D01*
X151766587Y-94976156D01*
X151856281Y-95042037D01*
X151947562Y-94979331D01*
X151969787Y-94904719D01*
X151977372Y-94794123D01*
X151976843Y-94686702D01*
X151968200Y-94582456D01*
X151923750Y-94474506D01*
X151856281Y-94441169D01*
X151788812Y-94476094D01*
X151745950Y-94584044D01*
X151739600Y-94653894D01*
X151738012Y-94758669D01*
X151479250Y-94758669D01*
X151479250Y-94742794D01*
X151479250Y-94703106D01*
X151483219Y-94576900D01*
X151507825Y-94458631D01*
X151542750Y-94370128D01*
X151587200Y-94304644D01*
X151659530Y-94242235D01*
X151741584Y-94202647D01*
X151833362Y-94185879D01*
X151934862Y-94191931D01*
G37*
G36*
X163031487Y-94191931D02*
G01*
X163116154Y-94220506D01*
X163190237Y-94274481D01*
X163253737Y-94353856D01*
X163302068Y-94447342D01*
X163330643Y-94547884D01*
X163339462Y-94655481D01*
X163339462Y-94748350D01*
X163339462Y-94845981D01*
X163333112Y-94918213D01*
X163317237Y-94992031D01*
X163285311Y-95072288D01*
X163238215Y-95147959D01*
X163175950Y-95219044D01*
X163117609Y-95262700D01*
X163044187Y-95288894D01*
X162952906Y-95296948D01*
X162936237Y-95298419D01*
X162821761Y-95276723D01*
X162725982Y-95217985D01*
X162648900Y-95122206D01*
X162609742Y-95040185D01*
X162585400Y-94952873D01*
X162575875Y-94860269D01*
X162575875Y-94801531D01*
X162575875Y-94758669D01*
X162834637Y-94758669D01*
X162836225Y-94847966D01*
X162840987Y-94906306D01*
X162863212Y-94976156D01*
X162952906Y-95042037D01*
X163044187Y-94979331D01*
X163066412Y-94904719D01*
X163073997Y-94794123D01*
X163073468Y-94686702D01*
X163064825Y-94582456D01*
X163020375Y-94474506D01*
X162952906Y-94441169D01*
X162885437Y-94476094D01*
X162842575Y-94584044D01*
X162836225Y-94653894D01*
X162834637Y-94758669D01*
X162575875Y-94758669D01*
X162575875Y-94742794D01*
X162575875Y-94703106D01*
X162579844Y-94576900D01*
X162604450Y-94458631D01*
X162639375Y-94370128D01*
X162683825Y-94304644D01*
X162756155Y-94242235D01*
X162838209Y-94202647D01*
X162929987Y-94185879D01*
X163031487Y-94191931D01*
G37*
G36*
X144273587Y-94190344D02*
G01*
X144292637Y-94191931D01*
X144304544Y-94198281D01*
X144311687Y-94208600D01*
X144318037Y-94228444D01*
X144343437Y-94334409D01*
X144362487Y-94414181D01*
X144379156Y-94486413D01*
X144397412Y-94570550D01*
X144413287Y-94642781D01*
X144427575Y-94658656D01*
X144437100Y-94645956D01*
X144438687Y-94638813D01*
X144441069Y-94631669D01*
X144441862Y-94625319D01*
X144456944Y-94560231D01*
X144473612Y-94484825D01*
X144489487Y-94420531D01*
X144514887Y-94318137D01*
X144540287Y-94218919D01*
X144573625Y-94190344D01*
X144622044Y-94187169D01*
X144676812Y-94183994D01*
X144786350Y-94188756D01*
X144810956Y-94199869D01*
X144813337Y-94226856D01*
X144808575Y-94247494D01*
X144802225Y-94269719D01*
X144797462Y-94290356D01*
X144779206Y-94376875D01*
X144760156Y-94466569D01*
X144742694Y-94552294D01*
X144723644Y-94641988D01*
X144705387Y-94728506D01*
X144695735Y-94768829D01*
X144678209Y-94842806D01*
X144652809Y-94950439D01*
X144619535Y-95091726D01*
X144578387Y-95266669D01*
X144565687Y-95293656D01*
X144537112Y-95301594D01*
X144427575Y-95301594D01*
X144319625Y-95301594D01*
X144290256Y-95294450D01*
X144276762Y-95266669D01*
X144271206Y-95235713D01*
X144264062Y-95207931D01*
X144232842Y-95074581D01*
X144206912Y-94964515D01*
X144186275Y-94877731D01*
X144171106Y-94808587D01*
X144148881Y-94700637D01*
X144119600Y-94553881D01*
X144092436Y-94419120D01*
X144070211Y-94315403D01*
X144052925Y-94242731D01*
X144051337Y-94196694D01*
X144091025Y-94185581D01*
X144166034Y-94183597D01*
X144273587Y-94190344D01*
G37*
G36*
X138771313Y-94191931D02*
G01*
X138776869Y-94206219D01*
X138782425Y-94220506D01*
X138831638Y-94333219D01*
X138845925Y-94347506D01*
X138861800Y-94334806D01*
X138903075Y-94237969D01*
X138934825Y-94184787D01*
X138996738Y-94176056D01*
X139055475Y-94177247D01*
X139187238Y-94180819D01*
X139201525Y-94182406D01*
X139211050Y-94199869D01*
X139203113Y-94220506D01*
X139141994Y-94368938D01*
X139114213Y-94433231D01*
X139082463Y-94503875D01*
X139044363Y-94587219D01*
X139012613Y-94658656D01*
X138998325Y-94717394D01*
X138993739Y-94801355D01*
X138990564Y-94898722D01*
X138988800Y-95009494D01*
X138988800Y-95057119D01*
X138984831Y-95180944D01*
X138988800Y-95266669D01*
X138988800Y-95279369D01*
X138958638Y-95315881D01*
X138931650Y-95319056D01*
X138851084Y-95319056D01*
X138796713Y-95319056D01*
X138736388Y-95312706D01*
X138714956Y-95304769D01*
X138707813Y-95280956D01*
X138707813Y-95268256D01*
X138707118Y-95106034D01*
X138706622Y-94984491D01*
X138706324Y-94903627D01*
X138706225Y-94863444D01*
X138702256Y-94788831D01*
X138690350Y-94685644D01*
X138680825Y-94655481D01*
X138635581Y-94549912D01*
X138614150Y-94499906D01*
X138579225Y-94426087D01*
X138549063Y-94354650D01*
X138518106Y-94276862D01*
X138487150Y-94203044D01*
X138482388Y-94187169D01*
X138495088Y-94166531D01*
X138618119Y-94165738D01*
X138730038Y-94164944D01*
X138771313Y-94191931D01*
G37*
G36*
X150114000Y-94183200D02*
G01*
X150166387Y-94182406D01*
X150204487Y-94190344D01*
X150218775Y-94226856D01*
X150233062Y-94290356D01*
X150264416Y-94415868D01*
X150293387Y-94536816D01*
X150319978Y-94653199D01*
X150344187Y-94765019D01*
X150356887Y-94824352D01*
X150375937Y-94916625D01*
X150396773Y-95017630D01*
X150414831Y-95103156D01*
X150432095Y-95179753D01*
X150450550Y-95253969D01*
X150449756Y-95286513D01*
X150417212Y-95298419D01*
X150351331Y-95302387D01*
X150284656Y-95300006D01*
X150217187Y-95296831D01*
X150183850Y-95269844D01*
X150176706Y-95242063D01*
X150169562Y-95214281D01*
X150142575Y-95190469D01*
X150066375Y-95191823D01*
X150053278Y-95192056D01*
X149972712Y-95193644D01*
X149944137Y-95215869D01*
X149933025Y-95257144D01*
X149898100Y-95288894D01*
X149872700Y-95291275D01*
X149850475Y-95293656D01*
X149771894Y-95296038D01*
X149701250Y-95293656D01*
X149676644Y-95287306D01*
X149665531Y-95273019D01*
X149667912Y-95247619D01*
X149672675Y-95227775D01*
X149679025Y-95204756D01*
X149683787Y-95184119D01*
X149696487Y-95125580D01*
X149712362Y-95048388D01*
X149729428Y-94965441D01*
X149745700Y-94889638D01*
X149747279Y-94882494D01*
X150025100Y-94882494D01*
X150028275Y-94903131D01*
X150048912Y-94909481D01*
X150066375Y-94909481D01*
X150074312Y-94907894D01*
X150090187Y-94890431D01*
X150066375Y-94782481D01*
X150056850Y-94774544D01*
X150047325Y-94782481D01*
X150025100Y-94882494D01*
X149747279Y-94882494D01*
X149761178Y-94819589D01*
X149775862Y-94753906D01*
X149783355Y-94720886D01*
X149799484Y-94651036D01*
X149824249Y-94544356D01*
X149857650Y-94400846D01*
X149899687Y-94220506D01*
X149913181Y-94190344D01*
X149944137Y-94182406D01*
X150058437Y-94182406D01*
X150060025Y-94182406D01*
X150061612Y-94182406D01*
X150114000Y-94183200D01*
G37*
G36*
X164812662Y-94183200D02*
G01*
X164865050Y-94182406D01*
X164903150Y-94190344D01*
X164917437Y-94226856D01*
X164931725Y-94290356D01*
X164963078Y-94415868D01*
X164992050Y-94536816D01*
X165018641Y-94653199D01*
X165042850Y-94765019D01*
X165055550Y-94824352D01*
X165074600Y-94916625D01*
X165095436Y-95017630D01*
X165113494Y-95103156D01*
X165130758Y-95179753D01*
X165149212Y-95253969D01*
X165148419Y-95286513D01*
X165115875Y-95298419D01*
X165049994Y-95302387D01*
X164983319Y-95300006D01*
X164915850Y-95296831D01*
X164882512Y-95269844D01*
X164875369Y-95242063D01*
X164868225Y-95214281D01*
X164841237Y-95190469D01*
X164765037Y-95191823D01*
X164751941Y-95192056D01*
X164671375Y-95193644D01*
X164642800Y-95215869D01*
X164631687Y-95257144D01*
X164596762Y-95288894D01*
X164571362Y-95291275D01*
X164549137Y-95293656D01*
X164470556Y-95296038D01*
X164399912Y-95293656D01*
X164375306Y-95287306D01*
X164364194Y-95273019D01*
X164366575Y-95247619D01*
X164371337Y-95227775D01*
X164377687Y-95204756D01*
X164382450Y-95184119D01*
X164395150Y-95125580D01*
X164411025Y-95048388D01*
X164428091Y-94965441D01*
X164444362Y-94889638D01*
X164445941Y-94882494D01*
X164723762Y-94882494D01*
X164726937Y-94903131D01*
X164747575Y-94909481D01*
X164765037Y-94909481D01*
X164772975Y-94907894D01*
X164788850Y-94890431D01*
X164765037Y-94782481D01*
X164755512Y-94774544D01*
X164745987Y-94782481D01*
X164723762Y-94882494D01*
X164445941Y-94882494D01*
X164459841Y-94819589D01*
X164474525Y-94753906D01*
X164482018Y-94720886D01*
X164498147Y-94651036D01*
X164522912Y-94544356D01*
X164556313Y-94400846D01*
X164598350Y-94220506D01*
X164611844Y-94190344D01*
X164642800Y-94182406D01*
X164757100Y-94182406D01*
X164758687Y-94182406D01*
X164760275Y-94182406D01*
X164812662Y-94183200D01*
G37*
G36*
X160758187Y-94198281D02*
G01*
X160841443Y-94223681D01*
X160917643Y-94266015D01*
X160986787Y-94325281D01*
X161039969Y-94401878D01*
X161056637Y-94488794D01*
X161042526Y-94593040D01*
X161000193Y-94681410D01*
X160929637Y-94753906D01*
X160841928Y-94817406D01*
X160756600Y-94871381D01*
X160669287Y-94942819D01*
X160645475Y-94979331D01*
X160649444Y-95022987D01*
X160689925Y-95039656D01*
X160742312Y-95022194D01*
X160782000Y-95000763D01*
X160813750Y-94978538D01*
X160850262Y-94949963D01*
X160882012Y-94925356D01*
X160923287Y-94893606D01*
X160958212Y-94895194D01*
X160974087Y-94911069D01*
X161029650Y-94970997D01*
X161069337Y-95014256D01*
X161091562Y-95039656D01*
X161089975Y-95076169D01*
X161080450Y-95085694D01*
X160985994Y-95171419D01*
X160896300Y-95238094D01*
X160794303Y-95282544D01*
X160675637Y-95295244D01*
X160566100Y-95274606D01*
X160505775Y-95249206D01*
X160409731Y-95176181D01*
X160359725Y-95084106D01*
X160348260Y-94993619D01*
X160360431Y-94908423D01*
X160396237Y-94828519D01*
X160480375Y-94734856D01*
X160571656Y-94671753D01*
X160658175Y-94625319D01*
X160739137Y-94555469D01*
X160748662Y-94509431D01*
X160731200Y-94483238D01*
X160703419Y-94466569D01*
X160669287Y-94471331D01*
X160607375Y-94503081D01*
X160545859Y-94547531D01*
X160485137Y-94595156D01*
X160460531Y-94607856D01*
X160437512Y-94591981D01*
X160372425Y-94528481D01*
X160291462Y-94447519D01*
X160280350Y-94426881D01*
X160293050Y-94406244D01*
X160302575Y-94398306D01*
X160414097Y-94304247D01*
X160459737Y-94266544D01*
X160549343Y-94213098D01*
X160648826Y-94190344D01*
X160758187Y-94198281D01*
G37*
G36*
X153687462Y-94198281D02*
G01*
X153770718Y-94223681D01*
X153846918Y-94266015D01*
X153916062Y-94325281D01*
X153969244Y-94401878D01*
X153985912Y-94488794D01*
X153971801Y-94593040D01*
X153929468Y-94681410D01*
X153858912Y-94753906D01*
X153771203Y-94817406D01*
X153685875Y-94871381D01*
X153598562Y-94942819D01*
X153574750Y-94979331D01*
X153578719Y-95022987D01*
X153619200Y-95039656D01*
X153671587Y-95022194D01*
X153711275Y-95000763D01*
X153743025Y-94978538D01*
X153779537Y-94949963D01*
X153811287Y-94925356D01*
X153852562Y-94893606D01*
X153887487Y-94895194D01*
X153903362Y-94911069D01*
X153958925Y-94970997D01*
X153998612Y-95014256D01*
X154020837Y-95039656D01*
X154019250Y-95076169D01*
X154009725Y-95085694D01*
X153915269Y-95171419D01*
X153825575Y-95238094D01*
X153723578Y-95282544D01*
X153604912Y-95295244D01*
X153495375Y-95274606D01*
X153435050Y-95249206D01*
X153339006Y-95176181D01*
X153289000Y-95084106D01*
X153277535Y-94993619D01*
X153289706Y-94908423D01*
X153325512Y-94828519D01*
X153409650Y-94734856D01*
X153500931Y-94671753D01*
X153587450Y-94625319D01*
X153668412Y-94555469D01*
X153677937Y-94509431D01*
X153660475Y-94483238D01*
X153632694Y-94466569D01*
X153598562Y-94471331D01*
X153536650Y-94503081D01*
X153475134Y-94547531D01*
X153414412Y-94595156D01*
X153389806Y-94607856D01*
X153366787Y-94591981D01*
X153301700Y-94528481D01*
X153220737Y-94447519D01*
X153209625Y-94426881D01*
X153222325Y-94406244D01*
X153231850Y-94398306D01*
X153343372Y-94304247D01*
X153389012Y-94266544D01*
X153478618Y-94213098D01*
X153578101Y-94190344D01*
X153687462Y-94198281D01*
G37*
G36*
X157440312Y-94209394D02*
G01*
X157496272Y-94238366D01*
X157546675Y-94284006D01*
X157626050Y-94392353D01*
X157670500Y-94495144D01*
X157687169Y-94568963D01*
X157692725Y-94638019D01*
X157692725Y-94730887D01*
X157692725Y-94838044D01*
X157682605Y-94943811D01*
X157652244Y-95042037D01*
X157602039Y-95133120D01*
X157532387Y-95217456D01*
X157480000Y-95257937D01*
X157418087Y-95284131D01*
X157335141Y-95296434D01*
X157245050Y-95292069D01*
X157130750Y-95249206D01*
X157036691Y-95170228D01*
X156973587Y-95063469D01*
X156947394Y-94980919D01*
X156934694Y-94944406D01*
X156900562Y-94936469D01*
X156849762Y-94930119D01*
X156826744Y-94921388D01*
X156819600Y-94899956D01*
X156819600Y-94892812D01*
X156819600Y-94887256D01*
X156819997Y-94819788D01*
X156827537Y-94699931D01*
X156829125Y-94687231D01*
X156833887Y-94680088D01*
X156841825Y-94676119D01*
X156854525Y-94672944D01*
X156876750Y-94672944D01*
X156993828Y-94673341D01*
X157052962Y-94671356D01*
X157167262Y-94670562D01*
X157294262Y-94674531D01*
X157327600Y-94683263D01*
X157335537Y-94717394D01*
X157335537Y-94772956D01*
X157335537Y-94857094D01*
X157333950Y-94888844D01*
X157325219Y-94905512D01*
X157308550Y-94913450D01*
X157275212Y-94914244D01*
X157205362Y-94917419D01*
X157191075Y-94942819D01*
X157249812Y-95022194D01*
X157315694Y-95042831D01*
X157375225Y-95011081D01*
X157419675Y-94909481D01*
X157428671Y-94798003D01*
X157428142Y-94687937D01*
X157418087Y-94579281D01*
X157375225Y-94476094D01*
X157311725Y-94441169D01*
X157243462Y-94464981D01*
X157189487Y-94531656D01*
X157175200Y-94550706D01*
X157151387Y-94549119D01*
X157130750Y-94544356D01*
X157036294Y-94507447D01*
X156981525Y-94485619D01*
X156960887Y-94471331D01*
X156962475Y-94447519D01*
X156990653Y-94375288D01*
X157021212Y-94326869D01*
X157095119Y-94256137D01*
X157175024Y-94211158D01*
X157260925Y-94191931D01*
X157270450Y-94191137D01*
X157278387Y-94190344D01*
X157356969Y-94189550D01*
X157440312Y-94209394D01*
G37*
G36*
X165947725Y-94185581D02*
G01*
X165974712Y-94212569D01*
X165972728Y-94302263D01*
X165969950Y-94390369D01*
X165962806Y-94410212D01*
X165941375Y-94418944D01*
X165906450Y-94420531D01*
X165865969Y-94420531D01*
X165815962Y-94422119D01*
X165764369Y-94433231D01*
X165752462Y-94485619D01*
X165750699Y-94561819D01*
X165749640Y-94690935D01*
X165749287Y-94872969D01*
X165760400Y-94941231D01*
X165787387Y-94992031D01*
X165851681Y-95027750D01*
X165922325Y-95006319D01*
X165945344Y-94985681D01*
X165976300Y-94972981D01*
X166072344Y-94977744D01*
X166176325Y-94982506D01*
X166193787Y-94985681D01*
X166208075Y-95012669D01*
X166187437Y-95069819D01*
X166135050Y-95153956D01*
X166082662Y-95219044D01*
X166026306Y-95262700D01*
X165958837Y-95288894D01*
X165833425Y-95300006D01*
X165735000Y-95282544D01*
X165679834Y-95253175D01*
X165622287Y-95203169D01*
X165566019Y-95130673D01*
X165526332Y-95048652D01*
X165503225Y-94957106D01*
X165490128Y-94844791D01*
X165485762Y-94714219D01*
X165485762Y-94653497D01*
X165485762Y-94487206D01*
X165485762Y-94452281D01*
X165478619Y-94432438D01*
X165458775Y-94425294D01*
X165336537Y-94418944D01*
X165301612Y-94410212D01*
X165293675Y-94377669D01*
X165292881Y-94303850D01*
X165293675Y-94222094D01*
X165300819Y-94195106D01*
X165328600Y-94188756D01*
X165393687Y-94187169D01*
X165467506Y-94187169D01*
X165622287Y-94187169D01*
X165751581Y-94185405D01*
X165841010Y-94184347D01*
X165890575Y-94183994D01*
X165947725Y-94185581D01*
G37*
G36*
X141770100Y-94185581D02*
G01*
X141797087Y-94212569D01*
X141795103Y-94302263D01*
X141792325Y-94390369D01*
X141785181Y-94410212D01*
X141763750Y-94418944D01*
X141728825Y-94420531D01*
X141688344Y-94420531D01*
X141638338Y-94422119D01*
X141586744Y-94433231D01*
X141574837Y-94485619D01*
X141573074Y-94561819D01*
X141572015Y-94690935D01*
X141571662Y-94872969D01*
X141582775Y-94941231D01*
X141609762Y-94992031D01*
X141674056Y-95027750D01*
X141744700Y-95006319D01*
X141767719Y-94985681D01*
X141798675Y-94972981D01*
X141894719Y-94977744D01*
X141998700Y-94982506D01*
X142016163Y-94985681D01*
X142030450Y-95012669D01*
X142009812Y-95069819D01*
X141957425Y-95153956D01*
X141905037Y-95219044D01*
X141848681Y-95262700D01*
X141781212Y-95288894D01*
X141655800Y-95300006D01*
X141557375Y-95282544D01*
X141502209Y-95253175D01*
X141444663Y-95203169D01*
X141388394Y-95130673D01*
X141348707Y-95048652D01*
X141325600Y-94957106D01*
X141312503Y-94844791D01*
X141308137Y-94714219D01*
X141308137Y-94653497D01*
X141308137Y-94487206D01*
X141308137Y-94452281D01*
X141300994Y-94432438D01*
X141281150Y-94425294D01*
X141158912Y-94418944D01*
X141123988Y-94410212D01*
X141116050Y-94377669D01*
X141115256Y-94303850D01*
X141116050Y-94222094D01*
X141123194Y-94195106D01*
X141150975Y-94188756D01*
X141216063Y-94187169D01*
X141289881Y-94187169D01*
X141444663Y-94187169D01*
X141573956Y-94185405D01*
X141663385Y-94184347D01*
X141712950Y-94183994D01*
X141770100Y-94185581D01*
G37*
G36*
X159397700Y-94228444D02*
G01*
X159410400Y-94252256D01*
X159449294Y-94341950D01*
X159494537Y-94445931D01*
X159534225Y-94534831D01*
X159560022Y-94591584D01*
X159602487Y-94682469D01*
X159619950Y-94698344D01*
X159626300Y-94696756D01*
X159630269Y-94692788D01*
X159633444Y-94686438D01*
X159637412Y-94680881D01*
X159643762Y-94665006D01*
X159719962Y-94508902D01*
X159770762Y-94404656D01*
X159796162Y-94352269D01*
X159821562Y-94302262D01*
X159846962Y-94255431D01*
X159899350Y-94223681D01*
X159954912Y-94223681D01*
X160021587Y-94222887D01*
X160077944Y-94222094D01*
X160112075Y-94223681D01*
X160135094Y-94231619D01*
X160140650Y-94255431D01*
X160140650Y-94307819D01*
X160140650Y-94360206D01*
X160140650Y-94423001D01*
X160140650Y-94552117D01*
X160140650Y-94747556D01*
X160139459Y-94840623D01*
X160135887Y-94980125D01*
X160133109Y-95124389D01*
X160134300Y-95231744D01*
X160132712Y-95252381D01*
X160112075Y-95273019D01*
X160086675Y-95274606D01*
X160017619Y-95276194D01*
X159921575Y-95274606D01*
X159891412Y-95266669D01*
X159883475Y-95238094D01*
X159883475Y-95220631D01*
X159881711Y-95078462D01*
X159880653Y-94973687D01*
X159880300Y-94906306D01*
X159878712Y-94880906D01*
X159870775Y-94866619D01*
X159858075Y-94874556D01*
X159850137Y-94890431D01*
X159816006Y-94968616D01*
X159792987Y-95022194D01*
X159764412Y-95090456D01*
X159724725Y-95119031D01*
X159619156Y-95124191D01*
X159540575Y-95123794D01*
X159483425Y-95080931D01*
X159438975Y-94966631D01*
X159427069Y-94933294D01*
X159410400Y-94892019D01*
X159394525Y-94861856D01*
X159384206Y-94855506D01*
X159378650Y-94866619D01*
X159374240Y-94950580D01*
X159371594Y-95066997D01*
X159370712Y-95215869D01*
X159364362Y-95249206D01*
X159331025Y-95257144D01*
X159256016Y-95261113D01*
X159183387Y-95260319D01*
X159141319Y-95250794D01*
X159134175Y-95207931D01*
X159133117Y-95059765D01*
X159132058Y-94947581D01*
X159131000Y-94871381D01*
X159128619Y-94769781D01*
X159124650Y-94668181D01*
X159125444Y-94584441D01*
X159127825Y-94453869D01*
X159129412Y-94323694D01*
X159127825Y-94241144D01*
X159132587Y-94214950D01*
X159157987Y-94207806D01*
X159260381Y-94207806D01*
X159362775Y-94207806D01*
X159397700Y-94228444D01*
G37*
G36*
X148782087Y-94228444D02*
G01*
X148794787Y-94252256D01*
X148833681Y-94341950D01*
X148878925Y-94445931D01*
X148918612Y-94534831D01*
X148944409Y-94591584D01*
X148986875Y-94682469D01*
X149004337Y-94698344D01*
X149010687Y-94696756D01*
X149014656Y-94692788D01*
X149017831Y-94686438D01*
X149021800Y-94680881D01*
X149028150Y-94665006D01*
X149104350Y-94508902D01*
X149155150Y-94404656D01*
X149180550Y-94352269D01*
X149205950Y-94302262D01*
X149231350Y-94255431D01*
X149283737Y-94223681D01*
X149339300Y-94223681D01*
X149405975Y-94222887D01*
X149462331Y-94222094D01*
X149496462Y-94223681D01*
X149519481Y-94231619D01*
X149525037Y-94255431D01*
X149525037Y-94307819D01*
X149525037Y-94360206D01*
X149525037Y-94423001D01*
X149525037Y-94552117D01*
X149525037Y-94747556D01*
X149523847Y-94840623D01*
X149520275Y-94980125D01*
X149517497Y-95124389D01*
X149518687Y-95231744D01*
X149517100Y-95252381D01*
X149496462Y-95273019D01*
X149471062Y-95274606D01*
X149402006Y-95276194D01*
X149305962Y-95274606D01*
X149275800Y-95266669D01*
X149267862Y-95238094D01*
X149267862Y-95220631D01*
X149266099Y-95078462D01*
X149265040Y-94973687D01*
X149264687Y-94906306D01*
X149263100Y-94880906D01*
X149255162Y-94866619D01*
X149242462Y-94874556D01*
X149234525Y-94890431D01*
X149200394Y-94968616D01*
X149177375Y-95022194D01*
X149148800Y-95090456D01*
X149109112Y-95119031D01*
X149003544Y-95124191D01*
X148924962Y-95123794D01*
X148867812Y-95080931D01*
X148823362Y-94966631D01*
X148811456Y-94933294D01*
X148794787Y-94892019D01*
X148778912Y-94861856D01*
X148768594Y-94855506D01*
X148763037Y-94866619D01*
X148758628Y-94950580D01*
X148755982Y-95066997D01*
X148755100Y-95215869D01*
X148748750Y-95249206D01*
X148715412Y-95257144D01*
X148640403Y-95261113D01*
X148567775Y-95260319D01*
X148525706Y-95250794D01*
X148518562Y-95207931D01*
X148517504Y-95059765D01*
X148516446Y-94947581D01*
X148515387Y-94871381D01*
X148513006Y-94769781D01*
X148509037Y-94668181D01*
X148509831Y-94584441D01*
X148512212Y-94453869D01*
X148513800Y-94323694D01*
X148512212Y-94241144D01*
X148516975Y-94214950D01*
X148542375Y-94207806D01*
X148644769Y-94207806D01*
X148747162Y-94207806D01*
X148782087Y-94228444D01*
G37*
D10*
%TO.C,BT1*%
X123320000Y-95134000D02*
X123320000Y-96384000D01*
X125470000Y-95134000D02*
X123320000Y-95134000D01*
X132820000Y-96884000D02*
X131070000Y-95134000D01*
X132820000Y-98884000D02*
X132820000Y-96884000D01*
X132820000Y-104884000D02*
X132820000Y-106884000D01*
X123320000Y-108634000D02*
X123320000Y-107384000D01*
X125470000Y-108634000D02*
X123320000Y-108634000D01*
X131070000Y-108634000D02*
X132820000Y-106884000D01*
%TD*%
M02*
