%TF.GenerationSoftware,KiCad,Pcbnew,7.0.2*%
%TF.CreationDate,2023-07-28T16:56:03-04:00*%
%TF.ProjectId,dispocam-hub,64697370-6f63-4616-9d2d-6875622e6b69,rev?*%
%TF.SameCoordinates,Original*%
%TF.FileFunction,Copper,L1,Top*%
%TF.FilePolarity,Positive*%
%FSLAX46Y46*%
G04 Gerber Fmt 4.6, Leading zero omitted, Abs format (unit mm)*
G04 Created by KiCad (PCBNEW 7.0.2) date 2023-07-28 16:56:03*
%MOMM*%
%LPD*%
G01*
G04 APERTURE LIST*
G04 Aperture macros list*
%AMRoundRect*
0 Rectangle with rounded corners*
0 $1 Rounding radius*
0 $2 $3 $4 $5 $6 $7 $8 $9 X,Y pos of 4 corners*
0 Add a 4 corners polygon primitive as box body*
4,1,4,$2,$3,$4,$5,$6,$7,$8,$9,$2,$3,0*
0 Add four circle primitives for the rounded corners*
1,1,$1+$1,$2,$3*
1,1,$1+$1,$4,$5*
1,1,$1+$1,$6,$7*
1,1,$1+$1,$8,$9*
0 Add four rect primitives between the rounded corners*
20,1,$1+$1,$2,$3,$4,$5,0*
20,1,$1+$1,$4,$5,$6,$7,0*
20,1,$1+$1,$6,$7,$8,$9,0*
20,1,$1+$1,$8,$9,$2,$3,0*%
G04 Aperture macros list end*
%TA.AperFunction,ComponentPad*%
%ADD10O,1.700000X1.700000*%
%TD*%
%TA.AperFunction,ComponentPad*%
%ADD11C,1.700000*%
%TD*%
%TA.AperFunction,ComponentPad*%
%ADD12C,3.810000*%
%TD*%
%TA.AperFunction,SMDPad,CuDef*%
%ADD13RoundRect,0.225000X0.250000X-0.225000X0.250000X0.225000X-0.250000X0.225000X-0.250000X-0.225000X0*%
%TD*%
%TA.AperFunction,SMDPad,CuDef*%
%ADD14R,0.340000X0.700000*%
%TD*%
%TA.AperFunction,SMDPad,CuDef*%
%ADD15RoundRect,0.200000X-0.275000X0.200000X-0.275000X-0.200000X0.275000X-0.200000X0.275000X0.200000X0*%
%TD*%
%TA.AperFunction,SMDPad,CuDef*%
%ADD16RoundRect,0.200000X-0.200000X-0.275000X0.200000X-0.275000X0.200000X0.275000X-0.200000X0.275000X0*%
%TD*%
%TA.AperFunction,SMDPad,CuDef*%
%ADD17R,1.050000X0.650000*%
%TD*%
%TA.AperFunction,SMDPad,CuDef*%
%ADD18RoundRect,0.225000X0.225000X0.250000X-0.225000X0.250000X-0.225000X-0.250000X0.225000X-0.250000X0*%
%TD*%
%TA.AperFunction,ComponentPad*%
%ADD19R,1.700000X1.700000*%
%TD*%
%TA.AperFunction,SMDPad,CuDef*%
%ADD20RoundRect,0.150000X0.150000X-0.875000X0.150000X0.875000X-0.150000X0.875000X-0.150000X-0.875000X0*%
%TD*%
%TA.AperFunction,SMDPad,CuDef*%
%ADD21RoundRect,0.200000X0.200000X0.275000X-0.200000X0.275000X-0.200000X-0.275000X0.200000X-0.275000X0*%
%TD*%
%TA.AperFunction,SMDPad,CuDef*%
%ADD22R,3.700000X0.980000*%
%TD*%
%TA.AperFunction,ViaPad*%
%ADD23C,0.558800*%
%TD*%
%TA.AperFunction,Conductor*%
%ADD24C,0.254000*%
%TD*%
%TA.AperFunction,Conductor*%
%ADD25C,0.152400*%
%TD*%
G04 APERTURE END LIST*
D10*
%TO.P,M1,6,-*%
%TO.N,GND*%
X146553000Y-103124000D03*
%TO.P,M1,5,-*%
X144013000Y-103124000D03*
%TO.P,M1,4,+*%
%TO.N,+5V*%
X146553000Y-100584000D03*
%TO.P,M1,3,+*%
X144013000Y-100584000D03*
%TO.P,M1,2,PWM*%
%TO.N,/11*%
X146553000Y-98044000D03*
D11*
%TO.P,M1,1,PWM*%
%TO.N,/12*%
X144013000Y-98044000D03*
%TD*%
D10*
%TO.P,M2,6,-*%
%TO.N,GND*%
X152908000Y-103124000D03*
%TO.P,M2,5,-*%
X150368000Y-103124000D03*
%TO.P,M2,4,+*%
%TO.N,+5V*%
X152908000Y-100584000D03*
%TO.P,M2,3,+*%
X150368000Y-100584000D03*
%TO.P,M2,2,PWM*%
%TO.N,/9*%
X152908000Y-98044000D03*
D11*
%TO.P,M2,1,PWM*%
%TO.N,/10*%
X150368000Y-98044000D03*
%TD*%
D10*
%TO.P,M3,6,-*%
%TO.N,GND*%
X159253000Y-103139000D03*
%TO.P,M3,5,-*%
X156713000Y-103139000D03*
%TO.P,M3,4,+*%
%TO.N,+5V*%
X159253000Y-100599000D03*
%TO.P,M3,3,+*%
X156713000Y-100599000D03*
%TO.P,M3,2,PWM*%
%TO.N,/5*%
X159253000Y-98059000D03*
D11*
%TO.P,M3,1,PWM*%
%TO.N,/6*%
X156713000Y-98059000D03*
%TD*%
D10*
%TO.P,M4,6,-*%
%TO.N,GND*%
X165608000Y-103124000D03*
%TO.P,M4,5,-*%
X163068000Y-103124000D03*
%TO.P,M4,4,+*%
%TO.N,+5V*%
X165608000Y-100584000D03*
%TO.P,M4,3,+*%
X163068000Y-100584000D03*
%TO.P,M4,2,PWM*%
%TO.N,/MISO{slash}14*%
X165608000Y-98044000D03*
D11*
%TO.P,M4,1,PWM*%
%TO.N,/MOSI{slash}16*%
X163068000Y-98044000D03*
%TD*%
D10*
%TO.P,J2,12,Pin_12*%
%TO.N,/SDA*%
X163830000Y-92710000D03*
%TO.P,J2,11,Pin_11*%
%TO.N,/SCL*%
X161290000Y-92710000D03*
%TO.P,J2,10,Pin_10*%
%TO.N,/5*%
X158750000Y-92710000D03*
%TO.P,J2,9,Pin_9*%
%TO.N,/6*%
X156210000Y-92710000D03*
%TO.P,J2,8,Pin_8*%
%TO.N,/9*%
X153670000Y-92710000D03*
%TO.P,J2,7,Pin_7*%
%TO.N,/10*%
X151130000Y-92710000D03*
%TO.P,J2,6,Pin_6*%
%TO.N,/11*%
X148590000Y-92710000D03*
%TO.P,J2,5,Pin_5*%
%TO.N,/12*%
X146050000Y-92710000D03*
%TO.P,J2,4,Pin_4*%
%TO.N,/13*%
X143510000Y-92710000D03*
%TO.P,J2,3,Pin_3*%
%TO.N,/USB*%
X140970000Y-92710000D03*
%TO.P,J2,2,Pin_2*%
%TO.N,/EN*%
X138430000Y-92710000D03*
D11*
%TO.P,J2,1,Pin_1*%
%TO.N,/BAT*%
X135890000Y-92710000D03*
%TD*%
%TO.P,J1,1,Pin_1*%
%TO.N,/RST*%
X125730000Y-113030000D03*
D10*
%TO.P,J1,2,Pin_2*%
%TO.N,+3V3*%
X128270000Y-113030000D03*
%TO.P,J1,3,Pin_3*%
%TO.N,/AREF*%
X130810000Y-113030000D03*
%TO.P,J1,4,Pin_4*%
%TO.N,GND*%
X133350000Y-113030000D03*
%TO.P,J1,5,Pin_5*%
%TO.N,/A0*%
X135890000Y-113030000D03*
%TO.P,J1,6,Pin_6*%
%TO.N,/A1*%
X138430000Y-113030000D03*
%TO.P,J1,7,Pin_7*%
%TO.N,/A2{slash}20*%
X140970000Y-113030000D03*
%TO.P,J1,8,Pin_8*%
%TO.N,/A3{slash}21*%
X143510000Y-113030000D03*
%TO.P,J1,9,Pin_9*%
%TO.N,/A4{slash}22*%
X146050000Y-113030000D03*
%TO.P,J1,10,Pin_10*%
%TO.N,/A5{slash}23*%
X148590000Y-113030000D03*
%TO.P,J1,11,Pin_11*%
%TO.N,/SCK{slash}15*%
X151130000Y-113030000D03*
%TO.P,J1,12,Pin_12*%
%TO.N,/MOSI{slash}16*%
X153670000Y-113030000D03*
%TO.P,J1,13,Pin_13*%
%TO.N,/MISO{slash}14*%
X156210000Y-113030000D03*
%TO.P,J1,14,Pin_14*%
%TO.N,/RX{slash}0*%
X158750000Y-113030000D03*
%TO.P,J1,15,Pin_15*%
%TO.N,/TX{slash}1*%
X161290000Y-113030000D03*
%TO.P,J1,16,Pin_16*%
%TO.N,GND*%
X163830000Y-113030000D03*
%TD*%
D12*
%TO.P,H2,1,1*%
%TO.N,GND*%
X121920000Y-93980000D03*
%TD*%
%TO.P,H1,1,1*%
%TO.N,GND*%
X121920000Y-111760000D03*
%TD*%
D13*
%TO.P,C5,1*%
%TO.N,+3V3*%
X132207000Y-102248000D03*
%TO.P,C5,2*%
%TO.N,GND*%
X132207000Y-100698000D03*
%TD*%
D14*
%TO.P,U1,6,VOUT*%
%TO.N,+5V*%
X137652000Y-99544000D03*
%TO.P,U1,5,SW*%
%TO.N,Net-(U1-SW)*%
X137152000Y-99544000D03*
%TO.P,U1,4,GND*%
%TO.N,GND*%
X136652000Y-99544000D03*
%TO.P,U1,3,VIN*%
%TO.N,/BAT*%
X136652000Y-98044000D03*
%TO.P,U1,2,EN*%
%TO.N,Net-(U1-EN)*%
X137152000Y-98044000D03*
%TO.P,U1,1,FB*%
%TO.N,Net-(U1-FB)*%
X137652000Y-98044000D03*
%TD*%
D15*
%TO.P,R3,2*%
%TO.N,Net-(U1-EN)*%
X138430000Y-96710000D03*
%TO.P,R3,1*%
%TO.N,/BAT*%
X138430000Y-95060000D03*
%TD*%
D16*
%TO.P,R2,1*%
%TO.N,Net-(U1-FB)*%
X139891000Y-96520000D03*
%TO.P,R2,2*%
%TO.N,GND*%
X141541000Y-96520000D03*
%TD*%
D13*
%TO.P,C4,2*%
%TO.N,GND*%
X132207000Y-103746000D03*
%TO.P,C4,1*%
%TO.N,+3V3*%
X132207000Y-105296000D03*
%TD*%
D17*
%TO.P,SW5,1,1*%
%TO.N,/A2{slash}20*%
X139235000Y-108390000D03*
X135085000Y-108390000D03*
%TO.P,SW5,2,2*%
%TO.N,GND*%
X139235000Y-106240000D03*
X135085000Y-106240000D03*
%TD*%
D18*
%TO.P,C3,2*%
%TO.N,GND*%
X136115000Y-100965000D03*
%TO.P,C3,1*%
%TO.N,+5V*%
X137665000Y-100965000D03*
%TD*%
D19*
%TO.P,SW3,1,A*%
%TO.N,/A5{slash}23*%
X156718000Y-106734000D03*
D10*
%TO.P,SW3,2,B*%
%TO.N,GND*%
X159258000Y-106734000D03*
%TD*%
D19*
%TO.P,SW2,1,A*%
%TO.N,/A4{slash}22*%
X150363000Y-106734000D03*
D10*
%TO.P,SW2,2,B*%
%TO.N,GND*%
X152903000Y-106734000D03*
%TD*%
D19*
%TO.P,SW4,1,A*%
%TO.N,/SCK{slash}15*%
X163068000Y-106734000D03*
D10*
%TO.P,SW4,2,B*%
%TO.N,GND*%
X165608000Y-106734000D03*
%TD*%
D20*
%TO.P,U2,1,32KHZ*%
%TO.N,unconnected-(U2-32KHZ-Pad1)*%
X121539000Y-107520000D03*
%TO.P,U2,2,VCC*%
%TO.N,+3V3*%
X122809000Y-107520000D03*
%TO.P,U2,3,~{INT}/SQW*%
%TO.N,unconnected-(U2-~{INT}{slash}SQW-Pad3)*%
X124079000Y-107520000D03*
%TO.P,U2,4,~{RST}*%
%TO.N,unconnected-(U2-~{RST}-Pad4)*%
X125349000Y-107520000D03*
%TO.P,U2,5,GND*%
%TO.N,GND*%
X126619000Y-107520000D03*
%TO.P,U2,6,GND*%
X127889000Y-107520000D03*
%TO.P,U2,7,GND*%
X129159000Y-107520000D03*
%TO.P,U2,8,GND*%
X130429000Y-107520000D03*
%TO.P,U2,9,GND*%
X130429000Y-98220000D03*
%TO.P,U2,10,GND*%
X129159000Y-98220000D03*
%TO.P,U2,11,GND*%
X127889000Y-98220000D03*
%TO.P,U2,12,GND*%
X126619000Y-98220000D03*
%TO.P,U2,13,GND*%
X125349000Y-98220000D03*
%TO.P,U2,14,VBAT*%
%TO.N,Net-(BT1-+)*%
X124079000Y-98220000D03*
%TO.P,U2,15,SDA*%
%TO.N,/SDA*%
X122809000Y-98220000D03*
%TO.P,U2,16,SCL*%
%TO.N,/SCL*%
X121539000Y-98220000D03*
%TD*%
D18*
%TO.P,C2,2*%
%TO.N,GND*%
X136115000Y-102459000D03*
%TO.P,C2,1*%
%TO.N,+5V*%
X137665000Y-102459000D03*
%TD*%
D21*
%TO.P,R1,1*%
%TO.N,+5V*%
X141541000Y-98044000D03*
%TO.P,R1,2*%
%TO.N,Net-(U1-FB)*%
X139891000Y-98044000D03*
%TD*%
D22*
%TO.P,L1,2,2*%
%TO.N,Net-(U1-SW)*%
X133842000Y-98594000D03*
%TO.P,L1,1,1*%
%TO.N,/BAT*%
X133842000Y-96224000D03*
%TD*%
D13*
%TO.P,C1,2*%
%TO.N,GND*%
X136890000Y-95084600D03*
%TO.P,C1,1*%
%TO.N,/BAT*%
X136890000Y-96634600D03*
%TD*%
D21*
%TO.P,R4,2*%
%TO.N,/SDA*%
X125540000Y-96139000D03*
%TO.P,R4,1*%
%TO.N,+3V3*%
X127190000Y-96139000D03*
%TD*%
%TO.P,R5,2*%
%TO.N,/SCL*%
X125540000Y-94615000D03*
%TO.P,R5,1*%
%TO.N,+3V3*%
X127190000Y-94615000D03*
%TD*%
D19*
%TO.P,SW1,1,A*%
%TO.N,/A3{slash}21*%
X144013000Y-106734000D03*
D10*
%TO.P,SW1,2,B*%
%TO.N,GND*%
X146553000Y-106734000D03*
%TD*%
D23*
%TO.N,GND*%
X134366000Y-100076000D03*
X142875000Y-95758000D03*
%TO.N,/SCL*%
X133858000Y-93599000D03*
%TO.N,/SDA*%
X133985000Y-94996000D03*
%TO.N,Net-(BT1-+)*%
X124079000Y-96393000D03*
%TD*%
D24*
%TO.N,GND*%
X139128000Y-94107000D02*
X141541000Y-96520000D01*
X137867600Y-94107000D02*
X139128000Y-94107000D01*
X136890000Y-95084600D02*
X137867600Y-94107000D01*
D25*
%TO.N,Net-(U1-FB)*%
X137652000Y-98044000D02*
X138049000Y-98044000D01*
D24*
%TO.N,+5V*%
X137652000Y-99544000D02*
X138152000Y-99544000D01*
D25*
%TO.N,/SCL*%
X126594100Y-93560900D02*
X125540000Y-94615000D01*
X133819900Y-93560900D02*
X126594100Y-93560900D01*
X133858000Y-93599000D02*
X133819900Y-93560900D01*
D24*
%TO.N,GND*%
X136652000Y-100428000D02*
X136115000Y-100965000D01*
X136652000Y-99544000D02*
X136652000Y-100428000D01*
%TO.N,+5V*%
X142621000Y-100584000D02*
X141859000Y-99822000D01*
X144013000Y-100584000D02*
X142621000Y-100584000D01*
X146553000Y-100584000D02*
X144013000Y-100584000D01*
X150368000Y-100584000D02*
X146553000Y-100584000D01*
X152908000Y-100584000D02*
X150368000Y-100584000D01*
X156713000Y-100599000D02*
X152923000Y-100599000D01*
X152923000Y-100599000D02*
X152908000Y-100584000D01*
X159253000Y-100599000D02*
X156713000Y-100599000D01*
X159268000Y-100584000D02*
X159253000Y-100599000D01*
X163068000Y-100584000D02*
X159268000Y-100584000D01*
X165608000Y-100584000D02*
X163068000Y-100584000D01*
D25*
%TO.N,/SDA*%
X126155900Y-95523100D02*
X125540000Y-96139000D01*
X126873000Y-93853000D02*
X126155900Y-94570100D01*
X126155900Y-94570100D02*
X126155900Y-95523100D01*
X133985000Y-94996000D02*
X132842000Y-93853000D01*
X132842000Y-93853000D02*
X126873000Y-93853000D01*
%TO.N,/A2{slash}20*%
X135085000Y-108390000D02*
X139235000Y-108390000D01*
%TO.N,/SCK{slash}15*%
X156210000Y-107950000D02*
X151130000Y-113030000D01*
X161852000Y-107950000D02*
X156210000Y-107950000D01*
X163068000Y-106734000D02*
X161852000Y-107950000D01*
%TO.N,/MOSI{slash}16*%
X158407100Y-108292900D02*
X153670000Y-113030000D01*
X166027100Y-108292900D02*
X158407100Y-108292900D01*
X166878000Y-107442000D02*
X166027100Y-108292900D01*
X166116000Y-99314000D02*
X166878000Y-100076000D01*
X166878000Y-100076000D02*
X166878000Y-107442000D01*
X164338000Y-99314000D02*
X166116000Y-99314000D01*
X163068000Y-98044000D02*
X164338000Y-99314000D01*
%TO.N,/MISO{slash}14*%
X160655000Y-108585000D02*
X156210000Y-113030000D01*
X167259000Y-107823000D02*
X166497000Y-108585000D01*
X166497000Y-108585000D02*
X160655000Y-108585000D01*
X167259000Y-99695000D02*
X167259000Y-107823000D01*
X165608000Y-98044000D02*
X167259000Y-99695000D01*
%TO.N,/A5{slash}23*%
X154886000Y-106734000D02*
X148590000Y-113030000D01*
X156718000Y-106734000D02*
X154886000Y-106734000D01*
%TO.N,/A4{slash}22*%
X150363000Y-108717000D02*
X146050000Y-113030000D01*
X150363000Y-106734000D02*
X150363000Y-108717000D01*
%TO.N,/A3{slash}21*%
X144013000Y-112527000D02*
X143510000Y-113030000D01*
X144013000Y-106680000D02*
X144013000Y-112527000D01*
%TO.N,/A2{slash}20*%
X139235000Y-111295000D02*
X140970000Y-113030000D01*
X139235000Y-108390000D02*
X139235000Y-111295000D01*
%TO.N,/5*%
X159258000Y-93218000D02*
X158750000Y-92710000D01*
X159258000Y-98044000D02*
X159258000Y-93218000D01*
%TO.N,/6*%
X156718000Y-93218000D02*
X156210000Y-92710000D01*
X156718000Y-98044000D02*
X156718000Y-93218000D01*
%TO.N,/9*%
X152908000Y-93472000D02*
X153670000Y-92710000D01*
X152908000Y-98044000D02*
X152908000Y-93472000D01*
%TO.N,/10*%
X150368000Y-93472000D02*
X151130000Y-92710000D01*
X150368000Y-98044000D02*
X150368000Y-93472000D01*
%TO.N,/11*%
X146558000Y-94742000D02*
X148590000Y-92710000D01*
X146558000Y-98044000D02*
X146558000Y-94742000D01*
%TO.N,/12*%
X144018000Y-94742000D02*
X144018000Y-98044000D01*
X146050000Y-92710000D02*
X144018000Y-94742000D01*
%TO.N,+3V3*%
X128270000Y-111257382D02*
X128270000Y-113030000D01*
X132207000Y-107320382D02*
X128270000Y-111257382D01*
X132207000Y-105296000D02*
X132207000Y-107320382D01*
X122809000Y-107211618D02*
X122809000Y-107520000D01*
X124724618Y-105296000D02*
X122809000Y-107211618D01*
X132207000Y-105296000D02*
X124724618Y-105296000D01*
%TO.N,Net-(U1-EN)*%
X137152000Y-97541600D02*
X137152000Y-98044000D01*
X137983600Y-96710000D02*
X137152000Y-97541600D01*
X138430000Y-96710000D02*
X137983600Y-96710000D01*
%TO.N,Net-(U1-SW)*%
X134181000Y-98933000D02*
X133842000Y-98594000D01*
X136992800Y-98933000D02*
X134181000Y-98933000D01*
X137152000Y-99092200D02*
X136992800Y-98933000D01*
X137152000Y-99544000D02*
X137152000Y-99092200D01*
D24*
%TO.N,/BAT*%
X138430000Y-95094600D02*
X136890000Y-96634600D01*
X138430000Y-95060000D02*
X138430000Y-95094600D01*
D25*
%TO.N,+3V3*%
X127190000Y-99286782D02*
X127190000Y-96139000D01*
X130151218Y-102248000D02*
X127190000Y-99286782D01*
X132207000Y-102248000D02*
X130151218Y-102248000D01*
%TO.N,/SCL*%
X121539000Y-97675763D02*
X121539000Y-98220000D01*
X124599763Y-94615000D02*
X121539000Y-97675763D01*
X125540000Y-94615000D02*
X124599763Y-94615000D01*
%TO.N,/SDA*%
X122809000Y-96818855D02*
X122809000Y-98220000D01*
X123831755Y-95796100D02*
X122809000Y-96818855D01*
X125197100Y-95796100D02*
X123831755Y-95796100D01*
X125540000Y-96139000D02*
X125197100Y-95796100D01*
%TO.N,+3V3*%
X127190000Y-96139000D02*
X127190000Y-94615000D01*
X131427200Y-104516200D02*
X132207000Y-105296000D01*
X131427200Y-103027800D02*
X131427200Y-104516200D01*
X132207000Y-102248000D02*
X131427200Y-103027800D01*
%TO.N,Net-(BT1-+)*%
X124079000Y-98220000D02*
X124079000Y-96393000D01*
%TD*%
%TA.AperFunction,Conductor*%
%TO.N,GND*%
G36*
X120998340Y-94861197D02*
G01*
X121170496Y-95011604D01*
X121215224Y-95038327D01*
X120404123Y-95849429D01*
X120404123Y-95849430D01*
X120449729Y-95889426D01*
X120456169Y-95894367D01*
X120711545Y-96065005D01*
X120718559Y-96069054D01*
X120994028Y-96204900D01*
X121001518Y-96208002D01*
X121292360Y-96306731D01*
X121300188Y-96308828D01*
X121601431Y-96368749D01*
X121609453Y-96369805D01*
X121730461Y-96377737D01*
X121796069Y-96401764D01*
X121838273Y-96457448D01*
X121843672Y-96527108D01*
X121810553Y-96588630D01*
X121810040Y-96589145D01*
X121741003Y-96658182D01*
X121679683Y-96691666D01*
X121653324Y-96694500D01*
X121323306Y-96694500D01*
X121320886Y-96694690D01*
X121320871Y-96694691D01*
X121286427Y-96697402D01*
X121128602Y-96743255D01*
X120987134Y-96826919D01*
X120870919Y-96943134D01*
X120787255Y-97084602D01*
X120741402Y-97242427D01*
X120738691Y-97276871D01*
X120738690Y-97276886D01*
X120738500Y-97279306D01*
X120738500Y-99160694D01*
X120738690Y-99163114D01*
X120738691Y-99163128D01*
X120741402Y-99197572D01*
X120787255Y-99355397D01*
X120852954Y-99466488D01*
X120870919Y-99496865D01*
X120987135Y-99613081D01*
X121014129Y-99629045D01*
X121128602Y-99696744D01*
X121286427Y-99742597D01*
X121286431Y-99742598D01*
X121323306Y-99745500D01*
X121325751Y-99745500D01*
X121752249Y-99745500D01*
X121754694Y-99745500D01*
X121791569Y-99742598D01*
X121949398Y-99696744D01*
X122071624Y-99624460D01*
X122104349Y-99605107D01*
X122105545Y-99607129D01*
X122147633Y-99584144D01*
X122217325Y-99589123D01*
X122243250Y-99605784D01*
X122243651Y-99605107D01*
X122398602Y-99696744D01*
X122556427Y-99742597D01*
X122556431Y-99742598D01*
X122593306Y-99745500D01*
X122595751Y-99745500D01*
X123022249Y-99745500D01*
X123024694Y-99745500D01*
X123061569Y-99742598D01*
X123219398Y-99696744D01*
X123341624Y-99624460D01*
X123374349Y-99605107D01*
X123375545Y-99607129D01*
X123417633Y-99584144D01*
X123487325Y-99589123D01*
X123513250Y-99605784D01*
X123513651Y-99605107D01*
X123668602Y-99696744D01*
X123826427Y-99742597D01*
X123826431Y-99742598D01*
X123863306Y-99745500D01*
X123865751Y-99745500D01*
X124292249Y-99745500D01*
X124294694Y-99745500D01*
X124331569Y-99742598D01*
X124489398Y-99696744D01*
X124611624Y-99624460D01*
X124644349Y-99605107D01*
X124645473Y-99607008D01*
X124687986Y-99583791D01*
X124757678Y-99588770D01*
X124783552Y-99605397D01*
X124783960Y-99604709D01*
X124938799Y-99696280D01*
X125096511Y-99742099D01*
X125098999Y-99742295D01*
X125099000Y-99742295D01*
X125099000Y-98094000D01*
X125118685Y-98026961D01*
X125171489Y-97981206D01*
X125223000Y-97970000D01*
X126489299Y-97970000D01*
X126556338Y-97989685D01*
X126602093Y-98042489D01*
X126613299Y-98094000D01*
X126613299Y-98414937D01*
X126593614Y-98481976D01*
X126540810Y-98527731D01*
X126471652Y-98537675D01*
X126408096Y-98508650D01*
X126401618Y-98502618D01*
X126369000Y-98470000D01*
X125599000Y-98470000D01*
X125599000Y-99742295D01*
X125601488Y-99742099D01*
X125759200Y-99696280D01*
X125914040Y-99604709D01*
X125915173Y-99606625D01*
X125957633Y-99583437D01*
X126027325Y-99588416D01*
X126053606Y-99605306D01*
X126053960Y-99604709D01*
X126208799Y-99696280D01*
X126366511Y-99742099D01*
X126368999Y-99742295D01*
X126369000Y-99742295D01*
X126369000Y-99360809D01*
X126388685Y-99293770D01*
X126441489Y-99248015D01*
X126510647Y-99238071D01*
X126574203Y-99267096D01*
X126611977Y-99325874D01*
X126615938Y-99344623D01*
X126628144Y-99437331D01*
X126672953Y-99545508D01*
X126686254Y-99577620D01*
X126722195Y-99624460D01*
X126778692Y-99698088D01*
X126802490Y-99716349D01*
X126814685Y-99727044D01*
X129710951Y-102623310D01*
X129721645Y-102635503D01*
X129724574Y-102639320D01*
X129739911Y-102659307D01*
X129770155Y-102682514D01*
X129770156Y-102682515D01*
X129860380Y-102751747D01*
X129959579Y-102792836D01*
X130000669Y-102809856D01*
X130113420Y-102824700D01*
X130113421Y-102824700D01*
X130151217Y-102829676D01*
X130151217Y-102829675D01*
X130151218Y-102829676D01*
X130180956Y-102825760D01*
X130197141Y-102824700D01*
X130730868Y-102824700D01*
X130797907Y-102844385D01*
X130843662Y-102897189D01*
X130853806Y-102964885D01*
X130849447Y-102998000D01*
X130845524Y-103027799D01*
X130849439Y-103057536D01*
X130850500Y-103073722D01*
X130850500Y-104470276D01*
X130849439Y-104486461D01*
X130845523Y-104516199D01*
X130853807Y-104579114D01*
X130843042Y-104648150D01*
X130796662Y-104700406D01*
X130730868Y-104719300D01*
X124770541Y-104719300D01*
X124754356Y-104718239D01*
X124751165Y-104717819D01*
X124724617Y-104714323D01*
X124690760Y-104718781D01*
X124686821Y-104719300D01*
X124574068Y-104734144D01*
X124574069Y-104734144D01*
X124433779Y-104792254D01*
X124313309Y-104884693D01*
X124295050Y-104908489D01*
X124284357Y-104920682D01*
X123226609Y-105978430D01*
X123165286Y-106011915D01*
X123104335Y-106009826D01*
X123061570Y-105997402D01*
X123027128Y-105994691D01*
X123027114Y-105994690D01*
X123024694Y-105994500D01*
X122593306Y-105994500D01*
X122590886Y-105994690D01*
X122590871Y-105994691D01*
X122556427Y-105997402D01*
X122398602Y-106043255D01*
X122243652Y-106134893D01*
X122242456Y-106132870D01*
X122200358Y-106155858D01*
X122130666Y-106150874D01*
X122104747Y-106134216D01*
X122104348Y-106134893D01*
X121949397Y-106043255D01*
X121791572Y-105997402D01*
X121757128Y-105994691D01*
X121757114Y-105994690D01*
X121754694Y-105994500D01*
X121323306Y-105994500D01*
X121320886Y-105994690D01*
X121320871Y-105994691D01*
X121286427Y-105997402D01*
X121128602Y-106043255D01*
X120987134Y-106126919D01*
X120870919Y-106243134D01*
X120787255Y-106384602D01*
X120741402Y-106542427D01*
X120738691Y-106576871D01*
X120738690Y-106576886D01*
X120738500Y-106579306D01*
X120738500Y-108460694D01*
X120738690Y-108463114D01*
X120738691Y-108463128D01*
X120741402Y-108497572D01*
X120787255Y-108655397D01*
X120846040Y-108754797D01*
X120870919Y-108796865D01*
X120987135Y-108913081D01*
X121091020Y-108974518D01*
X121128602Y-108996744D01*
X121286427Y-109042597D01*
X121286431Y-109042598D01*
X121323306Y-109045500D01*
X121325751Y-109045500D01*
X121752249Y-109045500D01*
X121754694Y-109045500D01*
X121791569Y-109042598D01*
X121949398Y-108996744D01*
X122043543Y-108941066D01*
X122104349Y-108905107D01*
X122105545Y-108907129D01*
X122147633Y-108884144D01*
X122217325Y-108889123D01*
X122243250Y-108905784D01*
X122243651Y-108905107D01*
X122398602Y-108996744D01*
X122556427Y-109042597D01*
X122556431Y-109042598D01*
X122593306Y-109045500D01*
X122595751Y-109045500D01*
X123022249Y-109045500D01*
X123024694Y-109045500D01*
X123061569Y-109042598D01*
X123219398Y-108996744D01*
X123313543Y-108941066D01*
X123374349Y-108905107D01*
X123375545Y-108907129D01*
X123417633Y-108884144D01*
X123487325Y-108889123D01*
X123513250Y-108905784D01*
X123513651Y-108905107D01*
X123668602Y-108996744D01*
X123826427Y-109042597D01*
X123826431Y-109042598D01*
X123863306Y-109045500D01*
X123865751Y-109045500D01*
X124292249Y-109045500D01*
X124294694Y-109045500D01*
X124331569Y-109042598D01*
X124489398Y-108996744D01*
X124583543Y-108941066D01*
X124644349Y-108905107D01*
X124645545Y-108907129D01*
X124687633Y-108884144D01*
X124757325Y-108889123D01*
X124783250Y-108905784D01*
X124783651Y-108905107D01*
X124938602Y-108996744D01*
X125096427Y-109042597D01*
X125096431Y-109042598D01*
X125133306Y-109045500D01*
X125135751Y-109045500D01*
X125562249Y-109045500D01*
X125564694Y-109045500D01*
X125601569Y-109042598D01*
X125759398Y-108996744D01*
X125853543Y-108941066D01*
X125914349Y-108905107D01*
X125915473Y-108907008D01*
X125957986Y-108883791D01*
X126027678Y-108888770D01*
X126053552Y-108905397D01*
X126053960Y-108904709D01*
X126208799Y-108996280D01*
X126366511Y-109042099D01*
X126369000Y-109042295D01*
X126369000Y-107770000D01*
X126869000Y-107770000D01*
X126869000Y-109042295D01*
X126871488Y-109042099D01*
X127029200Y-108996280D01*
X127184040Y-108904709D01*
X127185173Y-108906625D01*
X127227633Y-108883437D01*
X127297325Y-108888416D01*
X127323606Y-108905306D01*
X127323960Y-108904709D01*
X127478799Y-108996280D01*
X127636511Y-109042099D01*
X127638999Y-109042295D01*
X127639000Y-109042295D01*
X127639000Y-107770000D01*
X128139000Y-107770000D01*
X128139000Y-109042295D01*
X128141488Y-109042099D01*
X128299200Y-108996280D01*
X128454040Y-108904709D01*
X128455173Y-108906625D01*
X128497633Y-108883437D01*
X128567325Y-108888416D01*
X128593606Y-108905306D01*
X128593960Y-108904709D01*
X128748799Y-108996280D01*
X128906511Y-109042099D01*
X128909000Y-109042295D01*
X128909000Y-107770000D01*
X128139000Y-107770000D01*
X127639000Y-107770000D01*
X126869000Y-107770000D01*
X126369000Y-107770000D01*
X126369000Y-107394000D01*
X126388685Y-107326961D01*
X126441489Y-107281206D01*
X126493000Y-107270000D01*
X130555000Y-107270000D01*
X130622039Y-107289685D01*
X130667794Y-107342489D01*
X130679000Y-107394000D01*
X130679000Y-107646000D01*
X130659315Y-107713039D01*
X130606511Y-107758794D01*
X130555000Y-107770000D01*
X129409000Y-107770000D01*
X129409000Y-109042295D01*
X129448828Y-109079112D01*
X129446362Y-109081779D01*
X129474786Y-109109773D01*
X129490159Y-109177930D01*
X129466243Y-109243579D01*
X129454092Y-109257710D01*
X127894683Y-110817120D01*
X127882490Y-110827813D01*
X127858695Y-110846072D01*
X127823022Y-110892561D01*
X127823021Y-110892562D01*
X127766254Y-110966543D01*
X127708144Y-111106833D01*
X127688323Y-111257381D01*
X127692239Y-111287118D01*
X127693300Y-111303304D01*
X127693300Y-111729810D01*
X127673615Y-111796849D01*
X127621708Y-111842191D01*
X127592169Y-111855965D01*
X127398598Y-111991505D01*
X127231505Y-112158598D01*
X127101575Y-112344159D01*
X127046998Y-112387784D01*
X126977500Y-112394978D01*
X126915145Y-112363455D01*
X126898425Y-112344159D01*
X126768494Y-112158598D01*
X126601404Y-111991508D01*
X126601401Y-111991505D01*
X126407830Y-111855965D01*
X126193663Y-111756097D01*
X126114095Y-111734777D01*
X125965407Y-111694936D01*
X125730000Y-111674340D01*
X125494592Y-111694936D01*
X125266336Y-111756097D01*
X125052170Y-111855965D01*
X124858598Y-111991505D01*
X124691505Y-112158598D01*
X124555965Y-112352170D01*
X124456097Y-112566336D01*
X124394936Y-112794592D01*
X124374340Y-113029999D01*
X124394936Y-113265407D01*
X124420496Y-113360798D01*
X124456097Y-113493663D01*
X124555847Y-113707576D01*
X124555965Y-113707830D01*
X124623568Y-113804377D01*
X124645895Y-113870583D01*
X124628885Y-113938350D01*
X124577937Y-113986163D01*
X124521993Y-113999500D01*
X123306009Y-113999500D01*
X123238970Y-113979815D01*
X123193215Y-113927011D01*
X123183271Y-113857853D01*
X123212296Y-113794297D01*
X123237118Y-113772398D01*
X123383831Y-113674366D01*
X123390268Y-113669427D01*
X123435875Y-113629430D01*
X123435875Y-113629429D01*
X122624443Y-112817997D01*
X122758959Y-112720266D01*
X122916939Y-112555032D01*
X122977237Y-112463683D01*
X123789429Y-113275875D01*
X123789430Y-113275875D01*
X123829427Y-113230268D01*
X123834366Y-113223831D01*
X124005005Y-112968454D01*
X124009054Y-112961440D01*
X124144900Y-112685971D01*
X124148002Y-112678481D01*
X124246731Y-112387639D01*
X124248828Y-112379811D01*
X124308749Y-112078568D01*
X124309805Y-112070546D01*
X124329895Y-111764043D01*
X124329895Y-111755956D01*
X124309805Y-111449453D01*
X124308749Y-111441431D01*
X124248828Y-111140188D01*
X124246731Y-111132360D01*
X124148002Y-110841518D01*
X124144900Y-110834028D01*
X124009054Y-110558559D01*
X124005005Y-110551545D01*
X123834367Y-110296169D01*
X123829426Y-110289729D01*
X123789429Y-110244123D01*
X122980566Y-111052986D01*
X122841660Y-110878803D01*
X122669504Y-110728396D01*
X122624774Y-110701671D01*
X123435876Y-109890569D01*
X123435876Y-109890568D01*
X123390269Y-109850573D01*
X123383830Y-109845632D01*
X123128454Y-109674994D01*
X123121440Y-109670945D01*
X122845971Y-109535099D01*
X122838481Y-109531997D01*
X122547639Y-109433268D01*
X122539811Y-109431171D01*
X122238568Y-109371250D01*
X122230546Y-109370194D01*
X121924043Y-109350105D01*
X121915957Y-109350105D01*
X121609453Y-109370194D01*
X121601431Y-109371250D01*
X121300188Y-109431171D01*
X121292360Y-109433268D01*
X121001518Y-109531997D01*
X120994028Y-109535099D01*
X120718559Y-109670945D01*
X120711545Y-109674994D01*
X120456163Y-109845636D01*
X120449735Y-109850568D01*
X120404123Y-109890568D01*
X120404123Y-109890570D01*
X121215556Y-110702002D01*
X121081041Y-110799734D01*
X120923061Y-110964968D01*
X120862762Y-111056315D01*
X120050570Y-110244123D01*
X120050568Y-110244123D01*
X120010568Y-110289735D01*
X120005641Y-110296157D01*
X119907601Y-110442882D01*
X119853988Y-110487686D01*
X119784663Y-110496393D01*
X119721636Y-110466238D01*
X119684917Y-110406795D01*
X119680500Y-110373997D01*
X119680500Y-95366005D01*
X119700184Y-95298970D01*
X119752988Y-95253215D01*
X119822146Y-95243271D01*
X119885702Y-95272296D01*
X119907601Y-95297118D01*
X120005632Y-95443829D01*
X120010573Y-95450269D01*
X120050569Y-95495876D01*
X120859433Y-94687012D01*
X120998340Y-94861197D01*
G37*
%TD.AperFunction*%
%TA.AperFunction,Conductor*%
G36*
X133581689Y-91760185D02*
G01*
X133627444Y-91812989D01*
X133637388Y-91882147D01*
X133613850Y-91938899D01*
X133543895Y-92032173D01*
X133237408Y-92440821D01*
X133237397Y-92440836D01*
X133236612Y-92441883D01*
X133235870Y-92442964D01*
X133235857Y-92442984D01*
X133212916Y-92476465D01*
X133212899Y-92476489D01*
X133212161Y-92477568D01*
X133211470Y-92478674D01*
X133211461Y-92478689D01*
X133201640Y-92494426D01*
X133201623Y-92494453D01*
X133200945Y-92495541D01*
X133200315Y-92496652D01*
X133200300Y-92496679D01*
X133197946Y-92500838D01*
X133179649Y-92533160D01*
X133179644Y-92533168D01*
X133133073Y-92669318D01*
X133120099Y-92737981D01*
X133114481Y-92865651D01*
X133091868Y-92931761D01*
X133037104Y-92975150D01*
X132990601Y-92984200D01*
X126640023Y-92984200D01*
X126623838Y-92983139D01*
X126620647Y-92982719D01*
X126594099Y-92979223D01*
X126560242Y-92983681D01*
X126556303Y-92984200D01*
X126541460Y-92986154D01*
X126443552Y-92999043D01*
X126422005Y-93007969D01*
X126303261Y-93057152D01*
X126213038Y-93126385D01*
X126182791Y-93149594D01*
X126164531Y-93173390D01*
X126153839Y-93185582D01*
X125736242Y-93603181D01*
X125674919Y-93636666D01*
X125648561Y-93639500D01*
X125283384Y-93639500D01*
X125280580Y-93639754D01*
X125280575Y-93639755D01*
X125212806Y-93645913D01*
X125163007Y-93661431D01*
X125050394Y-93696522D01*
X125050392Y-93696522D01*
X125050392Y-93696523D01*
X124904813Y-93784528D01*
X124784527Y-93904814D01*
X124740881Y-93977013D01*
X124689353Y-94024200D01*
X124620494Y-94036038D01*
X124618580Y-94035801D01*
X124599763Y-94033323D01*
X124566363Y-94037721D01*
X124561966Y-94038300D01*
X124553228Y-94039450D01*
X124467191Y-94050776D01*
X124398156Y-94040010D01*
X124345900Y-93993629D01*
X124327272Y-93935947D01*
X124309805Y-93669453D01*
X124308749Y-93661431D01*
X124248828Y-93360188D01*
X124246731Y-93352360D01*
X124148002Y-93061518D01*
X124144900Y-93054028D01*
X124009054Y-92778559D01*
X124005005Y-92771545D01*
X123834367Y-92516169D01*
X123829426Y-92509729D01*
X123789429Y-92464123D01*
X122980565Y-93272986D01*
X122841660Y-93098803D01*
X122669504Y-92948396D01*
X122624774Y-92921671D01*
X123435876Y-92110569D01*
X123435876Y-92110568D01*
X123390269Y-92070573D01*
X123383830Y-92065632D01*
X123237118Y-91967602D01*
X123192313Y-91913990D01*
X123183606Y-91844665D01*
X123213761Y-91781637D01*
X123273204Y-91744918D01*
X123306009Y-91740500D01*
X133514650Y-91740500D01*
X133581689Y-91760185D01*
G37*
%TD.AperFunction*%
%TA.AperFunction,Conductor*%
G36*
X167643736Y-91740726D02*
G01*
X167902457Y-91756375D01*
X167917318Y-91758179D01*
X168045318Y-91781637D01*
X168168575Y-91804225D01*
X168183097Y-91807804D01*
X168426990Y-91883803D01*
X168440967Y-91889104D01*
X168673915Y-91993946D01*
X168687161Y-92000898D01*
X168905768Y-92133051D01*
X168918079Y-92141549D01*
X169051832Y-92246337D01*
X169119161Y-92299086D01*
X169130369Y-92309016D01*
X169310983Y-92489630D01*
X169320913Y-92500838D01*
X169346240Y-92533166D01*
X169452908Y-92669318D01*
X169478446Y-92701914D01*
X169486950Y-92714235D01*
X169501306Y-92737981D01*
X169619098Y-92932832D01*
X169626057Y-92946091D01*
X169730893Y-93179028D01*
X169736199Y-93193018D01*
X169812191Y-93436886D01*
X169815774Y-93451424D01*
X169861819Y-93702679D01*
X169863624Y-93717544D01*
X169879274Y-93976262D01*
X169879500Y-93983749D01*
X169879500Y-111756249D01*
X169879274Y-111763736D01*
X169863624Y-112022455D01*
X169861819Y-112037320D01*
X169815774Y-112288575D01*
X169812191Y-112303112D01*
X169783430Y-112395413D01*
X169736203Y-112546970D01*
X169730893Y-112560971D01*
X169626057Y-112793908D01*
X169619098Y-112807167D01*
X169486952Y-113025762D01*
X169478446Y-113038085D01*
X169320913Y-113239161D01*
X169310983Y-113250369D01*
X169130369Y-113430983D01*
X169119161Y-113440913D01*
X168918085Y-113598446D01*
X168905762Y-113606952D01*
X168687167Y-113739098D01*
X168673908Y-113746057D01*
X168440971Y-113850893D01*
X168426975Y-113856200D01*
X168199736Y-113927011D01*
X168183113Y-113932191D01*
X168168575Y-113935774D01*
X167917320Y-113981819D01*
X167902455Y-113983624D01*
X167643736Y-113999274D01*
X167636249Y-113999500D01*
X165037396Y-113999500D01*
X164970357Y-113979815D01*
X164924602Y-113927011D01*
X164914658Y-113857853D01*
X164935821Y-113804376D01*
X165003600Y-113707576D01*
X165103430Y-113493492D01*
X165160636Y-113280000D01*
X164263686Y-113280000D01*
X164289493Y-113239844D01*
X164330000Y-113101889D01*
X164330000Y-112958111D01*
X164289493Y-112820156D01*
X164263686Y-112780000D01*
X165160636Y-112780000D01*
X165160635Y-112779999D01*
X165103430Y-112566507D01*
X165003599Y-112352421D01*
X164868109Y-112158921D01*
X164701081Y-111991893D01*
X164550312Y-111886323D01*
X166115500Y-111886323D01*
X166157084Y-112135527D01*
X166235482Y-112363891D01*
X166239119Y-112374484D01*
X166359366Y-112596680D01*
X166359367Y-112596681D01*
X166514544Y-112796055D01*
X166578181Y-112854636D01*
X166700423Y-112967168D01*
X166911931Y-113105353D01*
X167143299Y-113206840D01*
X167388216Y-113268862D01*
X167576942Y-113284500D01*
X167579512Y-113284500D01*
X167700488Y-113284500D01*
X167703058Y-113284500D01*
X167891784Y-113268862D01*
X168136701Y-113206840D01*
X168368069Y-113105353D01*
X168579577Y-112967168D01*
X168765455Y-112796055D01*
X168920634Y-112596680D01*
X169040881Y-112374484D01*
X169122916Y-112135525D01*
X169164500Y-111886324D01*
X169164500Y-111633676D01*
X169122916Y-111384475D01*
X169040881Y-111145516D01*
X168920634Y-110923320D01*
X168824444Y-110799734D01*
X168765455Y-110723944D01*
X168672516Y-110638388D01*
X168579577Y-110552832D01*
X168368069Y-110414647D01*
X168368066Y-110414645D01*
X168136704Y-110313161D01*
X168136702Y-110313160D01*
X168136701Y-110313160D01*
X167891784Y-110251138D01*
X167703058Y-110235500D01*
X167576942Y-110235500D01*
X167574395Y-110235711D01*
X167574396Y-110235711D01*
X167388216Y-110251138D01*
X167143295Y-110313161D01*
X166911933Y-110414645D01*
X166786809Y-110496393D01*
X166700423Y-110552832D01*
X166700421Y-110552833D01*
X166700422Y-110552833D01*
X166514544Y-110723944D01*
X166359367Y-110923318D01*
X166359365Y-110923320D01*
X166359366Y-110923320D01*
X166242003Y-111140188D01*
X166239117Y-111145520D01*
X166157084Y-111384472D01*
X166115500Y-111633676D01*
X166115500Y-111886323D01*
X164550312Y-111886323D01*
X164507576Y-111856399D01*
X164293492Y-111756569D01*
X164080000Y-111699364D01*
X164080000Y-112594498D01*
X163972315Y-112545320D01*
X163865763Y-112530000D01*
X163794237Y-112530000D01*
X163687685Y-112545320D01*
X163580000Y-112594498D01*
X163580000Y-111699364D01*
X163579999Y-111699364D01*
X163366507Y-111756569D01*
X163152421Y-111856400D01*
X162958921Y-111991890D01*
X162791893Y-112158918D01*
X162661880Y-112344596D01*
X162607303Y-112388220D01*
X162537804Y-112395413D01*
X162475450Y-112363891D01*
X162458730Y-112344595D01*
X162328495Y-112158599D01*
X162161401Y-111991505D01*
X161967830Y-111855965D01*
X161753663Y-111756097D01*
X161674095Y-111734777D01*
X161525407Y-111694936D01*
X161290000Y-111674340D01*
X161054592Y-111694936D01*
X160826336Y-111756097D01*
X160612170Y-111855965D01*
X160418598Y-111991505D01*
X160251508Y-112158595D01*
X160121574Y-112344160D01*
X160066997Y-112387785D01*
X159997498Y-112394977D01*
X159935144Y-112363455D01*
X159918429Y-112344164D01*
X159788495Y-112158599D01*
X159621401Y-111991505D01*
X159427830Y-111855965D01*
X159213663Y-111756097D01*
X159134095Y-111734777D01*
X158985407Y-111694936D01*
X158749998Y-111674340D01*
X158685268Y-111680003D01*
X158616768Y-111666236D01*
X158566586Y-111617620D01*
X158550653Y-111549591D01*
X158574029Y-111483748D01*
X158586774Y-111468801D01*
X160857557Y-109198019D01*
X160918881Y-109164534D01*
X160945239Y-109161700D01*
X166451077Y-109161700D01*
X166467261Y-109162760D01*
X166497000Y-109166676D01*
X166647549Y-109146856D01*
X166787838Y-109088746D01*
X166878062Y-109019515D01*
X166878062Y-109019514D01*
X166908307Y-108996307D01*
X166926569Y-108972505D01*
X166937255Y-108960320D01*
X167634320Y-108263255D01*
X167646505Y-108252569D01*
X167670307Y-108234307D01*
X167698233Y-108197913D01*
X167734627Y-108150485D01*
X167762748Y-108113837D01*
X167798386Y-108027796D01*
X167820856Y-107973549D01*
X167840676Y-107823000D01*
X167840676Y-107822999D01*
X167836761Y-107793261D01*
X167835700Y-107777076D01*
X167835700Y-99740922D01*
X167836761Y-99724736D01*
X167837214Y-99721296D01*
X167840676Y-99695000D01*
X167831389Y-99624460D01*
X167820856Y-99544451D01*
X167788563Y-99466489D01*
X167762747Y-99404162D01*
X167725174Y-99355197D01*
X167693515Y-99313938D01*
X167670307Y-99283693D01*
X167646503Y-99265427D01*
X167634310Y-99254733D01*
X166933653Y-98554076D01*
X166900168Y-98492753D01*
X166901559Y-98434301D01*
X166911417Y-98397511D01*
X166943063Y-98279408D01*
X166963659Y-98044000D01*
X166943063Y-97808592D01*
X166881903Y-97580337D01*
X166782035Y-97366171D01*
X166646495Y-97172599D01*
X166479401Y-97005505D01*
X166285830Y-96869965D01*
X166071663Y-96770097D01*
X165982261Y-96746142D01*
X165843407Y-96708936D01*
X165608000Y-96688340D01*
X165372592Y-96708936D01*
X165144336Y-96770097D01*
X164930170Y-96869965D01*
X164736598Y-97005505D01*
X164569505Y-97172598D01*
X164439575Y-97358159D01*
X164384998Y-97401784D01*
X164315500Y-97408978D01*
X164253145Y-97377455D01*
X164236425Y-97358159D01*
X164106494Y-97172598D01*
X163939404Y-97005508D01*
X163939404Y-97005507D01*
X163939401Y-97005505D01*
X163745830Y-96869965D01*
X163531663Y-96770097D01*
X163442261Y-96746142D01*
X163303407Y-96708936D01*
X163068000Y-96688340D01*
X162832592Y-96708936D01*
X162604336Y-96770097D01*
X162390170Y-96869965D01*
X162196598Y-97005505D01*
X162029505Y-97172598D01*
X161893965Y-97366170D01*
X161794097Y-97580336D01*
X161732936Y-97808592D01*
X161712340Y-98044000D01*
X161732936Y-98279407D01*
X161736956Y-98294408D01*
X161794097Y-98507663D01*
X161893965Y-98721830D01*
X162029505Y-98915401D01*
X162196599Y-99082495D01*
X162382160Y-99212426D01*
X162425783Y-99267002D01*
X162432976Y-99336501D01*
X162401454Y-99398855D01*
X162382160Y-99415574D01*
X162198105Y-99544451D01*
X162196595Y-99545508D01*
X162029505Y-99712598D01*
X161895749Y-99903623D01*
X161841172Y-99947248D01*
X161794174Y-99956500D01*
X160516323Y-99956500D01*
X160449284Y-99936815D01*
X160414748Y-99903623D01*
X160301997Y-99742598D01*
X160291495Y-99727599D01*
X160124401Y-99560505D01*
X159938839Y-99430573D01*
X159895217Y-99375998D01*
X159888024Y-99306499D01*
X159919546Y-99244145D01*
X159938837Y-99227428D01*
X160124401Y-99097495D01*
X160291495Y-98930401D01*
X160427035Y-98736830D01*
X160526903Y-98522663D01*
X160588063Y-98294408D01*
X160608659Y-98059000D01*
X160588063Y-97823592D01*
X160526903Y-97595337D01*
X160427035Y-97381171D01*
X160291495Y-97187599D01*
X160124401Y-97020505D01*
X159930830Y-96884965D01*
X159906292Y-96873522D01*
X159853855Y-96827351D01*
X159834700Y-96761142D01*
X159834700Y-94106324D01*
X166115500Y-94106324D01*
X166124638Y-94161084D01*
X166157084Y-94355527D01*
X166238078Y-94591452D01*
X166239119Y-94594484D01*
X166359366Y-94816680D01*
X166359367Y-94816681D01*
X166514544Y-95016055D01*
X166532124Y-95032238D01*
X166700423Y-95187168D01*
X166897940Y-95316212D01*
X166911933Y-95325354D01*
X166973510Y-95352364D01*
X167143299Y-95426840D01*
X167388216Y-95488862D01*
X167576942Y-95504500D01*
X167579512Y-95504500D01*
X167700488Y-95504500D01*
X167703058Y-95504500D01*
X167891784Y-95488862D01*
X168136701Y-95426840D01*
X168368069Y-95325353D01*
X168579577Y-95187168D01*
X168765455Y-95016055D01*
X168920634Y-94816680D01*
X169040881Y-94594484D01*
X169122916Y-94355525D01*
X169164500Y-94106324D01*
X169164500Y-93853676D01*
X169122916Y-93604475D01*
X169040881Y-93365516D01*
X168920634Y-93143320D01*
X168808340Y-92999044D01*
X168765455Y-92943944D01*
X168672515Y-92858388D01*
X168579577Y-92772832D01*
X168368069Y-92634647D01*
X168368066Y-92634645D01*
X168136704Y-92533161D01*
X168136702Y-92533160D01*
X168136701Y-92533160D01*
X167891784Y-92471138D01*
X167703058Y-92455500D01*
X167576942Y-92455500D01*
X167574395Y-92455711D01*
X167574396Y-92455711D01*
X167388216Y-92471138D01*
X167143295Y-92533161D01*
X166911933Y-92634645D01*
X166790109Y-92714237D01*
X166700423Y-92772832D01*
X166700421Y-92772833D01*
X166700422Y-92772833D01*
X166514544Y-92943944D01*
X166359367Y-93143318D01*
X166359365Y-93143320D01*
X166359366Y-93143320D01*
X166242003Y-93360188D01*
X166239117Y-93365520D01*
X166157084Y-93604472D01*
X166121328Y-93818753D01*
X166115500Y-93853676D01*
X166115500Y-94106324D01*
X159834700Y-94106324D01*
X159834700Y-93554510D01*
X159854385Y-93487471D01*
X159857125Y-93483387D01*
X159908512Y-93409999D01*
X159918426Y-93395839D01*
X159973002Y-93352216D01*
X160042500Y-93345022D01*
X160104855Y-93376545D01*
X160121571Y-93395837D01*
X160251505Y-93581401D01*
X160418599Y-93748495D01*
X160612170Y-93884035D01*
X160826337Y-93983903D01*
X161054592Y-94045063D01*
X161290000Y-94065659D01*
X161525408Y-94045063D01*
X161753663Y-93983903D01*
X161967830Y-93884035D01*
X162161401Y-93748495D01*
X162328495Y-93581401D01*
X162458426Y-93395839D01*
X162513002Y-93352216D01*
X162582500Y-93345022D01*
X162644855Y-93376545D01*
X162661571Y-93395837D01*
X162791505Y-93581401D01*
X162958599Y-93748495D01*
X163152170Y-93884035D01*
X163366337Y-93983903D01*
X163569352Y-94038300D01*
X163594592Y-94045063D01*
X163829999Y-94065659D01*
X163829999Y-94065658D01*
X163830000Y-94065659D01*
X164065408Y-94045063D01*
X164293663Y-93983903D01*
X164507830Y-93884035D01*
X164701401Y-93748495D01*
X164868495Y-93581401D01*
X165004035Y-93387830D01*
X165103903Y-93173663D01*
X165165063Y-92945408D01*
X165185659Y-92710000D01*
X165165063Y-92474592D01*
X165103903Y-92246337D01*
X165004035Y-92032171D01*
X164936429Y-91935620D01*
X164914104Y-91869418D01*
X164931114Y-91801650D01*
X164982062Y-91753837D01*
X165038006Y-91740500D01*
X167592405Y-91740500D01*
X167636249Y-91740500D01*
X167643736Y-91740726D01*
G37*
%TD.AperFunction*%
%TA.AperFunction,Conductor*%
G36*
X131564788Y-94449385D02*
G01*
X131610543Y-94502189D01*
X131620487Y-94571347D01*
X131596949Y-94628100D01*
X131344125Y-94965199D01*
X131192336Y-95167585D01*
X131183422Y-95179931D01*
X131181545Y-95182530D01*
X131176371Y-95189978D01*
X131166370Y-95204943D01*
X131106586Y-95335850D01*
X131087559Y-95400650D01*
X131086901Y-95402891D01*
X131086900Y-95402895D01*
X131086451Y-95406017D01*
X131086448Y-95406033D01*
X131066420Y-95545333D01*
X131066420Y-96660701D01*
X131046735Y-96727740D01*
X130993931Y-96773495D01*
X130924773Y-96783439D01*
X130879300Y-96767433D01*
X130839203Y-96743720D01*
X130681487Y-96697900D01*
X130679000Y-96697703D01*
X130679000Y-97970000D01*
X131229000Y-97970000D01*
X131229000Y-97568756D01*
X131248685Y-97501717D01*
X131301489Y-97455962D01*
X131370647Y-97446018D01*
X131404509Y-97455961D01*
X131486519Y-97493414D01*
X131553558Y-97513099D01*
X131553562Y-97513100D01*
X131586602Y-97517850D01*
X131650158Y-97546873D01*
X131687933Y-97605651D01*
X131687935Y-97675520D01*
X131650162Y-97734299D01*
X131643270Y-97739853D01*
X131634455Y-97746451D01*
X131548204Y-97861668D01*
X131503620Y-97981206D01*
X131497909Y-97996517D01*
X131491500Y-98056127D01*
X131491500Y-98059448D01*
X131491500Y-98059449D01*
X131491500Y-99128560D01*
X131491500Y-99128578D01*
X131491501Y-99131872D01*
X131491853Y-99135152D01*
X131491854Y-99135159D01*
X131497909Y-99191484D01*
X131511956Y-99229145D01*
X131548204Y-99326331D01*
X131634454Y-99441546D01*
X131749669Y-99527796D01*
X131774781Y-99537162D01*
X131830711Y-99579030D01*
X131855129Y-99644494D01*
X131840278Y-99712767D01*
X131790874Y-99762173D01*
X131770449Y-99771048D01*
X131648513Y-99811453D01*
X131504267Y-99900426D01*
X131384426Y-100020267D01*
X131295453Y-100164513D01*
X131242143Y-100325393D01*
X131232319Y-100421554D01*
X131232000Y-100427832D01*
X131232000Y-100448000D01*
X133181999Y-100448000D01*
X133181999Y-100427834D01*
X133181678Y-100421552D01*
X133171856Y-100325394D01*
X133118546Y-100164513D01*
X133029573Y-100020267D01*
X132909731Y-99900425D01*
X132769675Y-99814037D01*
X132722950Y-99762089D01*
X132711729Y-99693127D01*
X132739572Y-99629045D01*
X132797641Y-99590189D01*
X132834767Y-99584499D01*
X135739872Y-99584499D01*
X135799483Y-99578091D01*
X135814666Y-99572427D01*
X135884355Y-99567442D01*
X135945679Y-99600926D01*
X135979166Y-99662248D01*
X135982000Y-99688609D01*
X135982000Y-99866000D01*
X135962315Y-99933039D01*
X135909511Y-99978794D01*
X135858008Y-99990000D01*
X135844838Y-99990000D01*
X135838551Y-99990321D01*
X135742394Y-100000143D01*
X135581513Y-100053453D01*
X135437267Y-100142426D01*
X135317426Y-100262267D01*
X135228453Y-100406513D01*
X135175143Y-100567393D01*
X135165319Y-100663554D01*
X135165000Y-100669832D01*
X135165000Y-100715000D01*
X136241000Y-100715000D01*
X136308039Y-100734685D01*
X136353794Y-100787489D01*
X136365000Y-100839000D01*
X136365000Y-103433999D01*
X136385165Y-103433999D01*
X136391447Y-103433678D01*
X136487605Y-103423856D01*
X136662242Y-103365988D01*
X136662995Y-103368262D01*
X136710952Y-103355134D01*
X136777618Y-103376048D01*
X136802382Y-103397908D01*
X136834869Y-103435400D01*
X136943620Y-103529634D01*
X137074519Y-103589414D01*
X137141558Y-103609099D01*
X137141562Y-103609100D01*
X137284000Y-103629580D01*
X137284001Y-103629580D01*
X138302678Y-103629580D01*
X138306000Y-103629580D01*
X138413473Y-103618025D01*
X138464984Y-103606819D01*
X138567537Y-103572686D01*
X138567539Y-103572684D01*
X138567541Y-103572684D01*
X138688590Y-103494890D01*
X138688590Y-103494889D01*
X138688596Y-103494886D01*
X138741400Y-103449131D01*
X138835634Y-103340380D01*
X138895414Y-103209481D01*
X138915099Y-103142442D01*
X138915100Y-103142438D01*
X138935580Y-103000000D01*
X138935580Y-100832580D01*
X138955265Y-100765541D01*
X139008069Y-100719786D01*
X139059580Y-100708580D01*
X141806799Y-100708580D01*
X141873838Y-100728265D01*
X141894480Y-100744899D01*
X142118624Y-100969043D01*
X142131562Y-100985192D01*
X142182846Y-101033351D01*
X142185643Y-101036062D01*
X142205204Y-101055623D01*
X142208395Y-101058098D01*
X142217280Y-101065686D01*
X142249230Y-101095691D01*
X142249232Y-101095692D01*
X142249233Y-101095693D01*
X142266878Y-101105393D01*
X142283135Y-101116072D01*
X142299038Y-101128408D01*
X142339262Y-101145814D01*
X142349743Y-101150948D01*
X142388166Y-101172072D01*
X142407217Y-101176963D01*
X142407660Y-101177077D01*
X142426069Y-101183380D01*
X142438214Y-101188635D01*
X142444542Y-101191374D01*
X142487851Y-101198233D01*
X142499258Y-101200595D01*
X142541728Y-101211500D01*
X142561859Y-101211500D01*
X142581256Y-101213026D01*
X142601133Y-101216175D01*
X142641208Y-101212386D01*
X142644770Y-101212050D01*
X142656439Y-101211500D01*
X142739173Y-101211500D01*
X142806212Y-101231185D01*
X142840747Y-101264375D01*
X142974505Y-101455401D01*
X143141599Y-101622495D01*
X143327596Y-101752732D01*
X143371219Y-101807307D01*
X143378412Y-101876806D01*
X143346890Y-101939160D01*
X143327595Y-101955880D01*
X143141919Y-102085892D01*
X142974890Y-102252921D01*
X142839400Y-102446421D01*
X142739569Y-102660507D01*
X142682364Y-102873999D01*
X142682364Y-102874000D01*
X143579314Y-102874000D01*
X143553507Y-102914156D01*
X143513000Y-103052111D01*
X143513000Y-103195889D01*
X143553507Y-103333844D01*
X143579314Y-103374000D01*
X142682364Y-103374000D01*
X142739569Y-103587492D01*
X142839399Y-103801576D01*
X142974893Y-103995081D01*
X143141918Y-104162106D01*
X143335423Y-104297600D01*
X143549509Y-104397430D01*
X143763000Y-104454634D01*
X143763000Y-103559501D01*
X143870685Y-103608680D01*
X143977237Y-103624000D01*
X144048763Y-103624000D01*
X144155315Y-103608680D01*
X144263000Y-103559501D01*
X144263000Y-104454633D01*
X144476490Y-104397430D01*
X144690576Y-104297600D01*
X144884081Y-104162106D01*
X145051106Y-103995081D01*
X145181425Y-103808968D01*
X145236002Y-103765344D01*
X145305501Y-103758151D01*
X145367855Y-103789673D01*
X145384575Y-103808968D01*
X145514893Y-103995081D01*
X145681918Y-104162106D01*
X145875423Y-104297600D01*
X146089509Y-104397430D01*
X146303000Y-104454634D01*
X146303000Y-103559501D01*
X146410685Y-103608680D01*
X146517237Y-103624000D01*
X146588763Y-103624000D01*
X146695315Y-103608680D01*
X146803000Y-103559501D01*
X146803000Y-104454633D01*
X147016490Y-104397430D01*
X147230576Y-104297600D01*
X147424081Y-104162106D01*
X147591106Y-103995081D01*
X147726600Y-103801576D01*
X147826430Y-103587492D01*
X147883636Y-103374000D01*
X146986686Y-103374000D01*
X147012493Y-103333844D01*
X147053000Y-103195889D01*
X147053000Y-103052111D01*
X147012493Y-102914156D01*
X146986686Y-102874000D01*
X147883636Y-102874000D01*
X147883635Y-102873999D01*
X147826430Y-102660507D01*
X147726599Y-102446421D01*
X147591109Y-102252921D01*
X147424081Y-102085893D01*
X147238404Y-101955880D01*
X147194780Y-101901303D01*
X147187587Y-101831804D01*
X147219109Y-101769450D01*
X147238399Y-101752734D01*
X147424401Y-101622495D01*
X147591495Y-101455401D01*
X147725252Y-101264375D01*
X147779829Y-101220751D01*
X147826827Y-101211500D01*
X149094173Y-101211500D01*
X149161212Y-101231185D01*
X149195747Y-101264375D01*
X149329505Y-101455401D01*
X149496599Y-101622495D01*
X149682596Y-101752732D01*
X149726219Y-101807307D01*
X149733412Y-101876806D01*
X149701890Y-101939160D01*
X149682595Y-101955880D01*
X149496919Y-102085892D01*
X149329890Y-102252921D01*
X149194400Y-102446421D01*
X149094569Y-102660507D01*
X149037364Y-102873999D01*
X149037364Y-102874000D01*
X149934314Y-102874000D01*
X149908507Y-102914156D01*
X149868000Y-103052111D01*
X149868000Y-103195889D01*
X149908507Y-103333844D01*
X149934314Y-103374000D01*
X149037364Y-103374000D01*
X149094569Y-103587492D01*
X149194399Y-103801576D01*
X149329893Y-103995081D01*
X149496918Y-104162106D01*
X149690423Y-104297600D01*
X149904509Y-104397430D01*
X150118000Y-104454634D01*
X150118000Y-103559501D01*
X150225685Y-103608680D01*
X150332237Y-103624000D01*
X150403763Y-103624000D01*
X150510315Y-103608680D01*
X150618000Y-103559501D01*
X150618000Y-104454634D01*
X150831490Y-104397430D01*
X151045576Y-104297600D01*
X151239081Y-104162106D01*
X151406106Y-103995081D01*
X151536425Y-103808968D01*
X151591002Y-103765344D01*
X151660501Y-103758151D01*
X151722855Y-103789673D01*
X151739575Y-103808968D01*
X151869893Y-103995081D01*
X152036918Y-104162106D01*
X152230423Y-104297600D01*
X152444509Y-104397430D01*
X152658000Y-104454634D01*
X152658000Y-103559501D01*
X152765685Y-103608680D01*
X152872237Y-103624000D01*
X152943763Y-103624000D01*
X153050315Y-103608680D01*
X153158000Y-103559501D01*
X153158000Y-104454633D01*
X153371490Y-104397430D01*
X153585576Y-104297600D01*
X153779081Y-104162106D01*
X153946106Y-103995081D01*
X154081600Y-103801576D01*
X154181430Y-103587492D01*
X154238636Y-103374000D01*
X153341686Y-103374000D01*
X153367493Y-103333844D01*
X153408000Y-103195889D01*
X153408000Y-103052111D01*
X153367493Y-102914156D01*
X153341686Y-102874000D01*
X154238636Y-102874000D01*
X154238635Y-102873999D01*
X154181430Y-102660507D01*
X154081599Y-102446421D01*
X153946109Y-102252921D01*
X153779081Y-102085893D01*
X153593404Y-101955880D01*
X153549780Y-101901303D01*
X153542587Y-101831804D01*
X153574109Y-101769450D01*
X153593399Y-101752734D01*
X153779401Y-101622495D01*
X153946495Y-101455401D01*
X154069749Y-101279376D01*
X154124325Y-101235752D01*
X154171323Y-101226500D01*
X155439173Y-101226500D01*
X155506212Y-101246185D01*
X155540747Y-101279375D01*
X155674505Y-101470401D01*
X155841599Y-101637495D01*
X156027596Y-101767732D01*
X156071219Y-101822307D01*
X156078412Y-101891806D01*
X156046890Y-101954160D01*
X156027595Y-101970880D01*
X155841919Y-102100892D01*
X155674890Y-102267921D01*
X155539400Y-102461421D01*
X155439569Y-102675507D01*
X155382364Y-102888999D01*
X155382364Y-102889000D01*
X156279314Y-102889000D01*
X156253507Y-102929156D01*
X156213000Y-103067111D01*
X156213000Y-103210889D01*
X156253507Y-103348844D01*
X156279314Y-103389000D01*
X155382364Y-103389000D01*
X155439569Y-103602492D01*
X155539399Y-103816576D01*
X155674893Y-104010081D01*
X155841918Y-104177106D01*
X156035423Y-104312600D01*
X156249509Y-104412430D01*
X156463000Y-104469634D01*
X156463000Y-103574501D01*
X156570685Y-103623680D01*
X156677237Y-103639000D01*
X156748763Y-103639000D01*
X156855315Y-103623680D01*
X156963000Y-103574501D01*
X156963000Y-104469634D01*
X157176490Y-104412430D01*
X157390576Y-104312600D01*
X157584081Y-104177106D01*
X157751106Y-104010081D01*
X157881425Y-103823968D01*
X157936002Y-103780344D01*
X158005501Y-103773151D01*
X158067855Y-103804673D01*
X158084575Y-103823968D01*
X158214893Y-104010081D01*
X158381918Y-104177106D01*
X158575423Y-104312600D01*
X158789509Y-104412430D01*
X159003000Y-104469634D01*
X159003000Y-103574501D01*
X159110685Y-103623680D01*
X159217237Y-103639000D01*
X159288763Y-103639000D01*
X159395315Y-103623680D01*
X159503000Y-103574501D01*
X159503000Y-104469634D01*
X159716490Y-104412430D01*
X159930576Y-104312600D01*
X160124081Y-104177106D01*
X160291106Y-104010081D01*
X160426600Y-103816576D01*
X160526430Y-103602492D01*
X160583636Y-103389000D01*
X159686686Y-103389000D01*
X159712493Y-103348844D01*
X159753000Y-103210889D01*
X159753000Y-103067111D01*
X159712493Y-102929156D01*
X159686686Y-102889000D01*
X160583636Y-102889000D01*
X160583635Y-102888999D01*
X160526430Y-102675507D01*
X160426599Y-102461421D01*
X160291109Y-102267921D01*
X160124081Y-102100893D01*
X159938404Y-101970880D01*
X159894780Y-101916303D01*
X159887587Y-101846804D01*
X159919109Y-101784450D01*
X159938399Y-101767734D01*
X160124401Y-101637495D01*
X160291495Y-101470401D01*
X160427035Y-101276830D01*
X160427036Y-101276826D01*
X160433257Y-101267943D01*
X160435854Y-101269761D01*
X160470277Y-101230661D01*
X160536495Y-101211500D01*
X161794173Y-101211500D01*
X161861212Y-101231185D01*
X161895747Y-101264375D01*
X162029505Y-101455401D01*
X162196599Y-101622495D01*
X162382596Y-101752732D01*
X162426219Y-101807307D01*
X162433412Y-101876806D01*
X162401890Y-101939160D01*
X162382595Y-101955880D01*
X162196919Y-102085892D01*
X162029890Y-102252921D01*
X161894400Y-102446421D01*
X161794569Y-102660507D01*
X161737364Y-102873999D01*
X161737364Y-102874000D01*
X162634314Y-102874000D01*
X162608507Y-102914156D01*
X162568000Y-103052111D01*
X162568000Y-103195889D01*
X162608507Y-103333844D01*
X162634314Y-103374000D01*
X161737364Y-103374000D01*
X161794569Y-103587492D01*
X161894399Y-103801576D01*
X162029893Y-103995081D01*
X162196918Y-104162106D01*
X162390423Y-104297600D01*
X162604509Y-104397430D01*
X162818000Y-104454634D01*
X162818000Y-103559501D01*
X162925685Y-103608680D01*
X163032237Y-103624000D01*
X163103763Y-103624000D01*
X163210315Y-103608680D01*
X163318000Y-103559501D01*
X163318000Y-104454634D01*
X163531490Y-104397430D01*
X163745576Y-104297600D01*
X163939081Y-104162106D01*
X164106106Y-103995081D01*
X164236425Y-103808968D01*
X164291002Y-103765344D01*
X164360501Y-103758151D01*
X164422855Y-103789673D01*
X164439575Y-103808968D01*
X164569893Y-103995081D01*
X164736918Y-104162106D01*
X164930423Y-104297600D01*
X165144509Y-104397430D01*
X165358000Y-104454634D01*
X165358000Y-103559501D01*
X165465685Y-103608680D01*
X165572237Y-103624000D01*
X165643763Y-103624000D01*
X165750315Y-103608680D01*
X165858000Y-103559501D01*
X165858000Y-104454634D01*
X166071490Y-104397430D01*
X166124895Y-104372528D01*
X166193973Y-104362036D01*
X166257757Y-104390556D01*
X166295996Y-104449032D01*
X166301300Y-104484910D01*
X166301300Y-105373089D01*
X166281615Y-105440128D01*
X166228811Y-105485883D01*
X166159653Y-105495827D01*
X166124896Y-105485471D01*
X166071495Y-105460570D01*
X165858000Y-105403364D01*
X165858000Y-106298498D01*
X165750315Y-106249320D01*
X165643763Y-106234000D01*
X165572237Y-106234000D01*
X165465685Y-106249320D01*
X165358000Y-106298498D01*
X165358000Y-105403364D01*
X165357999Y-105403364D01*
X165144507Y-105460569D01*
X164930421Y-105560400D01*
X164736924Y-105695888D01*
X164614865Y-105817947D01*
X164553542Y-105851431D01*
X164483850Y-105846447D01*
X164427917Y-105804575D01*
X164411002Y-105773598D01*
X164382018Y-105695888D01*
X164361796Y-105641669D01*
X164275546Y-105526454D01*
X164160331Y-105440204D01*
X164025483Y-105389909D01*
X163965873Y-105383500D01*
X163962550Y-105383500D01*
X162173439Y-105383500D01*
X162173420Y-105383500D01*
X162170128Y-105383501D01*
X162166848Y-105383853D01*
X162166840Y-105383854D01*
X162110515Y-105389909D01*
X161975669Y-105440204D01*
X161860454Y-105526454D01*
X161774204Y-105641668D01*
X161723909Y-105776516D01*
X161719455Y-105817947D01*
X161717500Y-105836127D01*
X161717499Y-105839448D01*
X161717500Y-105839449D01*
X161717500Y-107217559D01*
X161697815Y-107284598D01*
X161681183Y-107305239D01*
X161649443Y-107336980D01*
X161588120Y-107370466D01*
X161561760Y-107373300D01*
X160644091Y-107373300D01*
X160577052Y-107353615D01*
X160531297Y-107300811D01*
X160521353Y-107231653D01*
X160530526Y-107200864D01*
X160588636Y-106984000D01*
X159691686Y-106984000D01*
X159717493Y-106943844D01*
X159758000Y-106805889D01*
X159758000Y-106662111D01*
X159717493Y-106524156D01*
X159691686Y-106484000D01*
X160588636Y-106484000D01*
X160588635Y-106483999D01*
X160531430Y-106270507D01*
X160431599Y-106056421D01*
X160296109Y-105862921D01*
X160129081Y-105695893D01*
X159935576Y-105560399D01*
X159721492Y-105460569D01*
X159508000Y-105403364D01*
X159508000Y-106298498D01*
X159400315Y-106249320D01*
X159293763Y-106234000D01*
X159222237Y-106234000D01*
X159115685Y-106249320D01*
X159008000Y-106298498D01*
X159008000Y-105403364D01*
X159007999Y-105403364D01*
X158794507Y-105460569D01*
X158580421Y-105560400D01*
X158386924Y-105695888D01*
X158264865Y-105817947D01*
X158203542Y-105851431D01*
X158133850Y-105846447D01*
X158077917Y-105804575D01*
X158061002Y-105773598D01*
X158032018Y-105695888D01*
X158011796Y-105641669D01*
X157925546Y-105526454D01*
X157810331Y-105440204D01*
X157675483Y-105389909D01*
X157615873Y-105383500D01*
X157612550Y-105383500D01*
X155823439Y-105383500D01*
X155823420Y-105383500D01*
X155820128Y-105383501D01*
X155816848Y-105383853D01*
X155816840Y-105383854D01*
X155760515Y-105389909D01*
X155625669Y-105440204D01*
X155510454Y-105526454D01*
X155424204Y-105641668D01*
X155373909Y-105776516D01*
X155369455Y-105817947D01*
X155367500Y-105836127D01*
X155367500Y-105839449D01*
X155367500Y-106033300D01*
X155347815Y-106100339D01*
X155295011Y-106146094D01*
X155243500Y-106157300D01*
X154931923Y-106157300D01*
X154915738Y-106156239D01*
X154912547Y-106155819D01*
X154885999Y-106152323D01*
X154852142Y-106156781D01*
X154848203Y-106157300D01*
X154833360Y-106159254D01*
X154735452Y-106172143D01*
X154711380Y-106182113D01*
X154694361Y-106189163D01*
X154644761Y-106209707D01*
X154595161Y-106230253D01*
X154504938Y-106299485D01*
X154474691Y-106322694D01*
X154456431Y-106346490D01*
X154445739Y-106358682D01*
X154403844Y-106400577D01*
X154342521Y-106434062D01*
X154272829Y-106429078D01*
X154216896Y-106387206D01*
X154196388Y-106344990D01*
X154176430Y-106270507D01*
X154076599Y-106056421D01*
X153941109Y-105862921D01*
X153774081Y-105695893D01*
X153580576Y-105560399D01*
X153366492Y-105460569D01*
X153153000Y-105403364D01*
X153153000Y-106298498D01*
X153045315Y-106249320D01*
X152938763Y-106234000D01*
X152867237Y-106234000D01*
X152760685Y-106249320D01*
X152653000Y-106298498D01*
X152653000Y-105403364D01*
X152652999Y-105403364D01*
X152439507Y-105460569D01*
X152225421Y-105560400D01*
X152031924Y-105695888D01*
X151909865Y-105817947D01*
X151848542Y-105851431D01*
X151778850Y-105846447D01*
X151722917Y-105804575D01*
X151706002Y-105773598D01*
X151677018Y-105695888D01*
X151656796Y-105641669D01*
X151570546Y-105526454D01*
X151455331Y-105440204D01*
X151320483Y-105389909D01*
X151260873Y-105383500D01*
X151257550Y-105383500D01*
X149468439Y-105383500D01*
X149468420Y-105383500D01*
X149465128Y-105383501D01*
X149461848Y-105383853D01*
X149461840Y-105383854D01*
X149405515Y-105389909D01*
X149270669Y-105440204D01*
X149155454Y-105526454D01*
X149069204Y-105641668D01*
X149018909Y-105776516D01*
X149014455Y-105817947D01*
X149012500Y-105836127D01*
X149012500Y-105839448D01*
X149012500Y-105839449D01*
X149012500Y-107628560D01*
X149012500Y-107628578D01*
X149012501Y-107631872D01*
X149012853Y-107635152D01*
X149012854Y-107635159D01*
X149014455Y-107650053D01*
X149018909Y-107691483D01*
X149069204Y-107826331D01*
X149155454Y-107941546D01*
X149270669Y-108027796D01*
X149405517Y-108078091D01*
X149465127Y-108084500D01*
X149662300Y-108084499D01*
X149729339Y-108104183D01*
X149775094Y-108156987D01*
X149786300Y-108208499D01*
X149786300Y-108426760D01*
X149766615Y-108493799D01*
X149749981Y-108514441D01*
X146560075Y-111704346D01*
X146498752Y-111737831D01*
X146440301Y-111736440D01*
X146381807Y-111720766D01*
X146285406Y-111694936D01*
X146050000Y-111674340D01*
X145814592Y-111694936D01*
X145586336Y-111756097D01*
X145372170Y-111855965D01*
X145178598Y-111991505D01*
X145011505Y-112158598D01*
X144881575Y-112344159D01*
X144826998Y-112387784D01*
X144757500Y-112394978D01*
X144695145Y-112363455D01*
X144678425Y-112344159D01*
X144612125Y-112249472D01*
X144589798Y-112183266D01*
X144589700Y-112178349D01*
X144589700Y-108208499D01*
X144609385Y-108141460D01*
X144662189Y-108095705D01*
X144713700Y-108084499D01*
X144907561Y-108084499D01*
X144910872Y-108084499D01*
X144970483Y-108078091D01*
X145105331Y-108027796D01*
X145220546Y-107941546D01*
X145306796Y-107826331D01*
X145356003Y-107694399D01*
X145397873Y-107638467D01*
X145463337Y-107614050D01*
X145531610Y-107628901D01*
X145559865Y-107650053D01*
X145681918Y-107772106D01*
X145875423Y-107907600D01*
X146089509Y-108007430D01*
X146303000Y-108064634D01*
X146303000Y-107169501D01*
X146410685Y-107218680D01*
X146517237Y-107234000D01*
X146588763Y-107234000D01*
X146695315Y-107218680D01*
X146803000Y-107169501D01*
X146803000Y-108064633D01*
X147016490Y-108007430D01*
X147230576Y-107907600D01*
X147424081Y-107772106D01*
X147591106Y-107605081D01*
X147726600Y-107411576D01*
X147826430Y-107197492D01*
X147883636Y-106984000D01*
X146986686Y-106984000D01*
X147012493Y-106943844D01*
X147053000Y-106805889D01*
X147053000Y-106662111D01*
X147012493Y-106524156D01*
X146986686Y-106484000D01*
X147883636Y-106484000D01*
X147883635Y-106483999D01*
X147826430Y-106270507D01*
X147726599Y-106056421D01*
X147591109Y-105862921D01*
X147424081Y-105695893D01*
X147230576Y-105560399D01*
X147016492Y-105460569D01*
X146803000Y-105403364D01*
X146803000Y-106298498D01*
X146695315Y-106249320D01*
X146588763Y-106234000D01*
X146517237Y-106234000D01*
X146410685Y-106249320D01*
X146303000Y-106298498D01*
X146303000Y-105403364D01*
X146302999Y-105403364D01*
X146089507Y-105460569D01*
X145875421Y-105560400D01*
X145681924Y-105695888D01*
X145559865Y-105817947D01*
X145498542Y-105851431D01*
X145428850Y-105846447D01*
X145372917Y-105804575D01*
X145356002Y-105773598D01*
X145327018Y-105695888D01*
X145306796Y-105641669D01*
X145220546Y-105526454D01*
X145105331Y-105440204D01*
X144970483Y-105389909D01*
X144910873Y-105383500D01*
X144907550Y-105383500D01*
X143118439Y-105383500D01*
X143118420Y-105383500D01*
X143115128Y-105383501D01*
X143111848Y-105383853D01*
X143111840Y-105383854D01*
X143055515Y-105389909D01*
X142920669Y-105440204D01*
X142805454Y-105526454D01*
X142719204Y-105641668D01*
X142668909Y-105776516D01*
X142664455Y-105817947D01*
X142662500Y-105836127D01*
X142662500Y-105839448D01*
X142662500Y-105839449D01*
X142662500Y-107628560D01*
X142662500Y-107628578D01*
X142662501Y-107631872D01*
X142662853Y-107635152D01*
X142662854Y-107635159D01*
X142664455Y-107650053D01*
X142668909Y-107691483D01*
X142719204Y-107826331D01*
X142805454Y-107941546D01*
X142920669Y-108027796D01*
X143055517Y-108078091D01*
X143115127Y-108084500D01*
X143312300Y-108084499D01*
X143379339Y-108104183D01*
X143425094Y-108156987D01*
X143436300Y-108208499D01*
X143436300Y-111567163D01*
X143416615Y-111634202D01*
X143363811Y-111679957D01*
X143323109Y-111690691D01*
X143274592Y-111694936D01*
X143046336Y-111756097D01*
X142832170Y-111855965D01*
X142638598Y-111991505D01*
X142471505Y-112158598D01*
X142341575Y-112344159D01*
X142286998Y-112387784D01*
X142217500Y-112394978D01*
X142155145Y-112363455D01*
X142138425Y-112344159D01*
X142008494Y-112158598D01*
X141841404Y-111991508D01*
X141841401Y-111991505D01*
X141647830Y-111855965D01*
X141433663Y-111756097D01*
X141354095Y-111734777D01*
X141205407Y-111694936D01*
X140970000Y-111674340D01*
X140734593Y-111694936D01*
X140579697Y-111736440D01*
X140509847Y-111734777D01*
X140459923Y-111704346D01*
X139848019Y-111092442D01*
X139814534Y-111031119D01*
X139811700Y-111004761D01*
X139811700Y-109315991D01*
X139831385Y-109248952D01*
X139884189Y-109203197D01*
X139892345Y-109199817D01*
X140002331Y-109158796D01*
X140117546Y-109072546D01*
X140203796Y-108957331D01*
X140254091Y-108822483D01*
X140260500Y-108762873D01*
X140260499Y-108017128D01*
X140254091Y-107957517D01*
X140203796Y-107822669D01*
X140117546Y-107707454D01*
X140002331Y-107621204D01*
X139867483Y-107570909D01*
X139807873Y-107564500D01*
X139804550Y-107564500D01*
X138665439Y-107564500D01*
X138665420Y-107564500D01*
X138662128Y-107564501D01*
X138658848Y-107564853D01*
X138658840Y-107564854D01*
X138602515Y-107570909D01*
X138467669Y-107621204D01*
X138352453Y-107707454D01*
X138310415Y-107763611D01*
X138254481Y-107805482D01*
X138211148Y-107813300D01*
X136108852Y-107813300D01*
X136041813Y-107793615D01*
X136009585Y-107763611D01*
X135967546Y-107707454D01*
X135852331Y-107621204D01*
X135717483Y-107570909D01*
X135661166Y-107564854D01*
X135661165Y-107564853D01*
X135657873Y-107564500D01*
X135654550Y-107564500D01*
X134515439Y-107564500D01*
X134515420Y-107564500D01*
X134512128Y-107564501D01*
X134508848Y-107564853D01*
X134508840Y-107564854D01*
X134452515Y-107570909D01*
X134317669Y-107621204D01*
X134202454Y-107707454D01*
X134116204Y-107822668D01*
X134065909Y-107957516D01*
X134060543Y-108007430D01*
X134059500Y-108017127D01*
X134059500Y-108020448D01*
X134059500Y-108020449D01*
X134059500Y-108759560D01*
X134059500Y-108759578D01*
X134059501Y-108762872D01*
X134059853Y-108766152D01*
X134059854Y-108766159D01*
X134065909Y-108822484D01*
X134083482Y-108869600D01*
X134116204Y-108957331D01*
X134202454Y-109072546D01*
X134317669Y-109158796D01*
X134452517Y-109209091D01*
X134512127Y-109215500D01*
X135657872Y-109215499D01*
X135717483Y-109209091D01*
X135852331Y-109158796D01*
X135967546Y-109072546D01*
X136009584Y-109016389D01*
X136065519Y-108974518D01*
X136108852Y-108966700D01*
X138211148Y-108966700D01*
X138278187Y-108986385D01*
X138310415Y-109016389D01*
X138352454Y-109072546D01*
X138467669Y-109158796D01*
X138577635Y-109199810D01*
X138633567Y-109241680D01*
X138657984Y-109307144D01*
X138658300Y-109315991D01*
X138658300Y-111249076D01*
X138657239Y-111265261D01*
X138653323Y-111294999D01*
X138667996Y-111406446D01*
X138673144Y-111445549D01*
X138687655Y-111480581D01*
X138702419Y-111516225D01*
X138709888Y-111585695D01*
X138678613Y-111648174D01*
X138618524Y-111683826D01*
X138577051Y-111687206D01*
X138430000Y-111674340D01*
X138194592Y-111694936D01*
X137966336Y-111756097D01*
X137752170Y-111855965D01*
X137558598Y-111991505D01*
X137391505Y-112158598D01*
X137261575Y-112344159D01*
X137206998Y-112387784D01*
X137137500Y-112394978D01*
X137075145Y-112363455D01*
X137058425Y-112344159D01*
X136928494Y-112158598D01*
X136761404Y-111991508D01*
X136761401Y-111991505D01*
X136567830Y-111855965D01*
X136353663Y-111756097D01*
X136274095Y-111734777D01*
X136125407Y-111694936D01*
X135889999Y-111674340D01*
X135654592Y-111694936D01*
X135426336Y-111756097D01*
X135212170Y-111855965D01*
X135018598Y-111991505D01*
X134851508Y-112158595D01*
X134721269Y-112344596D01*
X134666692Y-112388220D01*
X134597193Y-112395413D01*
X134534839Y-112363891D01*
X134518119Y-112344595D01*
X134388109Y-112158921D01*
X134221081Y-111991893D01*
X134027576Y-111856399D01*
X133813492Y-111756569D01*
X133600000Y-111699364D01*
X133600000Y-112594498D01*
X133492315Y-112545320D01*
X133385763Y-112530000D01*
X133314237Y-112530000D01*
X133207685Y-112545320D01*
X133099999Y-112594498D01*
X133099999Y-111699364D01*
X132886507Y-111756569D01*
X132672421Y-111856400D01*
X132478921Y-111991890D01*
X132311893Y-112158918D01*
X132181880Y-112344596D01*
X132127303Y-112388220D01*
X132057804Y-112395413D01*
X131995450Y-112363891D01*
X131978730Y-112344595D01*
X131848495Y-112158599D01*
X131681401Y-111991505D01*
X131487830Y-111855965D01*
X131273663Y-111756097D01*
X131194095Y-111734777D01*
X131045407Y-111694936D01*
X130810000Y-111674340D01*
X130574592Y-111694936D01*
X130346336Y-111756097D01*
X130132170Y-111855965D01*
X129938598Y-111991505D01*
X129771505Y-112158598D01*
X129641575Y-112344159D01*
X129586998Y-112387784D01*
X129517500Y-112394978D01*
X129455145Y-112363455D01*
X129438425Y-112344159D01*
X129308494Y-112158598D01*
X129141404Y-111991508D01*
X129141403Y-111991508D01*
X129141401Y-111991505D01*
X128947830Y-111855965D01*
X128947826Y-111855963D01*
X128918293Y-111842191D01*
X128865855Y-111796018D01*
X128846700Y-111729810D01*
X128846700Y-111547620D01*
X128866385Y-111480581D01*
X128883014Y-111459944D01*
X132582320Y-107760637D01*
X132594505Y-107749951D01*
X132618307Y-107731689D01*
X132646919Y-107694401D01*
X132663763Y-107672451D01*
X132689839Y-107638467D01*
X132710747Y-107611220D01*
X132768856Y-107470931D01*
X132788676Y-107320382D01*
X132788676Y-107320381D01*
X132784761Y-107290643D01*
X132783700Y-107274458D01*
X132783700Y-106805889D01*
X132783700Y-106490000D01*
X134060000Y-106490000D01*
X134060000Y-106609518D01*
X134060354Y-106616132D01*
X134066400Y-106672371D01*
X134116647Y-106807089D01*
X134202811Y-106922188D01*
X134317910Y-107008352D01*
X134452628Y-107058599D01*
X134508867Y-107064645D01*
X134515482Y-107065000D01*
X134835000Y-107065000D01*
X134835000Y-106490000D01*
X135335000Y-106490000D01*
X135335000Y-107065000D01*
X135654518Y-107065000D01*
X135661132Y-107064645D01*
X135717371Y-107058599D01*
X135852089Y-107008352D01*
X135967188Y-106922188D01*
X136053352Y-106807089D01*
X136103599Y-106672371D01*
X136109645Y-106616132D01*
X136110000Y-106609518D01*
X136110000Y-106490000D01*
X138210000Y-106490000D01*
X138210000Y-106609518D01*
X138210354Y-106616132D01*
X138216400Y-106672371D01*
X138266647Y-106807089D01*
X138352811Y-106922188D01*
X138467910Y-107008352D01*
X138602628Y-107058599D01*
X138658867Y-107064645D01*
X138665482Y-107065000D01*
X138985000Y-107065000D01*
X138985000Y-106490000D01*
X139485000Y-106490000D01*
X139485000Y-107065000D01*
X139804518Y-107065000D01*
X139811132Y-107064645D01*
X139867371Y-107058599D01*
X140002089Y-107008352D01*
X140117188Y-106922188D01*
X140203352Y-106807089D01*
X140253599Y-106672371D01*
X140259645Y-106616132D01*
X140260000Y-106609518D01*
X140260000Y-106490000D01*
X139485000Y-106490000D01*
X138985000Y-106490000D01*
X138210000Y-106490000D01*
X136110000Y-106490000D01*
X135335000Y-106490000D01*
X134835000Y-106490000D01*
X134060000Y-106490000D01*
X132783700Y-106490000D01*
X132783700Y-106241101D01*
X132803383Y-106174066D01*
X132842603Y-106135566D01*
X132894700Y-106103432D01*
X132910044Y-106093968D01*
X133014012Y-105990000D01*
X134060000Y-105990000D01*
X134835000Y-105990000D01*
X134835000Y-105415000D01*
X135335000Y-105415000D01*
X135335000Y-105990000D01*
X136110000Y-105990000D01*
X138210000Y-105990000D01*
X138985000Y-105990000D01*
X138985000Y-105415000D01*
X139485000Y-105415000D01*
X139485000Y-105990000D01*
X140260000Y-105990000D01*
X140260000Y-105870481D01*
X140259645Y-105863867D01*
X140253599Y-105807628D01*
X140203352Y-105672910D01*
X140117188Y-105557811D01*
X140002089Y-105471647D01*
X139867371Y-105421400D01*
X139811132Y-105415354D01*
X139804518Y-105415000D01*
X139485000Y-105415000D01*
X138985000Y-105415000D01*
X138665482Y-105415000D01*
X138658867Y-105415354D01*
X138602628Y-105421400D01*
X138467910Y-105471647D01*
X138352811Y-105557811D01*
X138266647Y-105672910D01*
X138216400Y-105807628D01*
X138210354Y-105863867D01*
X138210000Y-105870481D01*
X138210000Y-105990000D01*
X136110000Y-105990000D01*
X136110000Y-105870481D01*
X136109645Y-105863867D01*
X136103599Y-105807628D01*
X136053352Y-105672910D01*
X135967188Y-105557811D01*
X135852089Y-105471647D01*
X135717371Y-105421400D01*
X135661132Y-105415354D01*
X135654518Y-105415000D01*
X135335000Y-105415000D01*
X134835000Y-105415000D01*
X134515482Y-105415000D01*
X134508867Y-105415354D01*
X134452628Y-105421400D01*
X134317910Y-105471647D01*
X134202811Y-105557811D01*
X134116647Y-105672910D01*
X134066400Y-105807628D01*
X134060354Y-105863867D01*
X134060000Y-105870481D01*
X134060000Y-105990000D01*
X133014012Y-105990000D01*
X133029968Y-105974044D01*
X133080336Y-105892385D01*
X133119002Y-105829699D01*
X133122897Y-105817947D01*
X133172349Y-105668708D01*
X133182500Y-105569345D01*
X133182499Y-105022656D01*
X133172349Y-104923292D01*
X133119003Y-104762303D01*
X133119002Y-104762302D01*
X133119002Y-104762300D01*
X133029969Y-104617957D01*
X133020341Y-104608329D01*
X132986854Y-104547007D01*
X132991837Y-104477315D01*
X133020341Y-104432963D01*
X133029572Y-104423732D01*
X133118546Y-104279484D01*
X133171856Y-104118606D01*
X133181680Y-104022445D01*
X133182000Y-104016167D01*
X133182000Y-103996000D01*
X132127900Y-103996000D01*
X132060861Y-103976315D01*
X132015106Y-103923511D01*
X132003900Y-103872000D01*
X132003900Y-103620000D01*
X132023585Y-103552961D01*
X132076389Y-103507206D01*
X132127900Y-103496000D01*
X133181999Y-103496000D01*
X133181999Y-103475834D01*
X133181678Y-103469552D01*
X133171856Y-103373394D01*
X133118546Y-103212513D01*
X133026060Y-103062572D01*
X133007619Y-102995180D01*
X133026060Y-102932377D01*
X133029963Y-102926048D01*
X133029968Y-102926044D01*
X133119003Y-102781697D01*
X133143092Y-102709000D01*
X135165001Y-102709000D01*
X135165001Y-102754165D01*
X135165321Y-102760447D01*
X135175143Y-102856605D01*
X135228453Y-103017486D01*
X135317426Y-103161732D01*
X135437267Y-103281573D01*
X135581513Y-103370546D01*
X135742393Y-103423856D01*
X135838536Y-103433678D01*
X135844851Y-103433999D01*
X135865000Y-103433999D01*
X135865000Y-102709000D01*
X135165001Y-102709000D01*
X133143092Y-102709000D01*
X133172349Y-102620708D01*
X133182500Y-102521345D01*
X133182499Y-102209000D01*
X135165000Y-102209000D01*
X135865000Y-102209000D01*
X135865000Y-101215000D01*
X135165001Y-101215000D01*
X135165001Y-101260165D01*
X135165321Y-101266447D01*
X135175143Y-101362605D01*
X135228453Y-101523484D01*
X135304579Y-101646901D01*
X135323020Y-101714293D01*
X135304579Y-101777096D01*
X135228453Y-101900513D01*
X135175143Y-102061393D01*
X135165319Y-102157554D01*
X135165000Y-102163832D01*
X135165000Y-102209000D01*
X133182499Y-102209000D01*
X133182499Y-101974656D01*
X133172349Y-101875292D01*
X133119003Y-101714303D01*
X133119002Y-101714302D01*
X133119002Y-101714300D01*
X133029969Y-101569957D01*
X133020341Y-101560329D01*
X132986854Y-101499007D01*
X132991837Y-101429315D01*
X133020341Y-101384963D01*
X133029572Y-101375732D01*
X133118546Y-101231484D01*
X133171856Y-101070606D01*
X133181680Y-100974445D01*
X133182000Y-100968167D01*
X133182000Y-100948000D01*
X131232001Y-100948000D01*
X131232001Y-100968165D01*
X131232321Y-100974447D01*
X131242143Y-101070605D01*
X131295453Y-101231486D01*
X131384426Y-101375732D01*
X131393659Y-101384965D01*
X131427144Y-101446288D01*
X131422160Y-101515980D01*
X131393661Y-101560325D01*
X131384031Y-101569954D01*
X131357853Y-101612397D01*
X131305905Y-101659122D01*
X131252315Y-101671300D01*
X130441457Y-101671300D01*
X130374418Y-101651615D01*
X130353776Y-101634981D01*
X128619913Y-99901118D01*
X128586428Y-99839795D01*
X128591412Y-99770103D01*
X128633284Y-99714170D01*
X128698748Y-99689753D01*
X128742189Y-99694361D01*
X128906506Y-99742099D01*
X128908999Y-99742295D01*
X128909000Y-99742295D01*
X128909000Y-98470000D01*
X129409000Y-98470000D01*
X129409000Y-99742295D01*
X129411488Y-99742099D01*
X129569200Y-99696280D01*
X129724040Y-99604709D01*
X129725173Y-99606625D01*
X129767633Y-99583437D01*
X129837325Y-99588416D01*
X129863606Y-99605306D01*
X129863960Y-99604709D01*
X130018799Y-99696280D01*
X130176511Y-99742099D01*
X130178999Y-99742295D01*
X130179000Y-99742295D01*
X130179000Y-98470000D01*
X130679000Y-98470000D01*
X130679000Y-99742295D01*
X130681488Y-99742099D01*
X130839200Y-99696280D01*
X130980557Y-99612682D01*
X131096682Y-99496557D01*
X131180282Y-99355197D01*
X131226099Y-99197493D01*
X131228808Y-99163076D01*
X131229000Y-99158196D01*
X131229000Y-98470000D01*
X130679000Y-98470000D01*
X130179000Y-98470000D01*
X129409000Y-98470000D01*
X128909000Y-98470000D01*
X127890700Y-98470000D01*
X127823661Y-98450315D01*
X127777906Y-98397511D01*
X127766700Y-98346000D01*
X127766700Y-98094000D01*
X127786385Y-98026961D01*
X127839189Y-97981206D01*
X127890700Y-97970000D01*
X128909000Y-97970000D01*
X129409000Y-97970000D01*
X130178999Y-97970000D01*
X130179000Y-96697703D01*
X130176512Y-96697900D01*
X130018799Y-96743719D01*
X129863961Y-96835291D01*
X129862828Y-96833375D01*
X129820349Y-96856566D01*
X129750658Y-96851577D01*
X129724390Y-96834696D01*
X129724039Y-96835291D01*
X129569200Y-96743719D01*
X129411487Y-96697900D01*
X129409000Y-96697703D01*
X129409000Y-97970000D01*
X128909000Y-97970000D01*
X128909000Y-96697703D01*
X128906512Y-96697900D01*
X128748799Y-96743719D01*
X128593960Y-96835291D01*
X128592826Y-96833374D01*
X128550358Y-96856564D01*
X128480666Y-96851580D01*
X128454392Y-96834694D01*
X128454040Y-96835291D01*
X128299197Y-96743717D01*
X128165475Y-96704867D01*
X128106589Y-96667261D01*
X128077383Y-96603788D01*
X128081684Y-96548901D01*
X128084086Y-96541196D01*
X128090500Y-96470616D01*
X128090500Y-95807384D01*
X128084086Y-95736804D01*
X128033478Y-95574394D01*
X127981771Y-95488861D01*
X127952929Y-95441149D01*
X127935093Y-95373594D01*
X127952929Y-95312849D01*
X128033478Y-95179606D01*
X128084086Y-95017196D01*
X128090500Y-94946616D01*
X128090500Y-94553700D01*
X128110185Y-94486661D01*
X128162989Y-94440906D01*
X128214500Y-94429700D01*
X131497749Y-94429700D01*
X131564788Y-94449385D01*
G37*
%TD.AperFunction*%
%TA.AperFunction,Conductor*%
G36*
X158793507Y-102929156D02*
G01*
X158753000Y-103067111D01*
X158753000Y-103210889D01*
X158793507Y-103348844D01*
X158819314Y-103389000D01*
X157146686Y-103389000D01*
X157172493Y-103348844D01*
X157213000Y-103210889D01*
X157213000Y-103067111D01*
X157172493Y-102929156D01*
X157146686Y-102889000D01*
X158819314Y-102889000D01*
X158793507Y-102929156D01*
G37*
%TD.AperFunction*%
%TA.AperFunction,Conductor*%
G36*
X146093507Y-102914156D02*
G01*
X146053000Y-103052111D01*
X146053000Y-103195889D01*
X146093507Y-103333844D01*
X146119314Y-103374000D01*
X144446686Y-103374000D01*
X144472493Y-103333844D01*
X144513000Y-103195889D01*
X144513000Y-103052111D01*
X144472493Y-102914156D01*
X144446686Y-102874000D01*
X146119314Y-102874000D01*
X146093507Y-102914156D01*
G37*
%TD.AperFunction*%
%TA.AperFunction,Conductor*%
G36*
X152448507Y-102914156D02*
G01*
X152408000Y-103052111D01*
X152408000Y-103195889D01*
X152448507Y-103333844D01*
X152474314Y-103374000D01*
X150801686Y-103374000D01*
X150827493Y-103333844D01*
X150868000Y-103195889D01*
X150868000Y-103052111D01*
X150827493Y-102914156D01*
X150801686Y-102874000D01*
X152474314Y-102874000D01*
X152448507Y-102914156D01*
G37*
%TD.AperFunction*%
%TA.AperFunction,Conductor*%
G36*
X165148507Y-102914156D02*
G01*
X165108000Y-103052111D01*
X165108000Y-103195889D01*
X165148507Y-103333844D01*
X165174314Y-103374000D01*
X163501686Y-103374000D01*
X163527493Y-103333844D01*
X163568000Y-103195889D01*
X163568000Y-103052111D01*
X163527493Y-102914156D01*
X163501686Y-102874000D01*
X165174314Y-102874000D01*
X165148507Y-102914156D01*
G37*
%TD.AperFunction*%
%TA.AperFunction,Conductor*%
G36*
X142324855Y-93376545D02*
G01*
X142341571Y-93395837D01*
X142471505Y-93581401D01*
X142638599Y-93748495D01*
X142832170Y-93884035D01*
X143046337Y-93983903D01*
X143249352Y-94038300D01*
X143274592Y-94045063D01*
X143509999Y-94065659D01*
X143509999Y-94065658D01*
X143510000Y-94065659D01*
X143574727Y-94059996D01*
X143643227Y-94073762D01*
X143693410Y-94122377D01*
X143709344Y-94190406D01*
X143685969Y-94256249D01*
X143673216Y-94271205D01*
X143642683Y-94301738D01*
X143630490Y-94312431D01*
X143606695Y-94330690D01*
X143606692Y-94330693D01*
X143606693Y-94330693D01*
X143587637Y-94355527D01*
X143571022Y-94377179D01*
X143575819Y-94370477D01*
X143571022Y-94377178D01*
X143538511Y-94419549D01*
X143514254Y-94451160D01*
X143475514Y-94544688D01*
X143456144Y-94591451D01*
X143455745Y-94594484D01*
X143443403Y-94688233D01*
X143436324Y-94742000D01*
X143440239Y-94771736D01*
X143441300Y-94787922D01*
X143441300Y-96741479D01*
X143421615Y-96808518D01*
X143369706Y-96853860D01*
X143335173Y-96869963D01*
X143141598Y-97005505D01*
X142974508Y-97172595D01*
X142897250Y-97282931D01*
X142842673Y-97326556D01*
X142773174Y-97333748D01*
X142710820Y-97302226D01*
X142689559Y-97275958D01*
X142636143Y-97187599D01*
X142621203Y-97162885D01*
X142576915Y-97108845D01*
X142576912Y-97108842D01*
X142475164Y-97015667D01*
X142439018Y-96955876D01*
X142435418Y-96912996D01*
X142440744Y-96854381D01*
X142441000Y-96848755D01*
X142441000Y-96770000D01*
X141415000Y-96770000D01*
X141347961Y-96750315D01*
X141302206Y-96697511D01*
X141291000Y-96646000D01*
X141291000Y-95545000D01*
X141791000Y-95545000D01*
X141791000Y-96270000D01*
X142440999Y-96270000D01*
X142440999Y-96191246D01*
X142440743Y-96185610D01*
X142434591Y-96117895D01*
X142384018Y-95955602D01*
X142296074Y-95810124D01*
X142175875Y-95689925D01*
X142030396Y-95601980D01*
X141868106Y-95551409D01*
X141800384Y-95545255D01*
X141794756Y-95545000D01*
X141791000Y-95545000D01*
X141291000Y-95545000D01*
X141290999Y-95544999D01*
X141287228Y-95545000D01*
X141281628Y-95545255D01*
X141213895Y-95551408D01*
X141051602Y-95601981D01*
X140906126Y-95689924D01*
X140809995Y-95786055D01*
X140748672Y-95819539D01*
X140678980Y-95814555D01*
X140634633Y-95786054D01*
X140286582Y-95438003D01*
X140286581Y-95438002D01*
X140285399Y-95436820D01*
X140251124Y-95406033D01*
X140246367Y-95401760D01*
X140246362Y-95401756D01*
X140245131Y-95400650D01*
X140224489Y-95384016D01*
X140210037Y-95373594D01*
X140180597Y-95352364D01*
X140049704Y-95292587D01*
X139984354Y-95273398D01*
X139984352Y-95273397D01*
X139982661Y-95272901D01*
X139982657Y-95272900D01*
X139979530Y-95272450D01*
X139979518Y-95272448D01*
X139864867Y-95255964D01*
X139840219Y-95252420D01*
X139840218Y-95252420D01*
X139529500Y-95252420D01*
X139462461Y-95232735D01*
X139416706Y-95179931D01*
X139405500Y-95128420D01*
X139405500Y-94806203D01*
X139405500Y-94803384D01*
X139399086Y-94732804D01*
X139348478Y-94570394D01*
X139260472Y-94424815D01*
X139260471Y-94424813D01*
X139140186Y-94304528D01*
X138994604Y-94216521D01*
X138941015Y-94199822D01*
X138882868Y-94161084D01*
X138854894Y-94097059D01*
X138865976Y-94028074D01*
X138912595Y-93976031D01*
X138925485Y-93969063D01*
X139107830Y-93884035D01*
X139301401Y-93748495D01*
X139468495Y-93581401D01*
X139598426Y-93395839D01*
X139653002Y-93352216D01*
X139722500Y-93345022D01*
X139784855Y-93376545D01*
X139801571Y-93395837D01*
X139931505Y-93581401D01*
X140098599Y-93748495D01*
X140292170Y-93884035D01*
X140506337Y-93983903D01*
X140709352Y-94038300D01*
X140734592Y-94045063D01*
X140969999Y-94065659D01*
X140969999Y-94065658D01*
X140970000Y-94065659D01*
X141205408Y-94045063D01*
X141433663Y-93983903D01*
X141647830Y-93884035D01*
X141841401Y-93748495D01*
X142008495Y-93581401D01*
X142138426Y-93395839D01*
X142193002Y-93352216D01*
X142262500Y-93345022D01*
X142324855Y-93376545D01*
G37*
%TD.AperFunction*%
%TA.AperFunction,Conductor*%
G36*
X137626914Y-93802654D02*
G01*
X137658934Y-93818750D01*
X137752170Y-93884035D01*
X137752173Y-93884037D01*
X137811740Y-93911813D01*
X137934498Y-93969056D01*
X137986937Y-94015227D01*
X138006089Y-94082420D01*
X137985874Y-94149302D01*
X137932708Y-94194636D01*
X137918984Y-94199822D01*
X137865393Y-94216521D01*
X137734655Y-94295555D01*
X137667100Y-94313391D01*
X137605748Y-94293531D01*
X137605068Y-94294635D01*
X137448486Y-94198053D01*
X137386535Y-94177525D01*
X137329090Y-94137752D01*
X137302267Y-94073236D01*
X137314582Y-94004461D01*
X137351137Y-93960620D01*
X137413748Y-93913663D01*
X137480592Y-93853538D01*
X137497020Y-93835875D01*
X137557088Y-93800195D01*
X137626914Y-93802654D01*
G37*
%TD.AperFunction*%
%TD*%
%TA.AperFunction,Conductor*%
%TO.N,/BAT*%
G36*
X137103039Y-91760185D02*
G01*
X137148794Y-91812989D01*
X137160000Y-91864500D01*
X137160000Y-93409999D01*
X137140315Y-93477038D01*
X137110400Y-93509199D01*
X136144000Y-94233999D01*
X136144000Y-94467622D01*
X136124315Y-94534661D01*
X136118378Y-94543105D01*
X136110225Y-94553730D01*
X136109897Y-94554523D01*
X136049111Y-94701272D01*
X136033500Y-94819851D01*
X136033500Y-94823903D01*
X136033500Y-94823904D01*
X136033500Y-95345293D01*
X136033500Y-95345308D01*
X136033501Y-95349348D01*
X136034029Y-95353361D01*
X136034030Y-95353372D01*
X136049110Y-95467926D01*
X136110224Y-95615467D01*
X136118375Y-95626090D01*
X136143570Y-95691259D01*
X136144000Y-95701577D01*
X136144000Y-96012000D01*
X137544000Y-96012000D01*
X137611039Y-96031685D01*
X137656794Y-96084489D01*
X137668000Y-96136000D01*
X137668000Y-96147360D01*
X137652191Y-96201197D01*
X137653308Y-96201660D01*
X137649005Y-96212046D01*
X137648315Y-96214399D01*
X137647624Y-96215381D01*
X137588467Y-96358198D01*
X137578853Y-96431223D01*
X137550586Y-96495119D01*
X137543595Y-96502718D01*
X136851462Y-97194851D01*
X136841096Y-97204115D01*
X136812692Y-97226767D01*
X136779960Y-97274776D01*
X136777278Y-97278557D01*
X136739266Y-97330061D01*
X136736708Y-97335129D01*
X136717832Y-97396318D01*
X136716386Y-97400713D01*
X136715306Y-97403800D01*
X136685946Y-97450531D01*
X136667223Y-97469254D01*
X136611304Y-97583637D01*
X136600500Y-97657796D01*
X136600500Y-98301000D01*
X136580815Y-98368039D01*
X136528011Y-98413794D01*
X136476500Y-98425000D01*
X136197500Y-98425000D01*
X136130461Y-98405315D01*
X136084706Y-98352511D01*
X136073500Y-98301000D01*
X136073500Y-98067796D01*
X136073500Y-98067794D01*
X136062696Y-97993639D01*
X136029600Y-97925940D01*
X136017000Y-97871479D01*
X136017000Y-97028000D01*
X131696000Y-97028000D01*
X131628961Y-97008315D01*
X131583206Y-96955511D01*
X131572000Y-96904000D01*
X131572000Y-95545333D01*
X131591685Y-95478294D01*
X131596800Y-95470933D01*
X131599056Y-95467926D01*
X132429774Y-94360299D01*
X132485746Y-94318479D01*
X132528975Y-94310700D01*
X132601052Y-94310700D01*
X132668091Y-94330385D01*
X132688733Y-94347019D01*
X133286436Y-94944722D01*
X133319921Y-95006045D01*
X133321851Y-95017456D01*
X133338592Y-95155325D01*
X133395504Y-95305391D01*
X133486676Y-95437478D01*
X133606809Y-95543905D01*
X133748917Y-95618490D01*
X133748919Y-95618490D01*
X133748920Y-95618491D01*
X133904752Y-95656900D01*
X133904753Y-95656900D01*
X134065247Y-95656900D01*
X134065248Y-95656900D01*
X134221080Y-95618491D01*
X134363191Y-95543905D01*
X134483324Y-95437477D01*
X134574496Y-95305391D01*
X134631408Y-95155325D01*
X134650754Y-94996000D01*
X134631408Y-94836675D01*
X134574496Y-94686609D01*
X134525413Y-94615500D01*
X134483323Y-94554521D01*
X134363190Y-94448094D01*
X134221956Y-94373968D01*
X134171744Y-94325384D01*
X134155769Y-94257365D01*
X134179104Y-94191507D01*
X134221957Y-94154375D01*
X134236191Y-94146905D01*
X134356324Y-94040477D01*
X134447496Y-93908391D01*
X134504408Y-93758325D01*
X134523754Y-93599000D01*
X134504408Y-93439675D01*
X134447496Y-93289609D01*
X134356324Y-93157523D01*
X134356323Y-93157521D01*
X134236190Y-93051094D01*
X134094082Y-92976509D01*
X133990191Y-92950903D01*
X133938248Y-92938100D01*
X133777752Y-92938100D01*
X133777751Y-92938100D01*
X133769952Y-92940022D01*
X133700150Y-92936950D01*
X133643089Y-92896629D01*
X133616886Y-92831859D01*
X133629860Y-92763204D01*
X133641076Y-92745231D01*
X134357425Y-91790100D01*
X134413396Y-91748279D01*
X134456625Y-91740500D01*
X137036000Y-91740500D01*
X137103039Y-91760185D01*
G37*
%TD.AperFunction*%
%TD*%
%TA.AperFunction,Conductor*%
%TO.N,Net-(U1-FB)*%
G36*
X139907258Y-95777685D02*
G01*
X139927900Y-95794319D01*
X140604181Y-96470600D01*
X140637666Y-96531923D01*
X140640500Y-96558280D01*
X140640500Y-96851616D01*
X140640754Y-96854419D01*
X140640755Y-96854425D01*
X140646557Y-96918268D01*
X140633021Y-96986814D01*
X140590109Y-97033803D01*
X140584407Y-97037467D01*
X140531600Y-97083225D01*
X140437365Y-97191977D01*
X140377586Y-97322873D01*
X140360025Y-97382680D01*
X140357901Y-97389914D01*
X140357900Y-97389918D01*
X140357451Y-97393040D01*
X140357448Y-97393056D01*
X140337420Y-97532356D01*
X140337420Y-98430420D01*
X140317735Y-98497459D01*
X140264931Y-98543214D01*
X140213420Y-98554420D01*
X137946500Y-98554420D01*
X137879461Y-98534735D01*
X137833706Y-98481931D01*
X137822500Y-98430420D01*
X137822499Y-97738038D01*
X137842183Y-97670999D01*
X137858813Y-97650362D01*
X137881240Y-97627935D01*
X137942561Y-97594452D01*
X138005807Y-97597232D01*
X138014272Y-97599869D01*
X138027804Y-97604086D01*
X138098384Y-97610500D01*
X138101203Y-97610500D01*
X138758797Y-97610500D01*
X138761616Y-97610500D01*
X138832196Y-97604086D01*
X138994606Y-97553478D01*
X139140185Y-97465472D01*
X139260472Y-97345185D01*
X139348478Y-97199606D01*
X139399086Y-97037196D01*
X139405500Y-96966616D01*
X139405500Y-96453384D01*
X139399086Y-96382804D01*
X139348478Y-96220394D01*
X139260472Y-96074815D01*
X139260471Y-96074813D01*
X139228319Y-96042661D01*
X139194834Y-95981338D01*
X139192000Y-95954980D01*
X139192000Y-95882000D01*
X139211685Y-95814961D01*
X139264489Y-95769206D01*
X139316000Y-95758000D01*
X139840219Y-95758000D01*
X139907258Y-95777685D01*
G37*
%TD.AperFunction*%
%TD*%
%TA.AperFunction,Conductor*%
%TO.N,+5V*%
G36*
X142185878Y-97429316D02*
G01*
X142230166Y-97483356D01*
X142240000Y-97531752D01*
X142240000Y-100079000D01*
X142220315Y-100146039D01*
X142167511Y-100191794D01*
X142116000Y-100203000D01*
X138430000Y-100203000D01*
X138430000Y-103000000D01*
X138410315Y-103067039D01*
X138357511Y-103112794D01*
X138306000Y-103124000D01*
X137284000Y-103124000D01*
X137216961Y-103104315D01*
X137171206Y-103051511D01*
X137160000Y-103000000D01*
X137160000Y-100839352D01*
X137179685Y-100772313D01*
X137186016Y-100763357D01*
X137196408Y-100749962D01*
X137213815Y-100709734D01*
X137218951Y-100699251D01*
X137240072Y-100660834D01*
X137245077Y-100641340D01*
X137251383Y-100622923D01*
X137259373Y-100604460D01*
X137259372Y-100604460D01*
X137259374Y-100604458D01*
X137266231Y-100561155D01*
X137268596Y-100549736D01*
X137279500Y-100507272D01*
X137279500Y-100507270D01*
X137283396Y-100492098D01*
X137286189Y-100492815D01*
X137299185Y-100448559D01*
X137351989Y-100402804D01*
X137390244Y-100392309D01*
X137429483Y-100388091D01*
X137564331Y-100337796D01*
X137679546Y-100251546D01*
X137765796Y-100136331D01*
X137816091Y-100001483D01*
X137822500Y-99941873D01*
X137822499Y-99183999D01*
X137842183Y-99116961D01*
X137894987Y-99071206D01*
X137946499Y-99060000D01*
X140843000Y-99060000D01*
X140843000Y-97532356D01*
X140862685Y-97465317D01*
X140915489Y-97419562D01*
X140984647Y-97409618D01*
X141031147Y-97426238D01*
X141051394Y-97438478D01*
X141213804Y-97489086D01*
X141284384Y-97495500D01*
X141287203Y-97495500D01*
X141794797Y-97495500D01*
X141797616Y-97495500D01*
X141868196Y-97489086D01*
X142030606Y-97438478D01*
X142051849Y-97425635D01*
X142119404Y-97407799D01*
X142185878Y-97429316D01*
G37*
%TD.AperFunction*%
%TD*%
M02*
