%TF.GenerationSoftware,KiCad,Pcbnew,7.0.2*%
%TF.CreationDate,2023-07-28T16:56:04-04:00*%
%TF.ProjectId,dispocam-hub,64697370-6f63-4616-9d2d-6875622e6b69,rev?*%
%TF.SameCoordinates,Original*%
%TF.FileFunction,Legend,Top*%
%TF.FilePolarity,Positive*%
%FSLAX46Y46*%
G04 Gerber Fmt 4.6, Leading zero omitted, Abs format (unit mm)*
G04 Created by KiCad (PCBNEW 7.0.2) date 2023-07-28 16:56:04*
%MOMM*%
%LPD*%
G01*
G04 APERTURE LIST*
%ADD10C,0.254000*%
%ADD11C,0.120000*%
G04 APERTURE END LIST*
D10*
X167513000Y-95123000D02*
G75*
G03*
X166751000Y-94361000I-762000J0D01*
G01*
X161925000Y-94361000D02*
X166751000Y-94361000D01*
X161925000Y-94361000D02*
G75*
G03*
X161163000Y-95123000I1J-762001D01*
G01*
X161163000Y-95123000D02*
G75*
G03*
X160401000Y-94361000I-762000J0D01*
G01*
X155575000Y-94361000D02*
X160401000Y-94361000D01*
X155575000Y-94361000D02*
G75*
G03*
X154813000Y-95123000I1J-762001D01*
G01*
X154813000Y-95123000D02*
G75*
G03*
X154051000Y-94361000I-762000J0D01*
G01*
X149225000Y-94361000D02*
X154051000Y-94361000D01*
X149225000Y-94361000D02*
G75*
G03*
X148463000Y-95123000I1J-762001D01*
G01*
X148463000Y-95123000D02*
G75*
G03*
X147701000Y-94361000I-762000J0D01*
G01*
X142875000Y-94361000D02*
X147701000Y-94361000D01*
X142875000Y-94361000D02*
G75*
G03*
X142113000Y-95123000I0J-762000D01*
G01*
X164338000Y-108585000D02*
X164338000Y-109093000D01*
X157988000Y-108585000D02*
X157988000Y-109093000D01*
X151638000Y-108585000D02*
X151638000Y-109093000D01*
X166751000Y-108585000D02*
X161925000Y-108585000D01*
X166751000Y-108585000D02*
G75*
G03*
X167513000Y-107823000I-1J762001D01*
G01*
X167513000Y-95123000D02*
X167513000Y-107823000D01*
X161163000Y-107823000D02*
G75*
G03*
X161925000Y-108585000I762001J1D01*
G01*
X160401000Y-108585000D02*
X155575000Y-108585000D01*
X160401000Y-108585000D02*
G75*
G03*
X161163000Y-107823000I-1J762001D01*
G01*
X161163000Y-95123000D02*
X161163000Y-107823000D01*
X154813000Y-107823000D02*
G75*
G03*
X155575000Y-108585000I762001J1D01*
G01*
X154051000Y-108585000D02*
X149225000Y-108585000D01*
X154051000Y-108585000D02*
G75*
G03*
X154813000Y-107823000I-1J762001D01*
G01*
X154813000Y-95123000D02*
X154813000Y-107823000D01*
X148463000Y-107823000D02*
G75*
G03*
X149225000Y-108585000I762001J1D01*
G01*
X145288000Y-108585000D02*
X145288000Y-109093000D01*
X147701000Y-108585000D02*
X142875000Y-108585000D01*
X147701000Y-108585000D02*
G75*
G03*
X148463000Y-107823000I0J762000D01*
G01*
X142113000Y-107823000D02*
G75*
G03*
X142875000Y-108585000I762000J0D01*
G01*
X142113000Y-95123000D02*
X142113000Y-107823000D01*
X148463000Y-95123000D02*
X148463000Y-107823000D01*
%TO.C,kibuzzard-64C4169B*%
G36*
X164438013Y-109414469D02*
G01*
X164568452Y-109470296D01*
X164677196Y-109545702D01*
X164764244Y-109640688D01*
X164843420Y-109802017D01*
X164857113Y-109985969D01*
X164831514Y-110103841D01*
X164778531Y-110205044D01*
X164778531Y-110274100D01*
X164837467Y-110388400D01*
X164861875Y-110531275D01*
X164830919Y-110717013D01*
X164731502Y-110878938D01*
X164590413Y-110993238D01*
X164438013Y-111064675D01*
X164275492Y-111082534D01*
X164130831Y-111045625D01*
X163976645Y-110945613D01*
X163871275Y-110817025D01*
X163818888Y-110700344D01*
X163799838Y-110588425D01*
X163809363Y-110545563D01*
X163847463Y-110533656D01*
X163954619Y-110532466D01*
X164061775Y-110533656D01*
X164126069Y-110571756D01*
X164223700Y-110652719D01*
X164360622Y-110661053D01*
X164464206Y-110597950D01*
X164459444Y-110462219D01*
X164326094Y-110397925D01*
X164307044Y-110394353D01*
X164289184Y-110391972D01*
X164271325Y-110389591D01*
X164252275Y-110387209D01*
X164235606Y-110383638D01*
X164171313Y-110369350D01*
X164140356Y-110331250D01*
X164140952Y-110199091D01*
X164142738Y-110121700D01*
X164197506Y-110069313D01*
X164257038Y-110065741D01*
X164309425Y-110064550D01*
X164388006Y-110057406D01*
X164480875Y-109990731D01*
X164476113Y-109893100D01*
X164401996Y-109831485D01*
X164312997Y-109808566D01*
X164222212Y-109824937D01*
X164142738Y-109881194D01*
X164123688Y-109907388D01*
X164054631Y-109945488D01*
X163957000Y-109945488D01*
X163845081Y-109943106D01*
X163809363Y-109932391D01*
X163799838Y-109895481D01*
X163815316Y-109787730D01*
X163861750Y-109678788D01*
X163932394Y-109577717D01*
X164026850Y-109493579D01*
X164145119Y-109426375D01*
X164288589Y-109391252D01*
X164438013Y-109414469D01*
G37*
%TO.C,kibuzzard-64C41698*%
G36*
X158085631Y-109437091D02*
G01*
X158218452Y-109489214D01*
X158331165Y-109563032D01*
X158423769Y-109658547D01*
X158500564Y-109794873D01*
X158530925Y-109946678D01*
X158513992Y-110097226D01*
X158453667Y-110231370D01*
X158349950Y-110349109D01*
X158260058Y-110405664D01*
X158133256Y-110451503D01*
X158078487Y-110466981D01*
X158030862Y-110477697D01*
X157929659Y-110538419D01*
X157873700Y-110658672D01*
X157902275Y-110701534D01*
X157988000Y-110701534D01*
X158159715Y-110695184D01*
X158303383Y-110692009D01*
X158419006Y-110692009D01*
X158489253Y-110702725D01*
X158507113Y-110770591D01*
X158510089Y-110864055D01*
X158509494Y-111039672D01*
X158501159Y-111069438D01*
X158471394Y-111080153D01*
X158438056Y-111080153D01*
X158188025Y-111080153D01*
X158052294Y-111080153D01*
X157848697Y-111079558D01*
X157666531Y-111077772D01*
X157490319Y-111068247D01*
X157455791Y-111057531D01*
X157447456Y-111023003D01*
X157442694Y-110926562D01*
X157437931Y-110827741D01*
X157450433Y-110659267D01*
X157483175Y-110525322D01*
X157558846Y-110376626D01*
X157658858Y-110257564D01*
X157783213Y-110168134D01*
X157947519Y-110122891D01*
X158059437Y-110094316D01*
X158138019Y-110037166D01*
X158140400Y-109920484D01*
X158055866Y-109857381D01*
X157959425Y-109839522D01*
X157867152Y-109865120D01*
X157795119Y-109932391D01*
X157780831Y-109953822D01*
X157740350Y-109980016D01*
X157581997Y-109980016D01*
X157497462Y-109980016D01*
X157470078Y-109970491D01*
X157461744Y-109937153D01*
X157485556Y-109803803D01*
X157578425Y-109630567D01*
X157714156Y-109510909D01*
X157743922Y-109491859D01*
X157773687Y-109472809D01*
X157925492Y-109423398D01*
X158085631Y-109437091D01*
G37*
%TO.C,kibuzzard-64C41694*%
G36*
X151671933Y-109416850D02*
G01*
X151823737Y-109420422D01*
X151861837Y-109422803D01*
X151886841Y-109427566D01*
X151901128Y-109435900D01*
X151908272Y-109450188D01*
X151909463Y-109475191D01*
X151911248Y-109594848D01*
X151911844Y-109834759D01*
X151911844Y-109980809D01*
X151911844Y-110114159D01*
X151911844Y-110234809D01*
X151910521Y-110403084D01*
X151909727Y-110561834D01*
X151909463Y-110711059D01*
X151907677Y-110795594D01*
X151902319Y-110992047D01*
X151899938Y-111018241D01*
X151866600Y-111053959D01*
X151788019Y-111061103D01*
X151611806Y-111061103D01*
X151571325Y-111055150D01*
X151554656Y-111036100D01*
X151549894Y-110994428D01*
X151549894Y-110867031D01*
X151549894Y-110739634D01*
X151546322Y-110651528D01*
X151543941Y-110563422D01*
X151541559Y-110476506D01*
X151540369Y-110387209D01*
X151539046Y-110257828D01*
X151538252Y-110066534D01*
X151537988Y-109813328D01*
X151526081Y-109733556D01*
X151452262Y-109720459D01*
X151371300Y-109709744D01*
X151387969Y-109634734D01*
X151452262Y-109456141D01*
X151516556Y-109410897D01*
X151546322Y-109410897D01*
X151573706Y-109410897D01*
X151671933Y-109416850D01*
G37*
%TO.C,kibuzzard-64C41670*%
G36*
X167575200Y-104198420D02*
G01*
X167178325Y-104198420D01*
X141267369Y-104198420D01*
X140585379Y-104198420D01*
X140585220Y-104198420D01*
X140479908Y-104193246D01*
X140375611Y-104177775D01*
X140273332Y-104152156D01*
X140174057Y-104116635D01*
X140078742Y-104071554D01*
X139988304Y-104017348D01*
X139903615Y-103954538D01*
X139825490Y-103883730D01*
X139754682Y-103805605D01*
X139691872Y-103720916D01*
X139637666Y-103630478D01*
X139592585Y-103535163D01*
X139557064Y-103435888D01*
X139531444Y-103333609D01*
X139515973Y-103229312D01*
X139513139Y-103171625D01*
X140585379Y-103171625D01*
X140587284Y-103211630D01*
X140593951Y-103233537D01*
X140613954Y-103240205D01*
X140740636Y-103243062D01*
X140812074Y-103244015D01*
X140904466Y-103243062D01*
X141012099Y-103242110D01*
X141103539Y-103240205D01*
X141141639Y-103242110D01*
X141267369Y-103245920D01*
X141354999Y-103242110D01*
X141376906Y-103234490D01*
X141382621Y-103208772D01*
X141383574Y-103146860D01*
X141383574Y-103051610D01*
X141377859Y-103014462D01*
X141347379Y-103007795D01*
X141255939Y-103005890D01*
X141143544Y-103003032D01*
X141031149Y-103002080D01*
X140998764Y-103002080D01*
X140827737Y-103008853D01*
X140700737Y-103011393D01*
X140617764Y-103009700D01*
X140592999Y-103017320D01*
X140585379Y-103045895D01*
X140585379Y-103171625D01*
X139513139Y-103171625D01*
X139510800Y-103124000D01*
X139515973Y-103018688D01*
X139531444Y-102914391D01*
X139557064Y-102812112D01*
X139592585Y-102712837D01*
X139637666Y-102617522D01*
X139691872Y-102527084D01*
X139754682Y-102442395D01*
X139825490Y-102364270D01*
X139903615Y-102293462D01*
X139988304Y-102230652D01*
X140078742Y-102176446D01*
X140174057Y-102131365D01*
X140273332Y-102095844D01*
X140375611Y-102070225D01*
X140479908Y-102054754D01*
X140585220Y-102049580D01*
X140585379Y-102049580D01*
X167178325Y-102049580D01*
X167575200Y-102049580D01*
X167575200Y-104198420D01*
G37*
%TO.C,kibuzzard-64C4164E*%
G36*
X167555039Y-101618098D02*
G01*
X167158164Y-101618098D01*
X141030037Y-101618098D01*
X140565217Y-101618098D01*
X140565059Y-101618098D01*
X140463699Y-101613118D01*
X140363316Y-101598228D01*
X140264876Y-101573570D01*
X140169327Y-101539382D01*
X140077588Y-101495993D01*
X139990545Y-101443821D01*
X139909034Y-101383368D01*
X139833841Y-101315217D01*
X139765690Y-101240025D01*
X139705238Y-101158514D01*
X139653066Y-101071470D01*
X139609677Y-100979732D01*
X139575489Y-100884183D01*
X139550831Y-100785742D01*
X139535940Y-100685359D01*
X139533441Y-100634482D01*
X140565217Y-100634482D01*
X140567122Y-100674488D01*
X140570932Y-100691632D01*
X140578552Y-100699253D01*
X140593792Y-100701157D01*
X140720475Y-100704015D01*
X140791912Y-100704967D01*
X140868112Y-100704967D01*
X140870970Y-100840222D01*
X140868112Y-100948808D01*
X140875732Y-100974525D01*
X140904307Y-100983098D01*
X141030037Y-100983098D01*
X141070042Y-100981192D01*
X141091950Y-100973573D01*
X141098617Y-100954523D01*
X141101475Y-100827840D01*
X141102427Y-100756403D01*
X141102427Y-100739257D01*
X141102427Y-100719255D01*
X141102427Y-100703063D01*
X141121477Y-100704967D01*
X141247207Y-100708777D01*
X141334837Y-100704967D01*
X141349125Y-100702110D01*
X141356745Y-100697347D01*
X141360555Y-100687822D01*
X141361507Y-100670678D01*
X141363412Y-100609717D01*
X141363412Y-100512562D01*
X141360555Y-100483035D01*
X141351030Y-100471605D01*
X141327217Y-100468747D01*
X141235777Y-100468747D01*
X141098617Y-100464937D01*
X141100522Y-100426837D01*
X141104332Y-100301107D01*
X141100522Y-100213477D01*
X141092902Y-100191570D01*
X141067185Y-100185855D01*
X141005272Y-100184902D01*
X140910022Y-100184902D01*
X140872875Y-100190618D01*
X140866207Y-100221097D01*
X140864302Y-100310632D01*
X140861921Y-100371592D01*
X140862397Y-100470652D01*
X140714284Y-100473986D01*
X140597602Y-100472557D01*
X140572837Y-100479225D01*
X140565217Y-100508752D01*
X140565217Y-100634482D01*
X139533441Y-100634482D01*
X139530961Y-100584000D01*
X139535940Y-100482641D01*
X139550831Y-100382258D01*
X139575489Y-100283817D01*
X139609677Y-100188268D01*
X139653066Y-100096530D01*
X139705238Y-100009486D01*
X139765690Y-99927975D01*
X139833841Y-99852783D01*
X139909034Y-99784632D01*
X139990545Y-99724179D01*
X140077588Y-99672007D01*
X140169327Y-99628618D01*
X140264876Y-99594430D01*
X140363316Y-99569772D01*
X140463699Y-99554882D01*
X140565059Y-99549902D01*
X140565217Y-99549902D01*
X167158164Y-99549902D01*
X167555039Y-99549902D01*
X167555039Y-101618098D01*
G37*
%TO.C,kibuzzard-64C413FA*%
G36*
X145432066Y-109409706D02*
G01*
X145567003Y-109466063D01*
X145676541Y-109552581D01*
X145760678Y-109669263D01*
X145814852Y-109806184D01*
X145844022Y-109964538D01*
X145854870Y-110123552D01*
X145858839Y-110264046D01*
X145855928Y-110386019D01*
X145841641Y-110502700D01*
X145801953Y-110667535D01*
X145736866Y-110806442D01*
X145646378Y-110919419D01*
X145518386Y-111013478D01*
X145377297Y-111057531D01*
X145289191Y-111057531D01*
X145195727Y-111057531D01*
X145041541Y-111009906D01*
X144920097Y-110909894D01*
X144802225Y-110746778D01*
X144734359Y-110576519D01*
X144717691Y-110474720D01*
X144710547Y-110350300D01*
X144711142Y-110239572D01*
X144711344Y-110218736D01*
X145111787Y-110218736D01*
X145112978Y-110419356D01*
X145148697Y-110576519D01*
X145208823Y-110653314D01*
X145289191Y-110678913D01*
X145367772Y-110652719D01*
X145427303Y-110574138D01*
X145460641Y-110433644D01*
X145460641Y-110252669D01*
X145463022Y-110095506D01*
X145446353Y-109959775D01*
X145374916Y-109814519D01*
X145288000Y-109777609D01*
X145198703Y-109814519D01*
X145143934Y-109900244D01*
X145112978Y-110074075D01*
X145111787Y-110218736D01*
X144711344Y-110218736D01*
X144712928Y-110055025D01*
X144736741Y-109877027D01*
X144803416Y-109704981D01*
X144870686Y-109597825D01*
X144958197Y-109504956D01*
X145082022Y-109428161D01*
X145224897Y-109397800D01*
X145345745Y-109397205D01*
X145432066Y-109409706D01*
G37*
%TO.C,kibuzzard-64C413C5*%
G36*
X165822445Y-94981316D02*
G01*
X165956853Y-95061484D01*
X166025314Y-95118039D01*
X166192597Y-95259128D01*
X166206884Y-95271034D01*
X166225934Y-95301991D01*
X166209266Y-95332947D01*
X166087822Y-95454391D01*
X165990191Y-95549641D01*
X165955663Y-95573453D01*
X165918753Y-95554403D01*
X165827670Y-95482966D01*
X165735397Y-95416291D01*
X165642528Y-95368666D01*
X165591331Y-95361522D01*
X165549659Y-95386525D01*
X165523466Y-95425816D01*
X165537753Y-95494872D01*
X165659197Y-95599647D01*
X165788975Y-95669298D01*
X165925897Y-95763953D01*
X166052103Y-95904447D01*
X166105814Y-96024303D01*
X166124070Y-96152097D01*
X166106872Y-96287828D01*
X166031863Y-96425941D01*
X165887797Y-96535478D01*
X165797309Y-96573578D01*
X165633003Y-96604534D01*
X165455005Y-96585484D01*
X165302009Y-96518809D01*
X165167469Y-96418797D01*
X165025784Y-96290209D01*
X165011497Y-96275922D01*
X165009116Y-96221153D01*
X165042453Y-96183053D01*
X165101984Y-96118164D01*
X165185328Y-96028272D01*
X165209141Y-96004459D01*
X165261528Y-96002078D01*
X165323441Y-96049703D01*
X165371066Y-96086612D01*
X165425834Y-96129475D01*
X165473459Y-96162812D01*
X165532991Y-96194959D01*
X165611572Y-96221153D01*
X165672294Y-96196150D01*
X165678247Y-96130666D01*
X165642528Y-96075897D01*
X165511559Y-95968741D01*
X165383567Y-95887778D01*
X165252003Y-95792528D01*
X165146170Y-95683784D01*
X165082670Y-95551228D01*
X165061503Y-95394859D01*
X165086506Y-95264486D01*
X165166278Y-95149591D01*
X165269995Y-95060691D01*
X165384295Y-94997191D01*
X165509178Y-94959091D01*
X165673220Y-94947184D01*
X165822445Y-94981316D01*
G37*
%TO.C,kibuzzard-64C413B2*%
G36*
X163582350Y-94905512D02*
G01*
X163674028Y-94905512D01*
X163764516Y-94906703D01*
X163833572Y-94919800D01*
X163838334Y-94990047D01*
X163825238Y-95123397D01*
X163814522Y-95249603D01*
X163806783Y-95307348D01*
X163788328Y-95452009D01*
X163771659Y-95602028D01*
X163750228Y-95783003D01*
X163723241Y-95938049D01*
X163699428Y-96079336D01*
X163678791Y-96206866D01*
X163659741Y-96368791D01*
X163651406Y-96459278D01*
X163643072Y-96545003D01*
X163638309Y-96568816D01*
X163622831Y-96602153D01*
X163590684Y-96611678D01*
X163433522Y-96616441D01*
X163379944Y-96617631D01*
X163328747Y-96618822D01*
X163231116Y-96552147D01*
X163197778Y-96458087D01*
X163166822Y-96373553D01*
X163119197Y-96223534D01*
X163113244Y-96198531D01*
X163103719Y-96164003D01*
X163090622Y-96135428D01*
X163071572Y-96118759D01*
X163050141Y-96129475D01*
X163029900Y-96168766D01*
X163014422Y-96217581D01*
X163001325Y-96266397D01*
X162992991Y-96294972D01*
X162953105Y-96428322D01*
X162923934Y-96509284D01*
X162885834Y-96573578D01*
X162812016Y-96585484D01*
X162669141Y-96587866D01*
X162545316Y-96590247D01*
X162504834Y-96590247D01*
X162452447Y-96578341D01*
X162435778Y-96528334D01*
X162402705Y-96239939D01*
X162382861Y-96066901D01*
X162376247Y-96009222D01*
X162370889Y-95949691D01*
X162359578Y-95780622D01*
X162345886Y-95597266D01*
X162338147Y-95480584D01*
X162327431Y-95344853D01*
X162319097Y-95247222D01*
X162309572Y-95160306D01*
X162300047Y-95078153D01*
X162290522Y-94954328D01*
X162301238Y-94918609D01*
X162338147Y-94906703D01*
X162488166Y-94905512D01*
X162626278Y-94906703D01*
X162673903Y-94917419D01*
X162688191Y-94961472D01*
X162694144Y-95067437D01*
X162710813Y-95199597D01*
X162726291Y-95304372D01*
X162737006Y-95424625D01*
X162745341Y-95525828D01*
X162754866Y-95582978D01*
X162762009Y-95597266D01*
X162778678Y-95592503D01*
X162787013Y-95578216D01*
X162791775Y-95561547D01*
X162794156Y-95544878D01*
X162797728Y-95528209D01*
X162820945Y-95435936D01*
X162866784Y-95249603D01*
X162869166Y-95241269D01*
X162871547Y-95230553D01*
X162897741Y-95182928D01*
X162950128Y-95171022D01*
X163085859Y-95178166D01*
X163178728Y-95182928D01*
X163231116Y-95199597D01*
X163254928Y-95247222D01*
X163275169Y-95334137D01*
X163316841Y-95499634D01*
X163333509Y-95549641D01*
X163347797Y-95559166D01*
X163359703Y-95547259D01*
X163378753Y-95463916D01*
X163403359Y-95296699D01*
X163423203Y-95156999D01*
X163438284Y-95044816D01*
X163443047Y-94986475D01*
X163447809Y-94932897D01*
X163490672Y-94898369D01*
X163582350Y-94905512D01*
G37*
%TO.C,kibuzzard-64C413C5*%
G36*
X159472445Y-94981316D02*
G01*
X159606853Y-95061484D01*
X159675314Y-95118039D01*
X159842597Y-95259128D01*
X159856884Y-95271034D01*
X159875934Y-95301991D01*
X159859266Y-95332947D01*
X159737822Y-95454391D01*
X159640191Y-95549641D01*
X159605663Y-95573453D01*
X159568753Y-95554403D01*
X159477670Y-95482966D01*
X159385397Y-95416291D01*
X159292528Y-95368666D01*
X159241331Y-95361522D01*
X159199659Y-95386525D01*
X159173466Y-95425816D01*
X159187753Y-95494872D01*
X159309197Y-95599647D01*
X159438975Y-95669298D01*
X159575897Y-95763953D01*
X159702103Y-95904447D01*
X159755814Y-96024303D01*
X159774070Y-96152097D01*
X159756872Y-96287828D01*
X159681863Y-96425941D01*
X159537797Y-96535478D01*
X159447309Y-96573578D01*
X159283003Y-96604534D01*
X159105005Y-96585484D01*
X158952009Y-96518809D01*
X158817469Y-96418797D01*
X158675784Y-96290209D01*
X158661497Y-96275922D01*
X158659116Y-96221153D01*
X158692453Y-96183053D01*
X158751984Y-96118164D01*
X158835328Y-96028272D01*
X158859141Y-96004459D01*
X158911528Y-96002078D01*
X158973441Y-96049703D01*
X159021066Y-96086612D01*
X159075834Y-96129475D01*
X159123459Y-96162812D01*
X159182991Y-96194959D01*
X159261572Y-96221153D01*
X159322294Y-96196150D01*
X159328247Y-96130666D01*
X159292528Y-96075897D01*
X159161559Y-95968741D01*
X159033567Y-95887778D01*
X158902003Y-95792528D01*
X158796170Y-95683784D01*
X158732670Y-95551228D01*
X158711503Y-95394859D01*
X158736506Y-95264486D01*
X158816278Y-95149591D01*
X158919995Y-95060691D01*
X159034295Y-94997191D01*
X159159178Y-94959091D01*
X159323220Y-94947184D01*
X159472445Y-94981316D01*
G37*
%TO.C,kibuzzard-64C413B2*%
G36*
X157232350Y-94905512D02*
G01*
X157324028Y-94905512D01*
X157414516Y-94906703D01*
X157483572Y-94919800D01*
X157488334Y-94990047D01*
X157475238Y-95123397D01*
X157464522Y-95249603D01*
X157456783Y-95307348D01*
X157438328Y-95452009D01*
X157421659Y-95602028D01*
X157400228Y-95783003D01*
X157373241Y-95938049D01*
X157349428Y-96079336D01*
X157328791Y-96206866D01*
X157309741Y-96368791D01*
X157301406Y-96459278D01*
X157293072Y-96545003D01*
X157288309Y-96568816D01*
X157272831Y-96602153D01*
X157240684Y-96611678D01*
X157083522Y-96616441D01*
X157029944Y-96617631D01*
X156978747Y-96618822D01*
X156881116Y-96552147D01*
X156847778Y-96458087D01*
X156816822Y-96373553D01*
X156769197Y-96223534D01*
X156763244Y-96198531D01*
X156753719Y-96164003D01*
X156740622Y-96135428D01*
X156721572Y-96118759D01*
X156700141Y-96129475D01*
X156679900Y-96168766D01*
X156664422Y-96217581D01*
X156651325Y-96266397D01*
X156642991Y-96294972D01*
X156603105Y-96428322D01*
X156573934Y-96509284D01*
X156535834Y-96573578D01*
X156462016Y-96585484D01*
X156319141Y-96587866D01*
X156195316Y-96590247D01*
X156154834Y-96590247D01*
X156102447Y-96578341D01*
X156085778Y-96528334D01*
X156052705Y-96239939D01*
X156032861Y-96066901D01*
X156026247Y-96009222D01*
X156020889Y-95949691D01*
X156009578Y-95780622D01*
X155995886Y-95597266D01*
X155988147Y-95480584D01*
X155977431Y-95344853D01*
X155969097Y-95247222D01*
X155959572Y-95160306D01*
X155950047Y-95078153D01*
X155940522Y-94954328D01*
X155951238Y-94918609D01*
X155988147Y-94906703D01*
X156138166Y-94905512D01*
X156276278Y-94906703D01*
X156323903Y-94917419D01*
X156338191Y-94961472D01*
X156344144Y-95067437D01*
X156360813Y-95199597D01*
X156376291Y-95304372D01*
X156387006Y-95424625D01*
X156395341Y-95525828D01*
X156404866Y-95582978D01*
X156412009Y-95597266D01*
X156428678Y-95592503D01*
X156437013Y-95578216D01*
X156441775Y-95561547D01*
X156444156Y-95544878D01*
X156447728Y-95528209D01*
X156470945Y-95435936D01*
X156516784Y-95249603D01*
X156519166Y-95241269D01*
X156521547Y-95230553D01*
X156547741Y-95182928D01*
X156600128Y-95171022D01*
X156735859Y-95178166D01*
X156828728Y-95182928D01*
X156881116Y-95199597D01*
X156904928Y-95247222D01*
X156925169Y-95334137D01*
X156966841Y-95499634D01*
X156983509Y-95549641D01*
X156997797Y-95559166D01*
X157009703Y-95547259D01*
X157028753Y-95463916D01*
X157053359Y-95296699D01*
X157073203Y-95156999D01*
X157088284Y-95044816D01*
X157093047Y-94986475D01*
X157097809Y-94932897D01*
X157140672Y-94898369D01*
X157232350Y-94905512D01*
G37*
%TO.C,kibuzzard-64C413C5*%
G36*
X153122445Y-94981316D02*
G01*
X153256853Y-95061484D01*
X153325314Y-95118039D01*
X153492597Y-95259128D01*
X153506884Y-95271034D01*
X153525934Y-95301991D01*
X153509266Y-95332947D01*
X153387822Y-95454391D01*
X153290191Y-95549641D01*
X153255663Y-95573453D01*
X153218753Y-95554403D01*
X153127670Y-95482966D01*
X153035397Y-95416291D01*
X152942528Y-95368666D01*
X152891331Y-95361522D01*
X152849659Y-95386525D01*
X152823466Y-95425816D01*
X152837753Y-95494872D01*
X152959197Y-95599647D01*
X153088975Y-95669298D01*
X153225897Y-95763953D01*
X153352103Y-95904447D01*
X153405814Y-96024303D01*
X153424070Y-96152097D01*
X153406872Y-96287828D01*
X153331863Y-96425941D01*
X153187797Y-96535478D01*
X153097309Y-96573578D01*
X152933003Y-96604534D01*
X152755005Y-96585484D01*
X152602009Y-96518809D01*
X152467469Y-96418797D01*
X152325784Y-96290209D01*
X152311497Y-96275922D01*
X152309116Y-96221153D01*
X152342453Y-96183053D01*
X152401984Y-96118164D01*
X152485328Y-96028272D01*
X152509141Y-96004459D01*
X152561528Y-96002078D01*
X152623441Y-96049703D01*
X152671066Y-96086612D01*
X152725834Y-96129475D01*
X152773459Y-96162812D01*
X152832991Y-96194959D01*
X152911572Y-96221153D01*
X152972294Y-96196150D01*
X152978247Y-96130666D01*
X152942528Y-96075897D01*
X152811559Y-95968741D01*
X152683567Y-95887778D01*
X152552003Y-95792528D01*
X152446170Y-95683784D01*
X152382670Y-95551228D01*
X152361503Y-95394859D01*
X152386506Y-95264486D01*
X152466278Y-95149591D01*
X152569995Y-95060691D01*
X152684295Y-94997191D01*
X152809178Y-94959091D01*
X152973220Y-94947184D01*
X153122445Y-94981316D01*
G37*
%TO.C,kibuzzard-64C413B2*%
G36*
X150882350Y-94905512D02*
G01*
X150974028Y-94905512D01*
X151064516Y-94906703D01*
X151133572Y-94919800D01*
X151138334Y-94990047D01*
X151125238Y-95123397D01*
X151114522Y-95249603D01*
X151106783Y-95307348D01*
X151088328Y-95452009D01*
X151071659Y-95602028D01*
X151050228Y-95783003D01*
X151023241Y-95938049D01*
X150999428Y-96079336D01*
X150978791Y-96206866D01*
X150959741Y-96368791D01*
X150951406Y-96459278D01*
X150943072Y-96545003D01*
X150938309Y-96568816D01*
X150922831Y-96602153D01*
X150890684Y-96611678D01*
X150733522Y-96616441D01*
X150679944Y-96617631D01*
X150628747Y-96618822D01*
X150531116Y-96552147D01*
X150497778Y-96458087D01*
X150466822Y-96373553D01*
X150419197Y-96223534D01*
X150413244Y-96198531D01*
X150403719Y-96164003D01*
X150390622Y-96135428D01*
X150371572Y-96118759D01*
X150350141Y-96129475D01*
X150329900Y-96168766D01*
X150314422Y-96217581D01*
X150301325Y-96266397D01*
X150292991Y-96294972D01*
X150253105Y-96428322D01*
X150223934Y-96509284D01*
X150185834Y-96573578D01*
X150112016Y-96585484D01*
X149969141Y-96587866D01*
X149845316Y-96590247D01*
X149804834Y-96590247D01*
X149752447Y-96578341D01*
X149735778Y-96528334D01*
X149702705Y-96239939D01*
X149682861Y-96066901D01*
X149676247Y-96009222D01*
X149670889Y-95949691D01*
X149659578Y-95780622D01*
X149645886Y-95597266D01*
X149638147Y-95480584D01*
X149627431Y-95344853D01*
X149619097Y-95247222D01*
X149609572Y-95160306D01*
X149600047Y-95078153D01*
X149590522Y-94954328D01*
X149601238Y-94918609D01*
X149638147Y-94906703D01*
X149788166Y-94905512D01*
X149926278Y-94906703D01*
X149973903Y-94917419D01*
X149988191Y-94961472D01*
X149994144Y-95067437D01*
X150010813Y-95199597D01*
X150026291Y-95304372D01*
X150037006Y-95424625D01*
X150045341Y-95525828D01*
X150054866Y-95582978D01*
X150062009Y-95597266D01*
X150078678Y-95592503D01*
X150087013Y-95578216D01*
X150091775Y-95561547D01*
X150094156Y-95544878D01*
X150097728Y-95528209D01*
X150120945Y-95435936D01*
X150166784Y-95249603D01*
X150169166Y-95241269D01*
X150171547Y-95230553D01*
X150197741Y-95182928D01*
X150250128Y-95171022D01*
X150385859Y-95178166D01*
X150478728Y-95182928D01*
X150531116Y-95199597D01*
X150554928Y-95247222D01*
X150575169Y-95334137D01*
X150616841Y-95499634D01*
X150633509Y-95549641D01*
X150647797Y-95559166D01*
X150659703Y-95547259D01*
X150678753Y-95463916D01*
X150703359Y-95296699D01*
X150723203Y-95156999D01*
X150738284Y-95044816D01*
X150743047Y-94986475D01*
X150747809Y-94932897D01*
X150790672Y-94898369D01*
X150882350Y-94905512D01*
G37*
%TO.C,kibuzzard-64C413C5*%
G36*
X146772445Y-94981316D02*
G01*
X146906853Y-95061484D01*
X146975314Y-95118039D01*
X147142597Y-95259128D01*
X147156884Y-95271034D01*
X147175934Y-95301991D01*
X147159266Y-95332947D01*
X147037822Y-95454391D01*
X146940191Y-95549641D01*
X146905663Y-95573453D01*
X146868753Y-95554403D01*
X146777670Y-95482966D01*
X146685397Y-95416291D01*
X146592528Y-95368666D01*
X146541331Y-95361522D01*
X146499659Y-95386525D01*
X146473466Y-95425816D01*
X146487753Y-95494872D01*
X146609197Y-95599647D01*
X146738975Y-95669298D01*
X146875897Y-95763953D01*
X147002103Y-95904447D01*
X147055814Y-96024303D01*
X147074070Y-96152097D01*
X147056872Y-96287828D01*
X146981863Y-96425941D01*
X146837797Y-96535478D01*
X146747309Y-96573578D01*
X146583003Y-96604534D01*
X146405005Y-96585484D01*
X146252009Y-96518809D01*
X146117469Y-96418797D01*
X145975784Y-96290209D01*
X145961497Y-96275922D01*
X145959116Y-96221153D01*
X145992453Y-96183053D01*
X146051984Y-96118164D01*
X146135328Y-96028272D01*
X146159141Y-96004459D01*
X146211528Y-96002078D01*
X146273441Y-96049703D01*
X146321066Y-96086612D01*
X146375834Y-96129475D01*
X146423459Y-96162812D01*
X146482991Y-96194959D01*
X146561572Y-96221153D01*
X146622294Y-96196150D01*
X146628247Y-96130666D01*
X146592528Y-96075897D01*
X146461559Y-95968741D01*
X146333567Y-95887778D01*
X146202003Y-95792528D01*
X146096170Y-95683784D01*
X146032670Y-95551228D01*
X146011503Y-95394859D01*
X146036506Y-95264486D01*
X146116278Y-95149591D01*
X146219995Y-95060691D01*
X146334295Y-94997191D01*
X146459178Y-94959091D01*
X146623220Y-94947184D01*
X146772445Y-94981316D01*
G37*
%TO.C,kibuzzard-64C413B2*%
G36*
X144532350Y-94905512D02*
G01*
X144624028Y-94905512D01*
X144714516Y-94906703D01*
X144783572Y-94919800D01*
X144788334Y-94990047D01*
X144775238Y-95123397D01*
X144764522Y-95249603D01*
X144756783Y-95307348D01*
X144738328Y-95452009D01*
X144721659Y-95602028D01*
X144700228Y-95783003D01*
X144673241Y-95938049D01*
X144649428Y-96079336D01*
X144628791Y-96206866D01*
X144609741Y-96368791D01*
X144601406Y-96459278D01*
X144593072Y-96545003D01*
X144588309Y-96568816D01*
X144572831Y-96602153D01*
X144540684Y-96611678D01*
X144383522Y-96616441D01*
X144329944Y-96617631D01*
X144278747Y-96618822D01*
X144181116Y-96552147D01*
X144147778Y-96458087D01*
X144116822Y-96373553D01*
X144069197Y-96223534D01*
X144063244Y-96198531D01*
X144053719Y-96164003D01*
X144040622Y-96135428D01*
X144021572Y-96118759D01*
X144000141Y-96129475D01*
X143979900Y-96168766D01*
X143964422Y-96217581D01*
X143951325Y-96266397D01*
X143942991Y-96294972D01*
X143903105Y-96428322D01*
X143873934Y-96509284D01*
X143835834Y-96573578D01*
X143762016Y-96585484D01*
X143619141Y-96587866D01*
X143495316Y-96590247D01*
X143454834Y-96590247D01*
X143402447Y-96578341D01*
X143385778Y-96528334D01*
X143352705Y-96239939D01*
X143332861Y-96066901D01*
X143326247Y-96009222D01*
X143320889Y-95949691D01*
X143309578Y-95780622D01*
X143295886Y-95597266D01*
X143288147Y-95480584D01*
X143277431Y-95344853D01*
X143269097Y-95247222D01*
X143259572Y-95160306D01*
X143250047Y-95078153D01*
X143240522Y-94954328D01*
X143251238Y-94918609D01*
X143288147Y-94906703D01*
X143438166Y-94905512D01*
X143576278Y-94906703D01*
X143623903Y-94917419D01*
X143638191Y-94961472D01*
X143644144Y-95067437D01*
X143660813Y-95199597D01*
X143676291Y-95304372D01*
X143687006Y-95424625D01*
X143695341Y-95525828D01*
X143704866Y-95582978D01*
X143712009Y-95597266D01*
X143728678Y-95592503D01*
X143737013Y-95578216D01*
X143741775Y-95561547D01*
X143744156Y-95544878D01*
X143747728Y-95528209D01*
X143770945Y-95435936D01*
X143816784Y-95249603D01*
X143819166Y-95241269D01*
X143821547Y-95230553D01*
X143847741Y-95182928D01*
X143900128Y-95171022D01*
X144035859Y-95178166D01*
X144128728Y-95182928D01*
X144181116Y-95199597D01*
X144204928Y-95247222D01*
X144225169Y-95334137D01*
X144266841Y-95499634D01*
X144283509Y-95549641D01*
X144297797Y-95559166D01*
X144309703Y-95547259D01*
X144328753Y-95463916D01*
X144353359Y-95296699D01*
X144373203Y-95156999D01*
X144388284Y-95044816D01*
X144393047Y-94986475D01*
X144397809Y-94932897D01*
X144440672Y-94898369D01*
X144532350Y-94905512D01*
G37*
%TO.C,kibuzzard-64C40EF2*%
G36*
X138826875Y-109323981D02*
G01*
X138907044Y-109323981D01*
X138966575Y-109323981D01*
X139084050Y-109324775D01*
X139172156Y-109325370D01*
X139236450Y-109325569D01*
X139311062Y-109330331D01*
X139330906Y-109338269D01*
X139336463Y-109358906D01*
X139338050Y-109467650D01*
X139336463Y-109533531D01*
X139331700Y-109550200D01*
X139322175Y-109558931D01*
X139304712Y-109562106D01*
X139187237Y-109565281D01*
X139160250Y-109566869D01*
X139129294Y-109574806D01*
X139122150Y-109604969D01*
X139122150Y-109719269D01*
X139126119Y-109845475D01*
X139122150Y-109976444D01*
X139123737Y-110036769D01*
X139123737Y-110146306D01*
X139121356Y-110235603D01*
X139123737Y-110319344D01*
X139125325Y-110368556D01*
X139116594Y-110392369D01*
X139091987Y-110400306D01*
X139057062Y-110401894D01*
X138976497Y-110403084D01*
X138918950Y-110403481D01*
X138891962Y-110401894D01*
X138863387Y-110374906D01*
X138863387Y-110335219D01*
X138862506Y-110221448D01*
X138861976Y-110110852D01*
X138861800Y-110003431D01*
X138861624Y-109905888D01*
X138861094Y-109810109D01*
X138860212Y-109716094D01*
X138853862Y-109593856D01*
X138846719Y-109571631D01*
X138825287Y-109565281D01*
X138715750Y-109563694D01*
X138658600Y-109554169D01*
X138649075Y-109497019D01*
X138645900Y-109366844D01*
X138645900Y-109349381D01*
X138669712Y-109323981D01*
X138699875Y-109322394D01*
X138826875Y-109323981D01*
G37*
G36*
X136124950Y-109323981D02*
G01*
X136205119Y-109323981D01*
X136264650Y-109323981D01*
X136382125Y-109324775D01*
X136470231Y-109325370D01*
X136534525Y-109325569D01*
X136609137Y-109330331D01*
X136628981Y-109338269D01*
X136634537Y-109358906D01*
X136636125Y-109467650D01*
X136634537Y-109533531D01*
X136629775Y-109550200D01*
X136620250Y-109558931D01*
X136602787Y-109562106D01*
X136485312Y-109565281D01*
X136458325Y-109566869D01*
X136427369Y-109574806D01*
X136420225Y-109604969D01*
X136420225Y-109719269D01*
X136424194Y-109845475D01*
X136420225Y-109976444D01*
X136421812Y-110036769D01*
X136421812Y-110146306D01*
X136419431Y-110235603D01*
X136421812Y-110319344D01*
X136423400Y-110368556D01*
X136414669Y-110392369D01*
X136390062Y-110400306D01*
X136355137Y-110401894D01*
X136274572Y-110403084D01*
X136217025Y-110403481D01*
X136190037Y-110401894D01*
X136161462Y-110374906D01*
X136161462Y-110335219D01*
X136160581Y-110221448D01*
X136160051Y-110110852D01*
X136159875Y-110003431D01*
X136159699Y-109905888D01*
X136159169Y-109810109D01*
X136158287Y-109716094D01*
X136151937Y-109593856D01*
X136144794Y-109571631D01*
X136123362Y-109565281D01*
X136013825Y-109563694D01*
X135956675Y-109554169D01*
X135947150Y-109497019D01*
X135943975Y-109366844D01*
X135943975Y-109349381D01*
X135967787Y-109323981D01*
X135997950Y-109322394D01*
X136124950Y-109323981D01*
G37*
G36*
X137317956Y-109311281D02*
G01*
X137331450Y-109341444D01*
X137373487Y-109521784D01*
X137406888Y-109665294D01*
X137431653Y-109771974D01*
X137447782Y-109841824D01*
X137455275Y-109874844D01*
X137469959Y-109940527D01*
X137485437Y-110010575D01*
X137501709Y-110086378D01*
X137518775Y-110169325D01*
X137534650Y-110246517D01*
X137547350Y-110305056D01*
X137552112Y-110325694D01*
X137558462Y-110348712D01*
X137563225Y-110368556D01*
X137565606Y-110393956D01*
X137554494Y-110408244D01*
X137529887Y-110414594D01*
X137459244Y-110416975D01*
X137380662Y-110414594D01*
X137358437Y-110412213D01*
X137333037Y-110409831D01*
X137298112Y-110378081D01*
X137287000Y-110336806D01*
X137258425Y-110314581D01*
X137177859Y-110312994D01*
X137164762Y-110312761D01*
X137088562Y-110311406D01*
X137061575Y-110335219D01*
X137054431Y-110363000D01*
X137047287Y-110390781D01*
X137013950Y-110417769D01*
X136946481Y-110420944D01*
X136879806Y-110423325D01*
X136813925Y-110419356D01*
X136781381Y-110407450D01*
X136780587Y-110374906D01*
X136799042Y-110300691D01*
X136816306Y-110224094D01*
X136834364Y-110138567D01*
X136855200Y-110037563D01*
X136860608Y-110011369D01*
X137140950Y-110011369D01*
X137156825Y-110028831D01*
X137164762Y-110030419D01*
X137182225Y-110030419D01*
X137202862Y-110024069D01*
X137206037Y-110003431D01*
X137183812Y-109903419D01*
X137174287Y-109895481D01*
X137164762Y-109903419D01*
X137140950Y-110011369D01*
X136860608Y-110011369D01*
X136874250Y-109945289D01*
X136886950Y-109885956D01*
X136911159Y-109774137D01*
X136937750Y-109657753D01*
X136966722Y-109536805D01*
X136998075Y-109411294D01*
X137012362Y-109347794D01*
X137026650Y-109311281D01*
X137064750Y-109303344D01*
X137117137Y-109304138D01*
X137169525Y-109303344D01*
X137171112Y-109303344D01*
X137172700Y-109303344D01*
X137287000Y-109303344D01*
X137317956Y-109311281D01*
G37*
G36*
X135535282Y-109334035D02*
G01*
X135624887Y-109387481D01*
X135670528Y-109425184D01*
X135782050Y-109519244D01*
X135791575Y-109527181D01*
X135804275Y-109547819D01*
X135793162Y-109568456D01*
X135712200Y-109649419D01*
X135647112Y-109712919D01*
X135624094Y-109728794D01*
X135599487Y-109716094D01*
X135538766Y-109668469D01*
X135477250Y-109624019D01*
X135415337Y-109592269D01*
X135381206Y-109587506D01*
X135353425Y-109604175D01*
X135335962Y-109630369D01*
X135345487Y-109676406D01*
X135426450Y-109746256D01*
X135512969Y-109792691D01*
X135604250Y-109855794D01*
X135688387Y-109949456D01*
X135724194Y-110029360D01*
X135736365Y-110114556D01*
X135724900Y-110205044D01*
X135674894Y-110297119D01*
X135578850Y-110370144D01*
X135518525Y-110395544D01*
X135408987Y-110416181D01*
X135290322Y-110403481D01*
X135188325Y-110359031D01*
X135098631Y-110292356D01*
X135004175Y-110206631D01*
X134994650Y-110197106D01*
X134993062Y-110160594D01*
X135015287Y-110135194D01*
X135054975Y-110091934D01*
X135110537Y-110032006D01*
X135126412Y-110016131D01*
X135161337Y-110014544D01*
X135202612Y-110046294D01*
X135234362Y-110070900D01*
X135270875Y-110099475D01*
X135302625Y-110121700D01*
X135342312Y-110143131D01*
X135394700Y-110160594D01*
X135435181Y-110143925D01*
X135439150Y-110100269D01*
X135415337Y-110063756D01*
X135328025Y-109992319D01*
X135242697Y-109938344D01*
X135154987Y-109874844D01*
X135084432Y-109802348D01*
X135042099Y-109713977D01*
X135027987Y-109609731D01*
X135044656Y-109522816D01*
X135097837Y-109446219D01*
X135166982Y-109386952D01*
X135243182Y-109344619D01*
X135326437Y-109319219D01*
X135435799Y-109311281D01*
X135535282Y-109334035D01*
G37*
G36*
X138252994Y-109327950D02*
G01*
X138312128Y-109361684D01*
X138364119Y-109407325D01*
X138404798Y-109462292D01*
X138430000Y-109524006D01*
X138447463Y-109638703D01*
X138439525Y-109757369D01*
X138419681Y-109829600D01*
X138385550Y-109903419D01*
X138333163Y-109998669D01*
X138333163Y-110055819D01*
X138364736Y-110117026D01*
X138410774Y-110207513D01*
X138471275Y-110327281D01*
X138503025Y-110393956D01*
X138487150Y-110420944D01*
X138469688Y-110422531D01*
X138386344Y-110423325D01*
X138269662Y-110422531D01*
X138210925Y-110382844D01*
X138186407Y-110319167D01*
X138146719Y-110231855D01*
X138091862Y-110120906D01*
X138082337Y-110101856D01*
X138034712Y-110073281D01*
X138025187Y-110073281D01*
X138015662Y-110073281D01*
X138006137Y-110073281D01*
X137996612Y-110073281D01*
X137990262Y-110073281D01*
X137987087Y-110073281D01*
X137977563Y-110074869D01*
X137955337Y-110097094D01*
X137953750Y-110132019D01*
X137953750Y-110204647D01*
X137953750Y-110359031D01*
X137953750Y-110392369D01*
X137948194Y-110413800D01*
X137928350Y-110420944D01*
X137923587Y-110420944D01*
X137820797Y-110423722D01*
X137750550Y-110422531D01*
X137723562Y-110415388D01*
X137714037Y-110389194D01*
X137707687Y-110306644D01*
X137710466Y-110161387D01*
X137712450Y-110084394D01*
X137712450Y-110016925D01*
X137712450Y-109839919D01*
X137708878Y-109775030D01*
X137707687Y-109685138D01*
X137707657Y-109677994D01*
X137963275Y-109677994D01*
X137968037Y-109752606D01*
X137990262Y-109773244D01*
X138069637Y-109771656D01*
X138128375Y-109739906D01*
X138143456Y-109682756D01*
X138123612Y-109620844D01*
X138068050Y-109582744D01*
X137990262Y-109581156D01*
X137968831Y-109589094D01*
X137963275Y-109609731D01*
X137963275Y-109677994D01*
X137707657Y-109677994D01*
X137707291Y-109590086D01*
X137706100Y-109509719D01*
X137706894Y-109420819D01*
X137712450Y-109344619D01*
X137722769Y-109315250D01*
X137750550Y-109308106D01*
X137818019Y-109305725D01*
X137885487Y-109306519D01*
X137952163Y-109306519D01*
X138020425Y-109303344D01*
X138074400Y-109303344D01*
X138128375Y-109301756D01*
X138252994Y-109327950D01*
G37*
D11*
%TO.C,C5*%
X131697000Y-101613580D02*
X131697000Y-101332420D01*
X132717000Y-101613580D02*
X132717000Y-101332420D01*
%TO.C,U1*%
X136252000Y-99444000D02*
X136252000Y-98144000D01*
X138052000Y-97894000D02*
X138052000Y-99444000D01*
%TO.C,R3*%
X137907500Y-95647742D02*
X137907500Y-96122258D01*
X138952500Y-95647742D02*
X138952500Y-96122258D01*
%TO.C,R2*%
X140478742Y-95997500D02*
X140953258Y-95997500D01*
X140478742Y-97042500D02*
X140953258Y-97042500D01*
%TO.C,C4*%
X132717000Y-104661580D02*
X132717000Y-104380420D01*
X131697000Y-104661580D02*
X131697000Y-104380420D01*
%TO.C,SW5*%
X139360000Y-109015000D02*
X139360000Y-108895000D01*
X139360000Y-107885000D02*
X139360000Y-106745000D01*
X139360000Y-105735000D02*
X139360000Y-105615000D01*
X139360000Y-105615000D02*
X134960000Y-105615000D01*
X134960000Y-109015000D02*
X139360000Y-109015000D01*
X134960000Y-108895000D02*
X134960000Y-109015000D01*
X134960000Y-106745000D02*
X134960000Y-107885000D01*
X134960000Y-105615000D02*
X134960000Y-105735000D01*
%TO.C,C3*%
X137030580Y-100455000D02*
X136749420Y-100455000D01*
X137030580Y-101475000D02*
X136749420Y-101475000D01*
%TO.C,SW3*%
X155388000Y-108064000D02*
X155388000Y-106734000D01*
X156718000Y-108064000D02*
X155388000Y-108064000D01*
X157988000Y-108064000D02*
X160588000Y-108064000D01*
X157988000Y-108064000D02*
X157988000Y-105404000D01*
X160588000Y-108064000D02*
X160588000Y-105404000D01*
X157988000Y-105404000D02*
X160588000Y-105404000D01*
%TO.C,SW2*%
X149033000Y-108064000D02*
X149033000Y-106734000D01*
X150363000Y-108064000D02*
X149033000Y-108064000D01*
X151633000Y-108064000D02*
X154233000Y-108064000D01*
X151633000Y-108064000D02*
X151633000Y-105404000D01*
X154233000Y-108064000D02*
X154233000Y-105404000D01*
X151633000Y-105404000D02*
X154233000Y-105404000D01*
%TO.C,SW4*%
X161738000Y-108064000D02*
X161738000Y-106734000D01*
X163068000Y-108064000D02*
X161738000Y-108064000D01*
X164338000Y-108064000D02*
X166938000Y-108064000D01*
X164338000Y-108064000D02*
X164338000Y-105404000D01*
X166938000Y-108064000D02*
X166938000Y-105404000D01*
X164338000Y-105404000D02*
X166938000Y-105404000D01*
%TO.C,U2*%
X120724000Y-106730000D02*
X120979000Y-106730000D01*
X120979000Y-106730000D02*
X120979000Y-108545000D01*
X131244000Y-106730000D02*
X130989000Y-106730000D01*
X120724000Y-102870000D02*
X120724000Y-106730000D01*
X120724000Y-102870000D02*
X120724000Y-99010000D01*
X131244000Y-102870000D02*
X131244000Y-106730000D01*
X131244000Y-102870000D02*
X131244000Y-99010000D01*
X120724000Y-99010000D02*
X120979000Y-99010000D01*
X131244000Y-99010000D02*
X130989000Y-99010000D01*
%TO.C,C2*%
X137030580Y-101949000D02*
X136749420Y-101949000D01*
X137030580Y-102969000D02*
X136749420Y-102969000D01*
%TO.C,R1*%
X140953258Y-98566500D02*
X140478742Y-98566500D01*
X140953258Y-97521500D02*
X140478742Y-97521500D01*
%TO.C,L1*%
X131742000Y-96914000D02*
X131742000Y-97904000D01*
X135942000Y-96914000D02*
X135942000Y-97904000D01*
%TO.C,C1*%
X137400000Y-96000180D02*
X137400000Y-95719020D01*
X136380000Y-96000180D02*
X136380000Y-95719020D01*
%TO.C,R4*%
X126602258Y-95616500D02*
X126127742Y-95616500D01*
X126602258Y-96661500D02*
X126127742Y-96661500D01*
%TO.C,R5*%
X126602258Y-94092500D02*
X126127742Y-94092500D01*
X126602258Y-95137500D02*
X126127742Y-95137500D01*
%TO.C,SW1*%
X142683000Y-108064000D02*
X142683000Y-106734000D01*
X144013000Y-108064000D02*
X142683000Y-108064000D01*
X145283000Y-108064000D02*
X147883000Y-108064000D01*
X145283000Y-108064000D02*
X145283000Y-105404000D01*
X147883000Y-108064000D02*
X147883000Y-105404000D01*
X145283000Y-105404000D02*
X147883000Y-105404000D01*
%TD*%
M02*
