M48
; DRILL file {KiCad 7.0.2} date Fri Jul 28 16:56:16 2023
; FORMAT={-:-/ absolute / inch / decimal}
; #@! TF.CreationDate,2023-07-28T16:56:16-04:00
; #@! TF.GenerationSoftware,Kicad,Pcbnew,7.0.2
; #@! TF.FileFunction,MixedPlating,1,2
FMAT,2
INCH
; #@! TA.AperFunction,Plated,PTH,ViaDrill
T1C0.0100
; #@! TA.AperFunction,Plated,PTH,ComponentDrill
T2C0.0394
; #@! TA.AperFunction,Plated,PTH,ComponentDrill
T3C0.1000
; #@! TA.AperFunction,NonPlated,NPTH,ComponentDrill
T4C0.1000
%
G90
G05
T1
X4.885Y-3.795
X5.27Y-3.685
X5.275Y-3.74
X5.29Y-3.94
X5.625Y-3.77
T2
X4.95Y-4.45
X5.05Y-4.45
X5.15Y-4.45
X5.25Y-4.45
X5.35Y-3.65
X5.35Y-4.45
X5.45Y-3.65
X5.45Y-4.45
X5.55Y-3.65
X5.55Y-4.45
X5.65Y-3.65
X5.65Y-4.45
X5.6698Y-3.86
X5.6698Y-3.96
X5.6698Y-4.06
X5.6698Y-4.2021
X5.75Y-3.65
X5.75Y-4.45
X5.7698Y-3.86
X5.7698Y-3.96
X5.7698Y-4.06
X5.7698Y-4.2021
X5.85Y-3.65
X5.85Y-4.45
X5.9198Y-4.2021
X5.92Y-3.86
X5.92Y-3.96
X5.92Y-4.06
X5.95Y-3.65
X5.95Y-4.45
X6.0198Y-4.2021
X6.02Y-3.86
X6.02Y-3.96
X6.02Y-4.06
X6.05Y-3.65
X6.05Y-4.45
X6.15Y-3.65
X6.15Y-4.45
X6.1698Y-3.8606
X6.1698Y-3.9606
X6.1698Y-4.0606
X6.17Y-4.2021
X6.25Y-3.65
X6.25Y-4.45
X6.2698Y-3.8606
X6.2698Y-3.9606
X6.2698Y-4.0606
X6.27Y-4.2021
X6.35Y-3.65
X6.35Y-4.45
X6.42Y-3.86
X6.42Y-3.96
X6.42Y-4.06
X6.42Y-4.2021
X6.45Y-3.65
X6.45Y-4.45
X6.52Y-3.86
X6.52Y-3.96
X6.52Y-4.06
X6.52Y-4.2021
T3
X4.8Y-3.7
X4.8Y-4.4
T4
X6.6Y-3.7
X6.6Y-4.4
T0
M30
