%TF.GenerationSoftware,KiCad,Pcbnew,7.0.2*%
%TF.CreationDate,2023-07-28T16:56:04-04:00*%
%TF.ProjectId,dispocam-hub,64697370-6f63-4616-9d2d-6875622e6b69,rev?*%
%TF.SameCoordinates,Original*%
%TF.FileFunction,Soldermask,Bot*%
%TF.FilePolarity,Negative*%
%FSLAX46Y46*%
G04 Gerber Fmt 4.6, Leading zero omitted, Abs format (unit mm)*
G04 Created by KiCad (PCBNEW 7.0.2) date 2023-07-28 16:56:04*
%MOMM*%
%LPD*%
G01*
G04 APERTURE LIST*
%ADD10C,10.200000*%
%ADD11R,5.100000X2.500000*%
%ADD12O,1.700000X1.700000*%
%ADD13C,1.700000*%
%ADD14C,2.540000*%
%ADD15C,3.810000*%
%ADD16R,1.700000X1.700000*%
G04 APERTURE END LIST*
D10*
%TO.C,BT1*%
X128220000Y-101884000D03*
D11*
X128270000Y-94234000D03*
X128270000Y-109534000D03*
%TD*%
D12*
%TO.C,M1*%
X146553000Y-103124000D03*
X144013000Y-103124000D03*
X146553000Y-100584000D03*
X144013000Y-100584000D03*
X146553000Y-98044000D03*
D13*
X144013000Y-98044000D03*
%TD*%
D12*
%TO.C,M2*%
X152908000Y-103124000D03*
X150368000Y-103124000D03*
X152908000Y-100584000D03*
X150368000Y-100584000D03*
X152908000Y-98044000D03*
D13*
X150368000Y-98044000D03*
%TD*%
D12*
%TO.C,M3*%
X159253000Y-103139000D03*
X156713000Y-103139000D03*
X159253000Y-100599000D03*
X156713000Y-100599000D03*
X159253000Y-98059000D03*
D13*
X156713000Y-98059000D03*
%TD*%
D12*
%TO.C,M4*%
X165608000Y-103124000D03*
X163068000Y-103124000D03*
X165608000Y-100584000D03*
X163068000Y-100584000D03*
X165608000Y-98044000D03*
D13*
X163068000Y-98044000D03*
%TD*%
D12*
%TO.C,J2*%
X163830000Y-92710000D03*
X161290000Y-92710000D03*
X158750000Y-92710000D03*
X156210000Y-92710000D03*
X153670000Y-92710000D03*
X151130000Y-92710000D03*
X148590000Y-92710000D03*
X146050000Y-92710000D03*
X143510000Y-92710000D03*
X140970000Y-92710000D03*
X138430000Y-92710000D03*
D13*
X135890000Y-92710000D03*
%TD*%
%TO.C,J1*%
X125730000Y-113030000D03*
D12*
X128270000Y-113030000D03*
X130810000Y-113030000D03*
X133350000Y-113030000D03*
X135890000Y-113030000D03*
X138430000Y-113030000D03*
X140970000Y-113030000D03*
X143510000Y-113030000D03*
X146050000Y-113030000D03*
X148590000Y-113030000D03*
X151130000Y-113030000D03*
X153670000Y-113030000D03*
X156210000Y-113030000D03*
X158750000Y-113030000D03*
X161290000Y-113030000D03*
X163830000Y-113030000D03*
%TD*%
D14*
%TO.C,H4*%
X167640000Y-111760000D03*
%TD*%
%TO.C,H3*%
X167640000Y-93980000D03*
%TD*%
D15*
%TO.C,H2*%
X121920000Y-93980000D03*
%TD*%
%TO.C,H1*%
X121920000Y-111760000D03*
%TD*%
D16*
%TO.C,SW3*%
X156718000Y-106734000D03*
D12*
X159258000Y-106734000D03*
%TD*%
D16*
%TO.C,SW2*%
X150363000Y-106734000D03*
D12*
X152903000Y-106734000D03*
%TD*%
D16*
%TO.C,SW4*%
X163068000Y-106734000D03*
D12*
X165608000Y-106734000D03*
%TD*%
D16*
%TO.C,SW1*%
X144013000Y-106734000D03*
D12*
X146553000Y-106734000D03*
%TD*%
M02*
